<svg width="120" height="120" viewBox="0 0 120 120" fill="none" xmlns="http://www.w3.org/2000/svg">
<path d="M78.7447 14.0586C77.4514 14.0586 76.4016 15.1084 76.4016 16.4016C76.4016 17.6949 77.4514 18.7447 78.7447 18.7447C80.038 18.7447 81.0877 17.6949 81.0877 16.4016C81.088 15.1084 80.0382 14.0586 78.7447 14.0586Z" fill="#FBA1AB"/>
<path d="M36.569 9.37231C35.2757 9.37231 34.226 10.4221 34.226 11.7154C34.226 13.0086 35.2757 14.0584 36.569 14.0584C37.8623 14.0584 38.912 13.0086 38.912 11.7154C38.9123 10.4221 37.8625 9.37231 36.569 9.37231Z" fill="#FBA1AB"/>
<path d="M29.808 13.6397C29.1255 12.5408 27.6813 12.2033 26.5814 12.886C19.8384 17.0745 15.4811 25.1684 15.4811 33.5063C15.4811 38.7209 17.0238 45.1195 19.8248 51.5238C20.343 52.7093 21.7244 53.2507 22.9103 52.7318C24.0963 52.2133 24.6367 50.8317 24.1183 49.6462C21.6077 43.9057 20.1675 38.0227 20.1675 33.5065C20.1675 26.8556 23.7386 20.1687 29.0542 16.8668C30.1532 16.1836 30.4912 14.7392 29.808 13.6397Z" fill="#FBA1AB"/>
<path d="M113.891 38.1925C113.891 20.2375 99.3884 4.68632 81.088 4.68632C74.5442 4.68632 68.2965 6.66092 62.8867 10.4156C56.6882 3.7732 48.0608 0 38.9123 0C20.5987 0 6.10873 15.5646 6.10873 33.5062C6.10873 48.7705 16.4222 72.5975 30.5038 79.6775L27.3285 88.7307C27.0771 89.4476 27.1886 90.2415 27.6283 90.8614C28.0675 91.4811 28.78 91.8258 29.5396 91.8258H36.7204C36.6009 95.0321 37.8121 98.2336 40.2341 100.888C43.3007 104.251 43.3007 108.428 40.2325 111.791C38.8009 113.364 37.788 115.109 37.2227 116.977C36.8477 118.216 37.5482 119.524 38.7866 119.899C40.0284 120.274 41.3338 119.571 41.7081 118.335C42.07 117.139 42.7396 115.999 43.6966 114.948C48.3932 109.8 48.3932 102.881 43.6966 97.7307C42.0646 95.9417 41.2858 93.9012 41.4149 91.8493H48.2849C49.0445 91.8493 49.7568 91.4811 50.1962 90.8614C50.6357 90.2415 50.7475 89.4476 50.496 88.7307L47.3472 79.7527C51.2669 77.8566 55.0722 74.645 58.5409 70.306C62.7278 76.9412 67.6276 81.812 72.681 84.3615L69.5049 93.4168C69.2535 94.1337 69.365 94.9276 69.8047 95.5475C70.2439 96.1672 70.9564 96.5119 71.716 96.5119H78.8968C78.7773 99.7182 79.9885 102.92 82.4106 105.574C85.4888 108.95 85.4888 112.669 82.4106 116.044C81.5384 117.001 81.6067 118.483 82.5629 119.355C83.0122 119.764 83.5775 119.966 84.1409 119.966C84.7768 119.966 85.4108 119.709 85.873 119.202C90.5935 114.025 90.5935 107.594 85.8727 102.417C84.2408 100.628 83.462 98.5871 83.5911 96.5351H90.4611C91.2207 96.5351 91.933 96.1669 92.3724 95.5472C92.8119 94.9273 92.9237 94.1335 92.6722 93.4165L89.4969 84.3633C103.571 77.2862 113.891 53.4604 113.891 38.1925ZM32.8448 87.1632L34.9019 81.2984C36.2364 81.6137 37.5784 81.774 38.9123 81.774C40.2473 81.774 41.5916 81.6172 42.9283 81.3141L44.98 87.1632C42.5205 87.1632 35.245 87.1632 32.8448 87.1632ZM38.9123 77.0879C23.9852 77.0879 10.7951 49.5906 10.7951 33.5064C10.7951 17.8844 23.6711 4.68632 38.9123 4.68632C46.6356 4.68632 53.9251 7.82436 59.2204 13.3596C52.3349 19.7238 48.2847 28.8328 48.2847 38.1927C48.2847 46.3394 51.2216 56.818 56.0064 65.9073C51.8992 71.5037 45.8608 77.0879 38.9123 77.0879ZM75.0205 91.8493L77.0776 85.9845C78.4121 86.2998 79.7542 86.4601 81.088 86.4601C82.4218 86.4601 83.7641 86.2974 85.0979 85.9831L87.1557 91.8493C84.6938 91.8493 77.4207 91.8493 75.0205 91.8493ZM81.088 81.774C65.9905 81.774 52.9708 54.0369 52.9708 38.1925C52.9708 22.905 65.3563 9.3724 81.088 9.3724C96.3291 9.3724 109.205 22.5703 109.205 38.1925C109.205 54.2038 96.0755 81.774 81.088 81.774Z" fill="#FBA1AB"/>
<path d="M71.9842 18.3263C71.3014 17.2271 69.857 16.8894 68.7573 17.5724C62.0143 21.7609 57.6571 29.8548 57.6571 38.1926C57.6571 46.0723 60.9782 53.4324 61.8386 55.9814C62.372 57.5597 64.4957 58.201 65.7807 56.9515C66.4686 56.2828 66.6793 55.2621 66.3125 54.3757C64.2032 49.2528 62.3434 43.7082 62.3434 38.1929C62.3434 31.542 65.9146 24.8551 71.2302 21.5532C72.3292 20.8702 72.6671 19.4258 71.9842 18.3263Z" fill="#FBA1AB"/>
</svg>
