<svg width="120" height="120" viewBox="0 0 120 120" fill="none" xmlns="http://www.w3.org/2000/svg">
<path d="M60 28.4999C60.2462 28.4999 60.49 28.4514 60.7175 28.3572C60.945 28.2629 61.1517 28.1248 61.3259 27.9507L72.8203 16.4567C73.5115 15.7655 74.0598 14.9449 74.4339 14.0418C74.808 13.1387 75.0006 12.1708 75.0006 11.1932C75.0006 10.2157 74.8081 9.24774 74.434 8.34462C74.0599 7.4415 73.5116 6.6209 72.8204 5.92967C72.1292 5.23845 71.3086 4.69013 70.4055 4.31604C69.5024 3.94194 68.5344 3.7494 67.5569 3.74938C66.5794 3.74937 65.6114 3.9419 64.7083 4.31598C63.8052 4.69005 62.9846 5.23834 62.2934 5.92955L60 8.22315L57.7069 5.92955C57.0157 5.23833 56.1951 4.69002 55.292 4.31592C54.3888 3.94183 53.4209 3.74928 52.4434 3.74927C51.4658 3.74926 50.4979 3.94178 49.5947 4.31586C48.6916 4.68993 47.871 5.23823 47.1798 5.92944C46.4886 6.62065 45.9403 7.44123 45.5662 8.34435C45.1921 9.24746 44.9995 10.2154 44.9995 11.1929C44.9995 12.1705 45.192 13.1384 45.5661 14.0416C45.9402 14.9447 46.4885 15.7653 47.1797 16.4565L58.6737 27.9507C58.8478 28.1249 59.0546 28.263 59.2822 28.3573C59.5098 28.4515 59.7537 28.4999 60 28.4999ZM48.75 11.1934C48.7501 10.463 48.9668 9.74903 49.3726 9.14176C49.7784 8.53449 50.3552 8.06118 51.03 7.78165C51.7048 7.50213 52.4473 7.42895 53.1637 7.57136C53.88 7.71377 54.5381 8.06538 55.0547 8.58174L58.6737 12.2007C58.8478 12.3748 59.0545 12.513 59.282 12.6072C59.5095 12.7014 59.7533 12.7499 59.9995 12.7499C60.2458 12.7499 60.4896 12.7014 60.7171 12.6072C60.9446 12.513 61.1513 12.3748 61.3254 12.2007L64.9453 8.58174C65.287 8.233 65.6943 7.95545 66.1439 7.76515C66.5935 7.57486 67.0764 7.47558 67.5646 7.47307C68.0528 7.47056 68.5366 7.56487 68.9881 7.75054C69.4397 7.9362 69.8499 8.20955 70.1951 8.55476C70.5403 8.89997 70.8137 9.3102 70.9993 9.76172C71.185 10.2132 71.2793 10.6971 71.2768 11.1853C71.2743 11.6735 71.175 12.1563 70.9847 12.6059C70.7944 13.0555 70.5169 13.4629 70.1681 13.8046L60 23.9731L49.8319 13.8046C49.4878 13.4625 49.215 13.0556 49.0293 12.6074C48.8436 12.1591 48.7487 11.6785 48.75 11.1934Z" fill="#FBA1AB"/>
<path d="M20.5289 99.9955C18.9461 100.286 17.4763 101.014 16.2861 102.097C15.0958 103.18 14.2329 104.574 13.7951 106.123L13.4006 107.5C13.2637 107.978 13.3222 108.491 13.5634 108.926C13.8045 109.36 14.2086 109.682 14.6866 109.819L36.8859 116.177C37.1226 116.246 37.3704 116.266 37.6151 116.238C37.8598 116.211 38.0967 116.135 38.312 116.015C38.5274 115.896 38.7171 115.735 38.8702 115.542C39.0234 115.349 39.137 115.128 39.2046 114.891L39.5606 113.649C40.012 112.061 40.0015 110.377 39.5303 108.795C39.0591 107.213 38.1468 105.798 36.9002 104.715L36.709 104.549C36.0022 103.936 35.4849 103.134 35.2177 102.237C34.9506 101.339 34.9446 100.385 35.2005 99.4846L42.5709 73.7542L49.807 69.7405C54.5231 67.1147 58.1668 62.9154 60.1015 57.8762C62.0362 62.9154 65.6798 67.1147 70.3959 69.7405L77.632 73.7542L85.0027 99.4846C85.2585 100.385 85.2526 101.34 84.9854 102.237C84.7183 103.134 84.201 103.936 83.4942 104.55L83.3032 104.714C82.0565 105.796 81.144 107.212 80.6728 108.794C80.2016 110.376 80.1911 112.06 80.6426 113.648L80.9984 114.891C81.0659 115.127 81.1796 115.349 81.3327 115.541C81.4859 115.734 81.6756 115.895 81.8909 116.015C82.1063 116.134 82.3431 116.21 82.5878 116.238C82.8325 116.266 83.0803 116.245 83.317 116.177L105.516 109.819C105.994 109.682 106.398 109.36 106.639 108.926C106.88 108.491 106.939 107.978 106.802 107.5L106.407 106.123C105.97 104.574 105.107 103.179 103.916 102.096C102.726 101.014 101.256 100.286 99.6734 99.9955C98.776 99.8311 97.9427 99.4185 97.2679 98.8045C96.5931 98.1905 96.1039 97.3997 95.8556 96.5219L88.4473 70.6565L92.4609 63.4201C94.4077 59.8963 95.397 55.9238 95.3303 51.8985C95.2636 47.8732 94.1431 43.9357 92.0805 40.4783L83.374 25.9398C83.1617 25.5854 82.8384 25.311 82.4541 25.1592C82.0699 25.0074 81.6463 24.9868 81.2491 25.1005L60.1015 31.1582L38.9531 25.1015C38.5559 24.9877 38.1323 25.0083 37.748 25.16C37.3637 25.3118 37.0403 25.5863 36.828 25.9408L28.1215 40.4793C26.0589 43.9366 24.9385 47.8742 24.8717 51.8994C24.805 55.9247 25.7943 59.8972 27.7411 63.4211L31.7548 70.6574L24.3466 96.5219C24.0984 97.3997 23.6092 98.1905 22.9344 98.8045C22.2596 99.4185 21.4263 99.8311 20.5289 99.9955ZM92.2512 97.5545C92.6891 99.103 93.5521 100.498 94.7423 101.581C95.9326 102.664 97.4024 103.391 98.9852 103.682C99.8085 103.832 100.579 104.192 101.223 104.727C101.867 105.261 102.363 105.953 102.662 106.734L84.1207 112.045C83.9891 111.219 84.0702 110.373 84.3563 109.586C84.6424 108.8 85.1241 108.099 85.7559 107.551L85.9469 107.387C87.1936 106.304 88.1059 104.889 88.5772 103.307C89.0484 101.724 89.0591 100.041 88.6078 98.4524L81.5391 73.7776L85.1442 72.745L92.2512 97.5545ZM89.1809 61.6014L85.1672 68.8377L79.4503 70.4753L72.2142 66.4614C69.2712 64.8226 66.8091 62.4411 65.0731 59.5543C63.3372 56.6675 62.3882 53.3761 62.3205 50.0083L62.2971 48.7504H66.8909C74.7988 48.7517 82.657 47.4991 90.1727 45.0393C91.2505 47.6996 91.7209 50.567 91.5494 53.4323C91.3779 56.2975 90.569 59.0884 89.1816 61.6012L89.1809 61.6014ZM80.8969 29.1022L88.4203 41.6648C81.4578 43.8765 74.1959 45.0015 66.8906 44.9999H62.2294L62.0365 34.5048L80.8969 29.1022ZM39.3061 29.1022L58.1665 34.5048L57.9736 44.9999H53.1094C45.8644 45.0013 38.6619 43.8947 31.7515 41.7187L39.3061 29.1022ZM31.0214 61.6012C29.6389 59.0976 28.8305 56.3178 28.6549 53.4633C28.4792 50.6088 28.9407 47.7509 30.0059 45.0967C37.4678 47.5183 45.2643 48.7511 53.1094 48.7499H57.9059L57.8824 50.0078C57.8148 53.3756 56.8658 56.6669 55.1299 59.5537C53.394 62.4406 50.9319 64.822 47.989 66.4609L40.7527 70.4748L35.0358 68.8372L31.0214 61.6012ZM27.9511 97.5543L35.0576 72.7448L38.6627 73.7774L31.5954 98.4519C31.144 100.04 31.1545 101.724 31.6257 103.306C32.0968 104.888 33.0092 106.304 34.2558 107.386L34.4473 107.552C35.079 108.1 35.5606 108.801 35.8467 109.587C36.1328 110.374 36.214 111.22 36.0825 112.046L17.5406 106.734C17.8401 105.953 18.3356 105.261 18.9796 104.726C19.6236 104.192 20.3943 103.831 21.2177 103.681C22.8004 103.391 24.2702 102.663 25.4605 101.58C26.6507 100.497 27.5138 99.1028 27.9518 97.5545L27.9511 97.5543Z" fill="#FBA1AB"/>
<path d="M39.3281 22.2827C39.5595 22.367 39.8053 22.4049 40.0513 22.3941C40.2973 22.3834 40.5388 22.3242 40.762 22.2201C40.9852 22.1159 41.1856 21.9688 41.3519 21.7871C41.5181 21.6054 41.6469 21.3927 41.7309 21.1612L43.0123 17.6367C43.1821 17.1693 43.1594 16.6536 42.949 16.203C42.7387 15.7524 42.3579 15.4038 41.8905 15.2339C41.4232 15.064 40.9074 15.0868 40.4568 15.2971C40.0062 15.5075 39.6576 15.8882 39.4877 16.3556L38.2066 19.8799C38.0367 20.3473 38.0594 20.863 38.2697 21.3136C38.4801 21.7642 38.8608 22.1128 39.3281 22.2827Z" fill="#FBA1AB"/>
<path d="M34.042 22.2359C34.4083 22.2355 34.7664 22.1278 35.0722 21.9261C35.378 21.7244 35.6179 21.4376 35.7625 21.1011C35.9071 20.7645 35.95 20.393 35.8858 20.0324C35.8216 19.6718 35.6532 19.3379 35.4014 19.0719L32.5186 16.0283C32.1765 15.6673 31.7051 15.457 31.208 15.4436C30.7109 15.4301 30.2288 15.6148 29.8678 15.9568C29.5068 16.2988 29.2965 16.7703 29.2831 17.2674C29.2697 17.7645 29.4543 18.2466 29.7963 18.6076L32.6791 21.6509C32.8544 21.8363 33.0657 21.9838 33.3001 22.0844C33.5344 22.185 33.7869 22.2366 34.042 22.2359Z" fill="#FBA1AB"/>
<path d="M26.0923 26.3438C26.1449 26.8004 26.3635 27.2217 26.7065 27.5278C27.0494 27.8338 27.4928 28.0032 27.9525 28.0038C28.0252 28.0038 28.0978 27.9996 28.17 27.9912L32.3348 27.5102C32.8289 27.4532 33.28 27.2022 33.5889 26.8125C33.8979 26.4229 34.0394 25.9264 33.9824 25.4324C33.9253 24.9384 33.6743 24.4873 33.2847 24.1783C32.895 23.8693 32.3985 23.7278 31.9045 23.7849L27.7397 24.266C27.2457 24.3231 26.7946 24.5741 26.4857 24.9637C26.1767 25.3534 26.0352 25.8498 26.0923 26.3438Z" fill="#FBA1AB"/>
<path d="M79.8612 22.396C80.1626 22.396 80.4595 22.3234 80.7269 22.1842C80.9942 22.045 81.2241 21.8435 81.397 21.5966C81.5699 21.3497 81.6807 21.0648 81.7201 20.766C81.7595 20.4672 81.7262 20.1633 81.6232 19.88L80.3419 16.3557C80.1696 15.8915 79.8208 15.5143 79.3714 15.3064C78.9221 15.0985 78.4088 15.0767 77.9435 15.2459C77.4781 15.415 77.0986 15.7613 76.8877 16.2093C76.6768 16.6572 76.6516 17.1704 76.8176 17.6368L78.0989 21.1613C78.2304 21.5232 78.47 21.8357 78.7853 22.0566C79.1006 22.2775 79.4762 22.396 79.8612 22.396Z" fill="#FBA1AB"/>
<path d="M87.3108 16.0278L84.428 19.0714C84.2526 19.2489 84.1143 19.4596 84.0214 19.6913C83.9285 19.9229 83.8828 20.1708 83.8869 20.4203C83.891 20.6698 83.945 20.916 84.0455 21.1445C84.146 21.3729 84.2911 21.579 84.4723 21.7506C84.6535 21.9222 84.8671 22.0559 85.1007 22.1439C85.3342 22.2319 85.583 22.2724 85.8324 22.2629C86.0818 22.2535 86.3268 22.1944 86.5531 22.0891C86.7793 21.9837 86.9823 21.8343 87.15 21.6495L90.0328 18.6061C90.3749 18.2451 90.5595 17.763 90.5461 17.2659C90.5327 16.7688 90.3223 16.2974 89.9613 15.9553C89.6003 15.6133 89.1183 15.4287 88.6211 15.4421C88.124 15.4555 87.6526 15.6658 87.3106 16.0268L87.3108 16.0278Z" fill="#FBA1AB"/>
<path d="M85.8473 25.4325C85.8191 25.6771 85.8393 25.9249 85.9068 26.1617C85.9743 26.3985 86.0878 26.6197 86.2408 26.8126C86.3938 27.0056 86.5833 27.1665 86.7985 27.2862C87.0137 27.4059 87.2504 27.482 87.495 27.5102L91.6598 27.9912C91.732 27.9995 91.8047 28.0038 91.8773 28.0038C92.3561 28.0037 92.8166 27.8204 93.1645 27.4916C93.5125 27.1628 93.7215 26.7134 93.7487 26.2354C93.7759 25.7575 93.6193 25.2872 93.3109 24.921C93.0025 24.5549 92.5658 24.3205 92.0902 24.266L87.9251 23.7848C87.6805 23.7566 87.4327 23.7768 87.1959 23.8443C86.9591 23.9118 86.7379 24.0253 86.5449 24.1783C86.352 24.3313 86.1911 24.5208 86.0714 24.736C85.9517 24.9512 85.8756 25.1879 85.8473 25.4325Z" fill="#FBA1AB"/>
<path d="M41.2519 65.625C41.5911 65.625 41.924 65.5326 42.2147 65.3576L44.0897 64.2326C44.3008 64.1059 44.4849 63.9389 44.6315 63.741C44.7781 63.5432 44.8843 63.3184 44.944 63.0795C45.0037 62.8407 45.0158 62.5923 44.9796 62.3488C44.9433 62.1052 44.8595 61.8712 44.7328 61.6601C44.6061 61.4489 44.4391 61.2648 44.2413 61.1182C44.0434 60.9716 43.8186 60.8655 43.5798 60.8057C43.3409 60.746 43.0926 60.7339 42.849 60.7702C42.6055 60.8064 42.3715 60.8903 42.1603 61.017L40.2853 62.142C39.9334 62.353 39.6605 62.6736 39.5083 63.0546C39.3561 63.4356 39.3331 63.856 39.4429 64.2514C39.5526 64.6467 39.7889 64.9952 40.1157 65.2433C40.4425 65.4914 40.8416 65.6255 41.2519 65.625Z" fill="#FBA1AB"/>
<path d="M47.4112 61.9296C47.7505 61.9296 48.0834 61.8372 48.3741 61.6622C49.6296 60.904 50.6687 59.8353 51.3914 58.5589C52.114 57.2826 52.4958 55.8417 52.5 54.375C52.5 53.8777 52.3024 53.4008 51.9508 53.0492C51.5992 52.6975 51.1223 52.5 50.625 52.5C50.1277 52.5 49.6508 52.6975 49.2992 53.0492C48.9475 53.4008 48.75 53.8777 48.75 54.375C48.7476 55.1945 48.5343 55.9995 48.1306 56.7126C47.7269 57.4257 47.1464 58.0229 46.4449 58.4466C46.0931 58.6576 45.8201 58.9781 45.6679 59.3591C45.5158 59.7401 45.4927 60.1605 45.6024 60.5559C45.7121 60.9512 45.9484 61.2997 46.2752 61.5478C46.6019 61.7959 47.001 61.9301 47.4112 61.9296Z" fill="#FBA1AB"/>
<path d="M80.6993 65.1924C80.9129 65.315 81.1485 65.3942 81.3927 65.4257C81.6369 65.4571 81.885 65.4402 82.1226 65.3758C82.3603 65.3114 82.5829 65.2008 82.7778 65.0503C82.9728 64.8999 83.1362 64.7125 83.2587 64.4989L84.3466 62.6021C84.5941 62.1708 84.66 61.6588 84.5299 61.1788C84.3999 60.6988 84.0845 60.2902 83.6531 60.0428C83.2218 59.7953 82.7098 59.7294 82.2298 59.8595C81.7498 59.9895 81.3412 60.3049 81.0937 60.7363L80.0058 62.6331C79.8833 62.8467 79.804 63.0823 79.7726 63.3265C79.7411 63.5707 79.7581 63.8187 79.8225 64.0564C79.8869 64.2941 79.9974 64.5167 80.1479 64.7116C80.2983 64.9066 80.4857 65.0699 80.6993 65.1924Z" fill="#FBA1AB"/>
<path d="M84.2733 58.9616C84.4869 59.0841 84.7225 59.1634 84.9667 59.1948C85.2109 59.2263 85.4589 59.2093 85.6966 59.1449C85.9342 59.0805 86.1569 58.9699 86.3518 58.8195C86.5468 58.6691 86.7101 58.4817 86.8326 58.2681C87.5588 56.9938 87.9446 55.5539 87.9528 54.0872C87.961 52.6206 87.5914 51.1765 86.8795 49.8941C86.7594 49.6792 86.5981 49.49 86.4049 49.3374C86.2116 49.1848 85.9902 49.0717 85.7533 49.0047C85.5164 48.9376 85.2685 48.9179 85.024 48.9466C84.7794 48.9754 84.5429 49.052 84.328 49.1721C84.1131 49.2922 83.9239 49.4535 83.7713 49.6468C83.6187 49.84 83.5056 50.0614 83.4386 50.2983C83.3715 50.5353 83.3518 50.7831 83.3805 51.0276C83.4093 51.2722 83.4859 51.5087 83.606 51.7236C84.0037 52.4401 84.2101 53.2469 84.2056 54.0664C84.201 54.8858 83.9854 55.6903 83.5798 56.4022C83.4572 56.6158 83.378 56.8515 83.3465 57.0957C83.3151 57.3399 83.332 57.5879 83.3964 57.8256C83.4608 58.0632 83.5714 58.2859 83.7219 58.4808C83.8723 58.6757 84.0597 58.8391 84.2733 58.9616Z" fill="#FBA1AB"/>
</svg>
