<svg width="187" height="120" viewBox="0 0 187 120" fill="none" xmlns="http://www.w3.org/2000/svg">
<path d="M125.087 67.0727L109.249 60.0337C108.13 59.5366 107.408 58.4242 107.408 57.2003V52.8511C112.728 48.6121 116.147 42.0844 116.147 34.7692V28.647C117.9 27.6786 119.06 25.8071 119.06 23.711V23.1168C119.06 10.3703 108.69 0 95.9436 0H90.1176C77.3711 0 67.0008 10.3703 67.0008 23.1168V28.5078C67.0008 30.3503 67.7937 32.0194 69.1757 33.0874C69.4101 33.2683 69.6568 33.4275 69.9138 33.5652V34.7688C69.9138 42.084 73.333 48.6117 78.6528 52.8504V57.1999C78.6528 58.4238 77.93 59.5362 76.8114 60.0333L60.9738 67.0723C55.787 69.3774 52.4354 74.5347 52.4354 80.2106V116.334C52.4354 117.839 53.6557 119.059 55.1609 119.059C56.6661 119.059 57.8864 117.839 57.8864 116.334V80.211C57.8864 79.8952 57.9089 79.5831 57.9416 79.2734L65.2394 86.5712C66.375 87.7072 67.0008 89.2171 67.0008 90.8237V116.334C67.0008 117.839 68.2211 119.06 69.7263 119.06C71.2315 119.06 72.4517 117.839 72.4517 116.334V90.8237C72.4517 87.7613 71.2594 84.8825 69.0939 82.717L60.3938 74.0165C61.1777 73.2032 62.1182 72.5291 63.188 72.0534L78.7585 65.1333L90.3055 76.6802V116.334C90.3055 117.839 91.5258 119.059 93.031 119.059C94.5362 119.059 95.7564 117.839 95.7564 116.334V76.6806L107.303 65.1336L122.874 72.0534C123.943 72.5291 124.884 73.2032 125.668 74.0169L116.968 82.717C114.802 84.8825 113.61 87.7613 113.61 90.8237V116.334C113.61 117.839 114.83 119.06 116.335 119.06C117.84 119.06 119.061 117.839 119.061 116.334V90.8237C119.061 89.2175 119.686 87.7072 120.822 86.5712L128.12 79.2738C128.152 79.5834 128.175 79.8948 128.175 80.2106V116.334C128.175 117.839 129.395 119.059 130.9 119.059C132.405 119.059 133.626 117.839 133.626 116.334V80.211C133.625 74.5351 130.273 69.3778 125.087 67.0727ZM93.0299 71.6973L82.898 61.5651C83.6684 60.2688 84.1034 58.7691 84.1034 57.2003V56.0912C86.8517 57.2461 89.8676 57.886 93.0302 57.886C96.1929 57.886 99.2084 57.2464 101.956 56.0916V57.2003C101.956 58.7694 102.391 60.2688 103.162 61.5654L93.0299 71.6973ZM93.0302 52.4347C83.2894 52.435 75.3644 44.5101 75.3644 34.7692V33.5434C77.0651 32.8693 78.7251 31.7966 80.3142 30.3303C81.42 29.3095 81.4894 27.5852 80.4683 26.479C79.4475 25.3732 77.7236 25.3038 76.617 26.3245C75.2539 27.583 73.8919 28.3959 72.5698 28.7411C72.5379 28.7495 72.5142 28.7531 72.4975 28.7546C72.4779 28.7164 72.4514 28.6365 72.4514 28.5082V23.1172C72.4514 13.3763 80.3764 5.45133 90.1172 5.45133H95.9432C105.684 5.45133 113.609 13.3763 113.609 23.1172V23.7113C113.609 23.7997 113.556 23.8763 113.486 23.8901C97.1657 27.1135 88.9798 21.0386 86.218 18.2767C85.1536 17.2123 83.4278 17.2123 82.3638 18.2767C81.2994 19.3411 81.2994 21.0669 82.3638 22.1309C90.8273 30.5945 103.177 30.7471 110.696 29.8437V34.7688C110.696 44.5097 102.771 52.4347 93.0302 52.4347Z" fill="#FBA1AB"/>
<path d="M49.1467 53.1878V47.3607C49.1467 40.2505 45.4516 33.9913 39.884 30.3893C40.2278 29.2864 40.4073 28.1311 40.4073 26.9694C40.4073 20.6477 35.2645 15.5049 28.9428 15.5049C22.6212 15.5049 17.4783 20.6481 17.4783 26.9694C17.4783 28.1457 17.6564 29.2897 18.0009 30.39C12.4337 33.9917 8.73899 40.2508 8.73899 47.3607V53.1867C8.73899 60.072 12.2033 66.1604 17.478 69.8096V75.8031C17.478 76.9853 16.8213 78.0478 15.7642 78.5766L6.3373 83.2898C2.42822 85.2449 0 89.174 0 93.5446V117.274C0 118.779 1.22029 120 2.72548 120C4.23068 120 5.45097 118.779 5.45097 117.274V94.7234L9.89096 99.1634C11.0266 100.299 11.6524 101.809 11.6524 103.416V117.274C11.6524 118.779 12.8726 120 14.3778 120C15.883 120 17.1033 118.779 17.1033 117.274V103.416C17.1033 100.354 15.9107 97.4747 13.7455 95.3092L7.56594 89.1297C7.53615 89.0999 7.50417 89.0741 7.47364 89.0461C7.86139 88.7038 8.29637 88.4058 8.77533 88.1659L18.2022 83.4527C18.6852 83.211 19.1347 82.9257 19.5537 82.6088L26.2173 89.2728V117.274C26.2173 118.78 27.4376 120 28.9428 120C30.448 120 31.6683 118.78 31.6683 117.274V89.2725L38.3323 82.6085C38.7517 82.9257 39.2008 83.211 39.6838 83.4523L42.2832 84.7522C42.6745 84.948 43.0903 85.0407 43.5002 85.0407C44.4999 85.0407 45.4625 84.4883 45.94 83.5337C46.6134 82.1873 46.0676 80.5502 44.7212 79.8772L42.1218 78.5773C41.0643 78.0486 40.4077 76.986 40.4077 75.8042V69.8107C45.6824 66.1615 49.1467 60.0727 49.1467 53.1878ZM28.9428 20.9559C32.2588 20.9559 34.9563 23.6537 34.9563 26.9694C34.9563 27.3346 34.9236 27.6925 34.8611 28.0432C32.9882 27.4683 31.0015 27.1569 28.9428 27.1569C26.8871 27.1569 24.9029 27.4672 23.0329 28.0407C22.97 27.69 22.9293 27.3338 22.9293 26.9694C22.9293 23.6534 25.6268 20.9559 28.9428 20.9559ZM28.9428 32.6082C37.0775 32.6082 43.6957 39.2264 43.6957 47.3611V48.3488C32.3486 51.8229 25.5861 43.1911 25.2972 42.8128C24.823 42.1808 24.098 41.7854 23.3102 41.7295C22.5223 41.6743 21.7483 41.9624 21.1897 42.521C18.5882 45.1225 16.04 46.3773 14.1998 46.9831C14.4015 39.0225 20.935 32.6082 28.9428 32.6082ZM28.9428 84.2888L22.6448 77.9908C22.8287 77.288 22.9293 76.5554 22.9293 75.8035V72.4766C24.8295 73.0704 26.8497 73.3905 28.9428 73.3905C31.036 73.3905 33.0561 73.0704 34.9563 72.4766V75.8035C34.9563 76.5554 35.057 77.2883 35.2409 77.9908L28.9428 84.2888ZM28.9428 67.9396C20.8082 67.9396 14.19 61.3214 14.19 53.1867V52.622C16.3634 52.1227 19.5861 50.9623 22.9478 48.2587C24.1373 49.3808 25.8372 50.7574 28.002 51.9381C30.5625 53.3346 34.0987 54.6265 38.4181 54.6265C40.0595 54.6265 41.8158 54.4357 43.6724 53.9974C43.2498 61.7567 36.8053 67.9396 28.9428 67.9396Z" fill="#FBA1AB"/>
<path d="M179.722 76.2892L164.469 68.6626C163.412 68.1339 162.756 67.0713 162.756 65.8895V62.027C166.326 58.857 168.582 54.2375 168.582 49.0991V45.9967C168.645 45.9967 168.706 45.9986 168.769 45.9986C170.274 45.9986 171.495 44.7783 171.495 43.2731V37.4471C171.495 27.913 163.738 20.1562 154.204 20.1562H148.378C138.844 20.1562 131.087 27.913 131.087 37.4471V43.2731C131.087 44.7783 132.307 45.9986 133.813 45.9986C133.835 45.9986 133.9 45.9978 134 45.9938V49.0991C134 54.2379 136.256 58.8574 139.826 62.0273V65.8899C139.826 67.072 139.17 68.1346 138.112 68.663C136.766 69.336 136.22 70.9731 136.893 72.3195C137.371 73.2745 138.334 73.8269 139.333 73.8269C139.743 73.8269 140.159 73.7342 140.55 73.5387C141.033 73.297 141.482 73.0117 141.901 72.6949L148.565 79.3589V116.099C148.565 117.605 149.786 118.825 151.291 118.825C152.796 118.825 154.016 117.605 154.016 116.099V79.3581L160.68 72.6941C161.099 73.0114 161.548 73.2966 162.031 73.5379L176.791 80.9178L172.314 85.3945C170.149 87.56 168.956 90.4389 168.956 93.5012V116.099C168.956 117.604 170.177 118.824 171.682 118.824C173.187 118.824 174.407 117.604 174.407 116.099V93.5012C174.407 91.895 175.033 90.3847 176.169 89.2487L180.409 85.0082C180.538 85.5014 180.608 86.0156 180.608 86.5432V116.099C180.608 117.604 181.829 118.824 183.334 118.824C184.839 118.824 186.059 117.604 186.059 116.099V86.5432C186.06 82.173 183.631 78.244 179.722 76.2892ZM136.538 39.9869V37.4467H136.538C136.538 30.9183 141.849 25.6069 148.378 25.6069H154.204C160.732 25.6069 166.044 30.9183 166.044 37.4467V40.4742C154.196 39.835 147.046 35.2245 146.977 35.1791C146.515 34.8717 145.989 34.7212 145.466 34.7212C144.762 34.7212 144.064 34.9931 143.537 35.5196C140.93 38.1274 138.375 39.3825 136.538 39.9869ZM151.291 74.3749L144.993 68.0768C145.177 67.374 145.277 66.6414 145.277 65.8895V65.3092C147.151 66.0065 149.177 66.3895 151.291 66.3895C153.405 66.3895 155.431 66.0065 157.304 65.3092V65.8895C157.304 66.6414 157.405 67.374 157.589 68.0768L151.291 74.3749ZM151.291 60.9389C144.762 60.9389 139.451 55.6279 139.451 49.0991V44.7052C141.36 43.9425 143.584 42.7298 145.847 40.8016C148.709 42.2908 154.697 44.8648 163.131 45.7151V49.0991C163.131 55.6275 157.819 60.9389 151.291 60.9389Z" fill="#FBA1AB"/>
</svg>
