<svg width="120" height="120" viewBox="0 0 120 120" fill="none" xmlns="http://www.w3.org/2000/svg">
<path d="M118 116H114V22C113.993 16.4799 109.52 12.0066 104 12H81.97C81.8915 5.417 76.5828 0.0949294 70 0C66.1412 0.0042383 62.4813 1.71269 60 4.668C57.5187 1.71269 53.8588 0.0042383 50 0C43.4172 0.0949294 38.1085 5.417 38.03 12H16C10.4799 12.0066 6.00661 16.4799 6 22V116H2C0.89543 116 0 116.895 0 118C0 119.105 0.89543 120 2 120H118C119.105 120 120 119.105 120 118C120 116.895 119.105 116 118 116ZM110 22V79.93C103.464 79.6594 97.1373 77.5506 91.746 73.846C74.974 62.42 69.362 38.766 68.2 32.87C75.454 26.6 80.216 21.582 81.582 16H104C107.314 16 110 18.6863 110 22ZM68 82H50V74H70V82H68ZM54 86H66V104H54V86ZM70 104.368V86C72.2091 86 74 84.2091 74 82V74C74 71.7909 72.2091 70 70 70H50C47.7909 70 46 71.7909 46 74V82C46 84.2091 47.7909 86 50 86V104.368C47.6113 105.213 46.0105 107.466 46 110V116H41.968C41.656 95.74 36.704 83.242 32.108 76C47.28 64.576 53.352 44.1 55.262 35.8L56.292 36.664C58.4488 38.4295 61.5512 38.4295 63.708 36.664L64.738 35.8C66.648 44.1 72.722 64.58 87.892 76C83.292 83.246 78.344 95.742 78.032 116H74V110C73.9895 107.466 72.3887 105.213 70 104.368ZM50 4C53.4378 4.09446 56.5664 6.00838 58.216 9.026C58.5583 9.69596 59.2477 10.1171 60 10.116C60.7563 10.1167 61.4502 9.69655 61.8 9.026C63.4467 6.01322 66.568 4.10008 70 4C72.2233 4.03906 74.3344 4.98402 75.8446 6.6162C77.3548 8.24838 78.1334 10.4263 78 12.646C78 19.068 71.632 24.846 61.144 33.602C60.472 34.128 59.528 34.128 58.856 33.602C48.368 24.848 42 19.068 42 12.646C41.8666 10.4263 42.6452 8.24838 44.1554 6.6162C45.6656 4.98402 47.7767 4.03906 50 4ZM16 16H38.418C39.784 21.582 44.546 26.6 51.804 32.87C50.638 38.766 45.024 62.42 28.248 73.852C22.8576 77.553 16.5331 79.6596 10 79.93V22C10 18.6863 12.6863 16 16 16ZM10 116V83.93C16.6517 83.6797 23.1266 81.7194 28.8 78.238C33.078 85.02 37.692 96.746 38 116H10ZM50 116V110C50 108.895 50.8954 108 52 108H68C69.1046 108 70 108.895 70 110V116H50ZM82.016 116C82.316 96.748 86.93 85.02 91.216 78.238C96.885 81.7161 103.354 83.6764 110 83.93V116H82.016Z" fill="#FBA1AB"/>
<path d="M16.586 73.414C17.367 74.1948 18.633 74.1948 19.414 73.414C39.766 53.062 40 30.932 40 30C40 28.8954 39.1045 28 38 28C36.8954 28 36 28.8954 36 30C36 30.2 35.71 51.462 16.586 70.588C15.8065 71.3688 15.8065 72.6332 16.586 73.414Z" fill="#FBA1AB"/>
<path d="M16 32C17.1046 32 18 31.1046 18 30V28C18 26.8954 17.1046 26 16 26C14.8954 26 14 26.8954 14 28V30C14 31.1046 14.8954 32 16 32Z" fill="#FBA1AB"/>
<path d="M25.11 88.336C24.2062 87.7374 22.9894 87.9742 22.376 88.868C21.7605 89.7699 21.9731 90.9976 22.856 91.64C22.908 91.678 28 95.558 28 110C28 111.105 28.8954 112 30 112C31.1046 112 32 111.105 32 110C32 93.4 25.814 88.8 25.11 88.336Z" fill="#FBA1AB"/>
<path d="M80 30C80 30.932 80.234 53.062 100.586 73.414C101.371 74.172 102.618 74.1611 103.39 73.3897C104.161 72.6182 104.172 71.3708 103.414 70.586C84.29 51.46 84 30.2 84 30C84 28.8954 83.1046 28 82 28C80.8954 28 80 28.8954 80 30Z" fill="#FBA1AB"/>
<path d="M104 32C105.105 32 106 31.1046 106 30V28C106 26.8954 105.105 26 104 26C102.895 26 102 26.8954 102 28V30C102 31.1046 102.895 32 104 32Z" fill="#FBA1AB"/>
<path d="M94.89 88.3358C94.186 88.7998 88 93.3998 88 110C88 111.104 88.8954 112 90 112C91.1046 112 92 111.104 92 110C92 95.7058 96.988 91.7578 97.14 91.6438C98.0535 91.0225 98.2903 89.7783 97.669 88.8648C97.0477 87.9513 95.8035 87.7145 94.89 88.3358Z" fill="#FBA1AB"/>
</svg>
