<svg width="120" height="120" viewBox="0 0 120 120" fill="none" xmlns="http://www.w3.org/2000/svg">
<g clip-path="url(#clip0)">
<path d="M24.4455 82.0679C18.7331 79.9321 16.2352 74.3629 15.2545 71.2335C14.943 70.2393 14.0332 69.5715 12.9907 69.5715C11.948 69.5715 11.0381 70.2393 10.7266 71.2335C9.74601 74.3631 7.24805 79.9321 1.53586 82.0679C0.603047 82.4167 0 83.2881 0 84.2879C0 85.288 0.603047 86.1594 1.53562 86.5082C2.1007 86.7196 2.65406 86.9722 3.18023 87.2593C4.03219 87.7241 5.09977 87.41 5.56453 86.5583C5.99227 85.7743 5.76047 84.8078 5.05711 84.2964C9.16219 81.9878 11.592 78.2701 12.9907 75.1567C14.3878 78.2664 16.8131 81.9789 20.9093 84.2882C16.812 86.5982 14.3866 90.3114 12.9895 93.4218C12.5395 92.4203 11.9749 91.3377 11.2748 90.26C10.7463 89.4461 9.65766 89.2154 8.84391 89.7437C8.02992 90.2725 7.79883 91.3609 8.32758 92.1749C9.57258 94.0911 10.3193 96.0428 10.7264 97.3429C11.0379 98.3371 11.9477 99.0048 12.9905 99.0048C14.0332 99.0048 14.943 98.3368 15.2543 97.3429C16.2349 94.2133 18.7329 88.6443 24.4451 86.5084C25.3781 86.1597 25.9809 85.288 25.9809 84.2879C25.9812 83.2881 25.3784 82.4167 24.4455 82.0679Z" fill="#FBA1AB"/>
<path d="M100.515 20.9229C99.9574 20.1284 98.8615 19.9358 98.0667 20.4929C97.272 21.05 97.0795 22.1459 97.6366 22.9407C98.4998 24.1718 99.2168 25.4766 99.7681 26.8189C101.796 31.7579 102.312 37.519 101.259 43.4792C100.274 49.0615 97.9059 54.6347 94.5926 59.1725C92.1068 62.5768 88.968 65.2236 85.5152 66.8267C81.1746 68.8423 76.1967 68.8397 71.8577 66.8197C61.1381 61.8289 55.9381 48.6031 55.643 38.427C55.5213 34.2331 56.1954 30.3202 57.6464 26.7969C60.1495 20.719 65.8221 15.8551 72.4505 14.1031C76.6069 13.0043 80.8216 13.0065 84.9773 14.1097C87.5206 14.7847 90.0366 15.9753 92.2538 17.5524C93.0448 18.1151 94.1416 17.9297 94.7044 17.1392C95.2669 16.3482 95.082 15.2511 94.2912 14.6886C91.7341 12.8696 88.8253 11.4947 85.8792 10.7126C81.1266 9.45123 76.3062 9.44865 71.5524 10.7051C70.0854 11.0928 68.659 11.6143 67.29 12.252C63.3872 6.91693 57.5391 2.84302 50.9806 1.10208C45.5716 -0.333462 40.0861 -0.336509 34.6756 1.09341C25.9533 3.39896 18.4774 9.82669 15.1655 17.8686C13.2975 22.404 12.4291 27.4137 12.5841 32.7582C12.7894 39.8405 14.7523 47.194 18.1111 53.464C21.8827 60.5049 27.1582 65.7547 33.3668 68.6452C34.3784 69.1161 35.4152 69.5056 36.4688 69.8178C36.0722 70.3008 35.696 70.8146 35.3611 71.3609C34.3048 73.0843 34.1637 75.2192 34.9835 77.0719C35.7996 78.9162 37.4656 80.2411 39.4395 80.6161C39.8114 80.6869 40.2061 80.7355 40.6111 80.7729C40.3381 84.1531 39.0851 85.9932 37.6599 88.0843C35.9656 90.5701 34.0448 93.3872 34.042 98.7858C34.0392 104.184 35.9569 107.004 37.6486 109.491C39.2585 111.858 40.6491 113.902 40.6467 118.218C40.6463 119.189 41.4326 119.976 42.4031 119.976H42.4041C43.3741 119.976 44.1609 119.19 44.1614 118.22C44.1642 112.821 42.2466 110.002 40.5548 107.515C38.9449 105.148 37.5546 103.103 37.557 98.7879C37.5593 94.4724 38.9517 92.4296 40.5642 90.0643C42.098 87.8145 43.8166 85.2926 44.1312 80.8313C44.8488 80.8076 45.5271 80.7385 46.1545 80.6199C48.1291 80.247 49.7965 78.9237 50.6147 77.0804C51.4364 75.2283 51.2974 73.0932 50.243 71.3691C49.9078 70.8209 49.5321 70.3036 49.1348 69.8192C50.182 69.5091 51.2131 69.1224 52.2192 68.6553C55.3545 67.1996 58.2809 65.1005 60.8557 62.4858C63.5831 65.7851 66.8009 68.3419 70.3746 70.0058C71.1645 70.3735 71.9719 70.685 72.7913 70.9428C72.5166 71.2951 72.2531 71.6623 72.0155 72.05C71.0559 73.6154 70.9277 75.5544 71.6724 77.2372C72.4137 78.9125 73.927 80.116 75.7205 80.4565C75.9827 80.5065 76.2574 80.544 76.538 80.5754C76.2684 83.3316 75.2177 84.879 74.0248 86.6288C72.5295 88.8223 70.8347 91.3083 70.8323 96.0833C70.8298 100.858 72.522 103.346 74.0149 105.541C75.397 107.573 76.5909 109.328 76.5888 113.02C76.5884 113.991 77.3747 114.778 78.3452 114.778H78.3462C79.3163 114.778 80.1031 113.992 80.1035 113.022C80.1061 108.247 78.4139 105.759 76.9209 103.564C75.5388 101.532 74.3449 99.777 74.347 96.0851C74.3491 92.3933 75.5445 90.6394 76.9289 88.6086C78.2606 86.6551 79.7494 84.4681 80.0613 80.6401C80.6241 80.6131 81.1584 80.5538 81.657 80.4596C83.4509 80.1209 84.9654 78.919 85.7086 77.2444C86.4551 75.5626 86.3288 73.6236 85.3711 72.0572C85.133 71.6677 84.8698 71.2976 84.5944 70.9437C85.4086 70.6878 86.2111 70.3786 86.996 70.0142C90.9872 68.161 94.5959 65.1286 97.4318 61.2448C101.055 56.2824 103.644 50.1901 104.721 44.0902C105.89 37.4733 105.301 31.0393 103.02 25.4836C102.37 23.9014 101.527 22.3669 100.515 20.9229ZM47.4014 75.6549C47.0466 76.4546 46.3542 77.0056 45.5018 77.1666C44.7452 77.3093 40.8516 77.3075 40.0952 77.1638C39.2431 77.0019 38.5514 76.4501 38.1973 75.6502C37.8396 74.8416 37.8977 73.9477 38.3573 73.1979C38.9564 72.2204 39.7453 71.3499 40.5307 70.6217C41.2861 70.6993 42.0445 70.7394 42.8027 70.7394C43.5598 70.7394 44.3166 70.6993 45.0706 70.6222C45.8559 71.3515 46.6446 72.2236 47.2434 73.2026C47.7026 73.9529 47.7602 74.8468 47.4014 75.6549ZM50.7382 65.4678C45.6886 67.8125 39.8974 67.8094 34.8502 65.4594C22.4517 59.6869 16.4381 44.409 16.0971 32.6567C15.9565 27.8084 16.7365 23.2833 18.4151 19.2073C21.3171 12.1608 27.8918 6.52201 35.5734 4.49185C37.9753 3.85693 40.3934 3.53958 42.8119 3.53958C45.2398 3.53958 47.6679 3.85951 50.0784 4.49958C55.7201 5.99701 60.7591 9.44326 64.1852 13.9608C59.8228 16.7572 56.3149 20.7997 54.3961 25.4588C52.7559 29.4413 51.9933 33.8389 52.1292 38.5292C52.3092 44.7366 54.0295 51.1812 56.9731 56.6764C57.5234 57.7039 58.1135 58.6833 58.7349 59.6218C56.3627 62.1233 53.6482 64.1166 50.7382 65.4678ZM82.4955 75.8192C82.2166 76.4473 81.6731 76.8802 81.004 77.0065C80.3623 77.1277 77.0182 77.1261 76.3758 77.0042C75.7071 76.8772 75.1641 76.4438 74.8859 75.8154C74.6044 75.1796 74.6501 74.4767 75.0115 73.8875C75.5032 73.085 76.1459 72.3661 76.7923 71.7584C77.4246 71.8198 78.0591 71.8524 78.6935 71.8524C79.3259 71.8524 79.958 71.8201 80.5882 71.7591C81.237 72.3694 81.8817 73.0901 82.3716 73.8915C82.7325 74.4807 82.7775 75.1836 82.4955 75.8192Z" fill="#FBA1AB"/>
<path d="M118.57 9.27421C114.584 7.78358 112.83 3.86226 112.139 1.65749C111.849 0.732646 111.003 0.111084 110.033 0.111084C109.063 0.111084 108.217 0.732646 107.927 1.65749V1.65726C107.236 3.86226 105.482 7.78358 101.496 9.27398C100.627 9.59858 100.066 10.4095 100.066 11.3398C100.066 12.27 100.627 13.0809 101.495 13.4055C105.482 14.8962 107.236 18.8175 107.927 21.0223C108.216 21.9471 109.063 22.5684 110.033 22.5684C111.003 22.5684 111.849 21.9471 112.139 21.0225C112.83 18.8175 114.584 14.8962 118.57 13.4058C119.438 13.0812 120 12.2702 120 11.34C120 10.4095 119.439 9.59882 118.57 9.27421ZM110.033 16.924C109.029 14.9775 107.488 12.858 105.158 11.3398C107.489 9.82148 109.029 7.70226 110.033 5.75554C111.037 7.70202 112.578 9.82124 114.908 11.3395C112.577 12.858 111.037 14.977 110.033 16.924Z" fill="#FBA1AB"/>
</g>
<defs>
<clipPath id="clip0">
<rect width="120" height="120" fill="white"/>
</clipPath>
</defs>
</svg>
