<svg width="200" height="44" viewBox="0 0 200 44" fill="none" xmlns="http://www.w3.org/2000/svg">
<g clip-path="url(#clip0)">
<path d="M99.4378 34.0187L97.1441 38.9636C98.0886 40.2456 99.3479 43.7253 99.3479 43.7253L99.4378 44.0458L99.5278 43.7253C99.5278 43.7253 100.787 40.2456 101.732 38.9636L99.4378 34.0187Z" fill="#FDB7B5"/>
<path d="M110.591 10.3018C110.816 10.2102 110.996 10.0271 111.041 9.70656C111.131 9.38606 111.086 8.97399 110.906 8.51614C110.681 8.05828 110.277 7.55464 109.692 7.18835C109.107 6.82207 108.298 6.63892 107.578 6.68471C107.173 6.68471 106.724 6.82207 106.229 7.00521C105.734 7.23414 105.194 7.55464 104.745 7.96671C104.25 8.37878 103.845 8.88242 103.53 9.43185C103.216 9.98128 102.946 10.5765 102.766 11.1259C102.586 11.7211 102.541 12.2706 102.496 12.7742C102.496 13.0489 102.496 13.2778 102.496 13.5068C102.496 13.7357 102.541 13.9188 102.541 14.1478C102.586 14.3309 102.586 14.5141 102.631 14.6514C102.676 14.7888 102.721 14.9261 102.721 15.0177C102.811 15.2466 102.856 15.3382 102.901 15.3382C102.946 15.3382 103.036 15.2466 103.081 15.0177C103.171 14.7888 103.261 14.5141 103.396 14.2393C103.44 14.0562 103.53 13.9188 103.62 13.7357C103.71 13.5526 103.8 13.3694 103.89 13.1863C104.07 12.82 104.34 12.4079 104.61 12.0874C104.88 11.7211 105.194 11.4006 105.509 11.1717C105.824 10.897 106.139 10.7138 106.454 10.5765C106.769 10.4391 107.038 10.3476 107.263 10.3476C107.308 10.3476 107.353 10.3476 107.443 10.3476C107.488 10.3476 107.533 10.3476 107.578 10.3476C107.623 10.3476 107.668 10.3476 107.713 10.3476C107.758 10.3476 107.803 10.3476 107.803 10.3476C108.073 10.3476 108.253 10.3018 108.478 10.3018C108.702 10.3018 108.882 10.3018 109.152 10.3018C109.602 10.3018 110.142 10.4849 110.591 10.3018Z" fill="#FDB7B5"/>
<path d="M102.991 6.13568C101.642 9.29489 101.282 13.6903 101.237 14.2855C101.237 14.3313 101.192 14.3313 101.192 14.3313L99.8426 15.8422C99.6627 16.0254 99.3479 16.0254 99.168 15.8422L97.8187 14.3313C97.7738 14.3313 97.7738 14.2855 97.7738 14.2855C97.7288 13.6903 97.414 9.61539 96.0198 6.13568C96.0198 6.08989 98.7632 1.09926 99.3928 0.046187C99.4378 -0.0453843 99.5727 -0.0453843 99.6177 0.046187C100.247 1.14504 102.991 6.13568 102.991 6.13568Z" fill="#FDB7B5"/>
<path d="M88.2842 10.3018C88.0593 10.2102 87.8794 10.0271 87.8345 9.70656C87.7445 9.38606 87.7895 8.97399 87.9694 8.51614C88.1943 8.05828 88.599 7.55464 89.1837 7.18835C89.7684 6.82207 90.5779 6.63892 91.2975 6.68471C91.7022 6.68471 92.152 6.82207 92.6467 7.00521C93.1414 7.23414 93.6811 7.55464 94.1309 7.96671C94.6256 8.37878 95.0303 8.88242 95.3452 9.43185C95.66 9.98128 95.9298 10.5765 96.1097 11.1259C96.2896 11.7211 96.3346 12.2706 96.3796 12.7742C96.3796 13.0489 96.3796 13.2778 96.3796 13.5068C96.3796 13.7357 96.3346 13.9188 96.3346 14.1478C96.2896 14.3309 96.2896 14.5141 96.2446 14.6514C96.1997 14.7888 96.1547 14.9261 96.1547 15.0177C96.0647 15.2466 96.0198 15.3382 95.9748 15.3382C95.9298 15.3382 95.8399 15.2466 95.7949 15.0177C95.7049 14.7888 95.615 14.5141 95.4801 14.2393C95.4351 14.0562 95.3452 13.9188 95.2552 13.7357C95.1653 13.5526 95.0753 13.3694 94.9854 13.1863C94.8055 12.82 94.5356 12.4079 94.2658 12.0874C93.9959 11.7211 93.6811 11.4006 93.3663 11.1717C93.0515 10.897 92.7367 10.7138 92.4218 10.5765C92.107 10.4391 91.8372 10.3476 91.6123 10.3476C91.5673 10.3476 91.5224 10.3476 91.4324 10.3476C91.3874 10.3476 91.3425 10.3476 91.2975 10.3476C91.2525 10.3476 91.2075 10.3476 91.1626 10.3476C91.1176 10.3476 91.0726 10.3476 91.0726 10.3476C90.8028 10.3476 90.6229 10.3018 90.398 10.3018C90.1731 10.3018 89.9932 10.3018 89.7234 10.3018C89.2736 10.3018 88.734 10.4849 88.2842 10.3018Z" fill="#FDB7B5"/>
<path d="M99.5278 16.437L97.8187 18.0853C98.1336 18.4974 99.5278 20.924 99.5278 20.924C99.5278 20.924 100.832 18.5432 101.147 18.0853L99.5278 16.437Z" fill="#FBA1AB"/>
<path d="M92.3769 14.514C92.5118 14.5598 92.6017 14.5598 92.7367 14.6056C93.1864 14.743 93.6362 14.8803 93.9959 14.9719C94.3557 15.0635 94.7155 15.155 94.9404 15.2466C95.2552 15.3382 95.5251 15.384 95.66 15.4297C95.5251 15.384 95.3002 15.2924 94.9854 15.155C94.8055 15.1092 94.6256 15.0177 94.4457 14.9261C94.4007 14.9261 94.4007 14.8803 94.3557 14.8345C94.3108 14.7887 94.2658 14.7887 94.2208 14.743C94.2658 14.743 94.3108 14.743 94.3557 14.7887C94.8505 14.9261 95.3002 15.1092 95.66 15.3382V15.2924C95.705 15.2008 95.705 15.155 95.7499 15.1092C95.3452 14.8345 94.8954 14.6514 94.4007 14.4682C94.1309 14.3767 93.8161 14.3309 93.5462 14.2851C93.1414 14.0104 92.5568 13.6899 91.8372 13.3236C91.7472 13.2778 91.6123 13.232 91.5224 13.1862C91.3874 13.1405 91.2975 13.0947 91.1626 13.0489C90.9377 12.9573 90.6679 12.8657 90.398 12.7742C89.8583 12.591 89.2737 12.4079 88.689 12.2705C88.0594 12.1332 87.4297 11.9958 86.7101 11.95C86.3503 11.9042 85.9906 11.9042 85.6308 11.9042C85.4509 11.9042 85.271 11.9042 85.0911 11.9042C84.9112 11.9042 84.7313 11.95 84.5514 11.95C82.5725 12.1332 80.7286 12.6368 79.2444 13.1405C77.7603 13.6899 76.546 14.1935 75.7364 14.6056C75.3317 14.743 74.792 14.9261 74.2073 15.155C73.6227 15.384 72.9481 15.6587 72.2285 15.9792C71.5089 16.2997 70.7443 16.7117 69.9348 17.1238C69.1253 17.5817 68.2707 18.0395 67.4162 18.5432C66.7866 18.9094 66.2019 19.2757 65.6173 19.642C65.0326 20.0083 64.4929 20.4204 63.9982 20.8324C63.5035 21.2445 63.0537 21.6108 62.604 21.9771C62.1543 22.3434 61.7495 22.6639 61.3447 22.9386C60.5802 23.488 59.9056 23.8543 59.4108 24.0374C59.2759 24.0832 59.186 24.129 59.096 24.1748C59.0061 24.2206 58.9161 24.2206 58.8711 24.2664C58.7362 24.3122 58.6463 24.3122 58.6463 24.3122C58.6463 24.3122 58.7362 24.3122 58.8711 24.2664C58.9611 24.2664 59.0061 24.2206 59.141 24.2206C59.2309 24.1748 59.3659 24.1748 59.5008 24.129C59.9955 23.9917 60.7601 23.6712 61.5696 23.2133C61.9744 22.9844 62.4241 22.6639 62.9188 22.3434C63.3686 22.0229 63.8633 21.6566 64.403 21.2903C64.8977 20.924 65.4374 20.5577 66.022 20.1914C66.6067 19.8252 67.2363 19.4589 67.866 19.0926C68.7205 18.5889 69.53 18.1311 70.3396 17.6274C71.1491 17.2154 71.8687 16.7575 72.5883 16.3912C73.3078 16.025 73.9375 15.7045 74.4772 15.4297C75.0618 15.1092 75.5565 14.8803 75.9613 14.6972C76.8158 14.4225 78.0301 14.0104 79.5592 13.5983C81.0884 13.1862 82.8424 12.7742 84.7763 12.6368C84.9561 12.6368 85.136 12.591 85.3159 12.591C85.4958 12.591 85.6757 12.591 85.8556 12.591C86.2154 12.591 86.5302 12.591 86.8451 12.6368C87.5197 12.6826 88.1493 12.7742 88.734 12.8657C89.3186 12.9573 89.9033 13.1405 90.443 13.2778C90.7128 13.3694 90.9827 13.4152 91.2076 13.5067C91.3425 13.5525 91.4324 13.5983 91.5673 13.6441C91.7023 13.6899 91.7922 13.7357 91.9271 13.7815C92.4219 13.9646 92.8716 14.1477 93.2764 14.3309C93.0965 14.3309 92.9166 14.2851 92.7367 14.2851C91.8822 13.9646 90.8478 13.6441 89.6784 13.5067C89.4985 13.461 89.3636 13.461 89.1837 13.461C89.0038 13.461 88.8239 13.4152 88.689 13.4152C88.3292 13.4152 88.0144 13.3694 87.6546 13.4152C86.935 13.4152 86.2154 13.5067 85.4509 13.5983C83.427 13.9188 81.5831 14.5598 80.054 15.1092C79.2894 15.384 78.6148 15.7045 77.9852 15.9334C77.6703 16.0707 77.4005 16.1623 77.1306 16.2997C76.8608 16.437 76.6359 16.5286 76.4111 16.6202C76.1862 16.7117 75.9613 16.7575 75.6915 16.8491C75.4216 16.9407 75.1518 17.078 74.837 17.1696C74.2073 17.3985 73.5327 17.719 72.8131 18.0395C71.329 18.7263 69.62 19.642 67.866 20.6493C66.5617 21.3819 65.3024 22.0687 64.1781 22.6639C63.0088 23.2133 61.9294 23.6254 61.0299 23.9459C60.5802 24.0832 60.1304 24.2206 59.7706 24.3122C59.4108 24.4037 59.051 24.4953 58.8262 24.6327C58.7362 24.6784 58.6913 24.7242 58.6013 24.77C58.5114 24.77 58.3764 24.77 58.2865 24.8158C58.0616 24.8158 57.7918 24.8616 57.5669 24.8616H57.2071H56.8473C56.6224 24.8616 56.3526 24.8616 56.1277 24.8616C55.1833 24.8616 54.2388 24.8158 53.3393 24.7242C53.2044 24.7242 53.1145 24.6784 52.9795 24.6784C52.8446 24.6784 52.7547 24.6327 52.6197 24.6327C52.3949 24.5869 52.17 24.5411 51.9451 24.4953C51.7203 24.4495 51.4954 24.4037 51.2705 24.3122C51.1806 24.2664 51.0456 24.2664 50.9557 24.2206C50.8658 24.1748 50.7308 24.1748 50.6409 24.129C50.5509 24.0832 50.416 24.0832 50.3261 24.0374C50.2361 23.9917 50.1012 23.9459 50.0112 23.9001C49.7864 23.8085 49.6065 23.7627 49.3816 23.6712C49.2017 23.5796 48.9768 23.488 48.7969 23.3964C48.617 23.3049 48.3922 23.2133 48.2123 23.0759C48.1223 23.0302 48.0324 22.9844 47.9424 22.9386C47.8525 22.8928 47.7625 22.847 47.6726 22.7554C47.5826 22.7097 47.4927 22.6639 47.4027 22.5723C47.3128 22.5265 47.2228 22.4349 47.1329 22.3892C46.953 22.2518 46.7731 22.1602 46.5932 22.0229C46.5033 21.9771 46.4133 21.8855 46.3234 21.8397C46.2334 21.7939 46.1435 21.7024 46.0985 21.6566C46.0085 21.6108 45.9186 21.5192 45.8736 21.4734C45.7837 21.4277 45.7387 21.3361 45.6488 21.2903C45.5138 21.1529 45.3789 21.0156 45.199 20.8782C44.9292 20.6035 44.6593 20.283 44.4345 20.0083C44.2096 19.6878 43.9847 19.3673 43.8048 19.0468C43.6249 18.7263 43.445 18.4058 43.3101 18.0395C43.1752 17.719 43.0403 17.3527 42.9503 17.0322C42.9053 16.8491 42.8604 16.7117 42.8154 16.5286C42.7704 16.3455 42.7254 16.2081 42.7254 16.025C42.6355 15.384 42.6355 14.743 42.6805 14.1477C42.7704 13.5525 42.9053 13.0031 43.0852 12.4995C43.2651 11.9958 43.535 11.5837 43.8048 11.2175C44.0747 10.8512 44.3895 10.4849 44.7043 10.1644C44.7942 10.0728 44.8842 10.027 44.9741 9.93546C45.0191 9.88968 45.0641 9.84389 45.1091 9.84389L45.244 9.75232C45.3339 9.66075 45.4239 9.61496 45.5138 9.56918L45.6488 9.47761L45.7837 9.38604C46.1435 9.15711 46.5482 8.97397 46.953 8.79082C47.3578 8.65347 47.7625 8.51611 48.2123 8.42454C49.0668 8.24139 49.9213 8.19561 50.7758 8.24139C51.1806 8.28718 51.6303 8.28718 52.0351 8.37875C52.2599 8.42454 52.4398 8.47032 52.6197 8.51611C52.7097 8.51611 52.7996 8.56189 52.9346 8.60768C53.0245 8.65347 53.1145 8.65347 53.2044 8.69925C54.7335 9.15711 56.0828 10.027 56.9373 11.1717C56.9822 11.2632 57.0272 11.309 57.0722 11.4006L57.1621 11.4922L57.2071 11.5837C57.2521 11.6753 57.2971 11.7211 57.342 11.8127C57.387 11.9042 57.432 11.95 57.477 12.0416L57.5219 12.1332C57.5219 12.179 57.5669 12.2247 57.5669 12.2705C57.6119 12.3621 57.6119 12.4079 57.6568 12.4995C57.7018 12.591 57.7018 12.6368 57.7468 12.7284L57.7918 12.8657C57.7918 12.9115 57.7918 12.9573 57.8367 13.0031C57.8367 13.0947 57.8817 13.1405 57.8817 13.232C57.8817 13.3236 57.9267 13.4152 57.9267 13.461V13.5983V13.7357C57.9267 13.8272 57.9267 13.873 57.9267 13.9646C57.9267 14.0562 57.9267 14.102 57.9267 14.1935C57.9267 14.2393 57.9267 14.2851 57.9267 14.3309V14.4682C57.9267 14.5598 57.9267 14.6056 57.9267 14.6972C57.9267 14.7887 57.8817 14.8345 57.8817 14.9261C57.8817 14.9719 57.8817 15.0177 57.8817 15.0177L57.8367 15.1092C57.8367 15.2008 57.7918 15.2466 57.7918 15.3382C57.7918 15.4297 57.7468 15.4755 57.7468 15.5671L57.7018 15.6587C57.7018 15.7045 57.6568 15.7045 57.6568 15.7502C57.6119 15.796 57.6119 15.8876 57.5669 15.9334C57.5219 15.9792 57.5219 16.0707 57.477 16.1165C57.432 16.2539 57.342 16.3455 57.2971 16.4828C57.0272 16.9407 56.6674 17.3527 56.3076 17.6274C55.9478 17.9022 55.5431 18.1311 55.1383 18.2684C54.7335 18.4058 54.3737 18.4516 54.0589 18.4974C54.0139 18.4974 53.969 18.4974 53.924 18.4974C53.879 18.4974 53.834 18.4974 53.7891 18.4974C53.6991 18.4974 53.6092 18.4974 53.5642 18.4974C53.5192 18.4974 53.4743 18.4974 53.4293 18.4974C54.0589 18.1769 54.5087 17.4443 54.4187 16.666C54.3288 15.6587 53.4293 14.9261 52.4848 15.0177C51.4954 15.1092 50.8208 16.025 50.9107 17.0322C51.0007 17.948 51.7203 18.6347 52.5298 18.6805C52.5748 18.6805 52.6197 18.7263 52.6647 18.7263C52.7996 18.7721 52.8896 18.8179 53.0245 18.8637C53.1594 18.9094 53.3393 18.9552 53.4743 19.001C53.5642 19.001 53.6541 19.0468 53.7441 19.0468C53.7891 19.0468 53.834 19.0468 53.879 19.0468C53.924 19.0468 53.969 19.0468 54.0139 19.0468C54.4187 19.0926 54.8235 19.0468 55.2732 18.9552C55.723 18.8637 56.2177 18.6347 56.6674 18.3142C57.1172 17.9937 57.5669 17.5817 57.9267 17.0322C58.0166 16.8949 58.1066 16.7575 58.1965 16.6202C58.2415 16.5286 58.2865 16.4828 58.3315 16.3912C58.3764 16.2997 58.4214 16.2539 58.4214 16.1623C58.4214 16.1165 58.4664 16.0707 58.4664 16.025L58.5114 15.8876C58.5563 15.796 58.5563 15.7045 58.6013 15.6129C58.6463 15.5213 58.6463 15.4297 58.6913 15.3382L58.7362 15.2008C58.7362 15.155 58.7362 15.1092 58.7812 15.0635C58.7812 14.9719 58.8262 14.8803 58.8262 14.7887C58.8262 14.6972 58.8711 14.6056 58.8711 14.514V14.3767C58.8711 14.3309 58.8711 14.2851 58.8711 14.2393C58.8711 14.1477 58.8711 14.0562 58.8711 13.9646C58.8711 13.873 58.8711 13.7815 58.8711 13.6899V13.5525V13.4152C58.8711 13.3236 58.8711 13.232 58.8262 13.0947C58.8262 13.0031 58.7812 12.9115 58.7812 12.7742C58.7812 12.7284 58.7812 12.6826 58.7362 12.6368L58.6913 12.4995C58.6463 12.4079 58.6463 12.3163 58.6013 12.179C58.5563 12.0874 58.5114 11.9958 58.5114 11.9042C58.5114 11.8585 58.4664 11.8127 58.4664 11.7669L58.4214 11.6295C58.3764 11.538 58.3315 11.4464 58.2865 11.3548C58.2415 11.2632 58.1965 11.1717 58.1516 11.0801L58.0616 10.9427L57.9717 10.8054C57.9267 10.7138 57.8367 10.6222 57.7918 10.5307C57.5219 10.1644 57.2521 9.84389 56.9373 9.56918C56.8023 9.43182 56.6224 9.29446 56.4425 9.11132C56.3526 9.01975 56.2626 8.97397 56.1727 8.92818C56.0828 8.88239 55.9928 8.79082 55.9029 8.74504C55.8129 8.69925 55.723 8.60768 55.633 8.56189C55.5431 8.51611 55.4531 8.42454 55.3632 8.37875L55.2282 8.28718L55.0933 8.19561C55.0034 8.14982 54.9134 8.10404 54.7785 8.05825C54.6886 8.01247 54.5536 7.96668 54.4637 7.9209L54.3288 7.82932L54.1938 7.78354C54.1039 7.73775 53.969 7.69197 53.879 7.64618C53.7891 7.6004 53.6541 7.55461 53.5642 7.55461C53.4743 7.50882 53.3393 7.46304 53.2494 7.46304C53.1594 7.41725 53.0245 7.41725 52.9346 7.37147C52.7097 7.32568 52.4848 7.2799 52.2599 7.23411C51.8102 7.14254 51.3605 7.09675 50.8658 7.05097C49.9213 7.00518 48.9319 7.05097 47.9874 7.23411C47.4927 7.32568 46.998 7.46304 46.5482 7.64618C46.0535 7.82932 45.6038 8.05825 45.154 8.33297L44.9741 8.42454L44.7942 8.56189C44.7043 8.65347 44.5694 8.69925 44.4794 8.79082L44.2995 8.92818C44.2546 8.97397 44.2096 9.01975 44.1646 9.06554C44.0747 9.15711 43.9847 9.24868 43.8498 9.34025C43.49 9.70654 43.0852 10.1186 42.7704 10.5765C42.4556 11.0343 42.1408 11.538 41.9159 12.179C41.691 12.7742 41.4662 13.461 41.4212 14.1935C41.2413 15.6587 41.4662 17.2612 42.1408 18.8179C42.3207 19.1842 42.5006 19.5962 42.7254 19.9625C42.9503 20.3288 43.1752 20.6951 43.49 21.0156C43.7598 21.3819 44.0747 21.7024 44.3895 22.0229C44.5694 22.1602 44.7043 22.3434 44.8842 22.4807C44.9741 22.5723 45.0641 22.6181 45.154 22.7097C45.244 22.8012 45.3339 22.847 45.4239 22.9386C45.5138 23.0302 45.6038 23.0759 45.6937 23.1217C45.7837 23.1675 45.8736 23.2591 45.9636 23.3049C46.1435 23.4422 46.3234 23.5338 46.5482 23.6712C46.6382 23.7169 46.7281 23.8085 46.8181 23.8543C46.908 23.9001 46.998 23.9459 47.1329 24.0374C47.2228 24.0832 47.3128 24.129 47.4477 24.2206C47.5377 24.2664 47.6276 24.3579 47.7625 24.4037C47.9874 24.4953 48.1673 24.6327 48.3922 24.7242C48.617 24.8158 48.8419 24.9074 49.0218 24.9989C49.2467 25.0905 49.4716 25.1821 49.6964 25.2737C49.7864 25.3194 49.9213 25.3652 50.0562 25.411C50.1462 25.4568 50.2811 25.5026 50.416 25.5026C50.5509 25.5484 50.6409 25.5942 50.7758 25.5942C50.9107 25.6399 51.0007 25.6857 51.1356 25.6857C51.3605 25.7315 51.6303 25.7773 51.8552 25.8689C52.0801 25.9146 52.3499 25.9604 52.5748 26.0062C52.7097 26.052 52.7996 26.052 52.9346 26.052C53.0695 26.052 53.1594 26.0978 53.2944 26.0978C54.2838 26.1894 55.2732 26.2351 56.2626 26.1894C56.5325 26.1894 56.7574 26.1436 56.9822 26.1436H57.342L57.7018 26.0978C57.9267 26.0978 58.1965 26.052 58.4664 26.052C58.6913 26.0062 58.9611 26.0062 59.2309 25.9604C59.5008 25.9146 59.7257 25.9146 59.9955 25.8689C60.2653 25.8231 60.4902 25.8231 60.7601 25.7773C61.0299 25.7315 61.2548 25.6857 61.5246 25.6857L61.8844 25.6399C62.0193 25.6399 62.1543 25.5942 62.2442 25.5484C62.5141 25.5026 62.7389 25.4568 63.0088 25.411C63.2786 25.3652 63.5035 25.2736 63.7733 25.2279C64.268 25.1363 64.7628 24.9532 65.2575 24.8158C65.4823 24.77 65.7522 24.6784 65.9771 24.5869C66.2019 24.4953 66.4718 24.4495 66.6966 24.3579C67.1914 24.1748 67.6411 24.0374 68.1358 23.8543C69.0803 23.488 70.0247 23.1217 70.9692 22.7097C71.9136 22.2976 72.8131 21.8855 73.7126 21.4734C74.6121 21.0614 75.5116 20.6493 76.3661 20.2372C77.2656 19.8252 78.1201 19.4131 78.9746 19.0468C80.6836 18.2684 82.3476 17.4443 83.9667 16.7575C84.7762 16.437 85.5858 16.1165 86.3503 15.8418C87.1149 15.5671 87.9244 15.3382 88.689 15.155C89.6784 14.6056 91.0726 14.4682 92.3769 14.514ZM94.0409 14.6972C94.1309 14.743 94.2208 14.7887 94.3108 14.8345C94.3108 14.8345 94.3108 14.8345 94.3557 14.8345C94.2658 14.7887 94.1758 14.743 94.0409 14.6972C93.951 14.6514 93.861 14.6514 93.8161 14.6056C93.906 14.6514 93.996 14.6972 94.0409 14.6972ZM88.1043 14.514C87.3398 14.6972 86.5302 14.8803 85.7207 15.155C84.9112 15.4297 84.1016 15.7045 83.2921 16.025C81.6281 16.666 79.964 17.4443 78.255 18.1769C77.4005 18.5432 76.501 18.9552 75.6015 19.3215C74.702 19.7336 73.8026 20.0999 72.9031 20.5119C72.0036 20.924 71.1041 21.2903 70.1597 21.6566C69.2152 22.0229 68.3157 22.3892 67.3713 22.7097C66.9215 22.8928 66.4268 23.0302 65.9321 23.1675C65.7072 23.2591 65.4374 23.3049 65.2125 23.3964C64.9876 23.4422 64.7178 23.5338 64.4929 23.5796C63.9982 23.7169 63.5485 23.8543 63.0537 23.9459C62.8289 23.9917 62.559 24.0374 62.3342 24.0832C62.1093 24.129 61.8394 24.1748 61.6146 24.2206C61.4796 24.2206 61.3897 24.2664 61.2548 24.2664L60.895 24.3122C60.6701 24.3579 60.4003 24.3579 60.1754 24.4037C59.9505 24.4495 59.6807 24.4495 59.4558 24.4953C59.2309 24.5411 58.9611 24.5411 58.7362 24.5869C58.6913 24.5869 58.6013 24.5869 58.5563 24.5869C58.8262 24.4953 59.141 24.4495 59.5008 24.4037C59.9056 24.3579 60.3103 24.2664 60.805 24.129C61.7495 23.9459 62.8738 23.5796 64.1331 23.0759C65.3474 22.5265 66.6067 21.8855 67.9109 21.1529C69.7099 20.1457 71.329 19.1842 72.7682 18.4058C73.4877 18.0395 74.1174 17.6732 74.747 17.3527C75.0618 17.2154 75.3317 17.078 75.5566 16.9407C75.8264 16.8033 76.0513 16.7117 76.2761 16.6202C76.501 16.5286 76.7259 16.4828 76.9957 16.3912C77.2656 16.2997 77.5354 16.2081 77.8502 16.1165C78.4799 15.9334 79.1995 15.7045 79.964 15.4755C81.4931 15.0177 83.3371 14.4682 85.3159 14.1477C86.0355 14.0562 86.7551 13.9646 87.4297 13.9188C87.7895 13.873 88.1043 13.9188 88.4641 13.873C88.644 13.873 88.7789 13.873 88.9588 13.873C89.1387 13.873 89.2737 13.873 89.4536 13.873C89.9033 13.9188 90.353 13.9646 90.8028 14.0562C89.9033 14.1935 89.0038 14.2851 88.1043 14.514Z" fill="#FBA1AB"/>
<path d="M79.964 12.7284C79.8291 12.7742 79.6492 12.82 79.5143 12.8658C79.3794 12.9115 79.2444 12.9573 79.1095 13.0031C78.9746 13.0489 78.8397 13.0947 78.7048 13.1405C78.4349 13.232 78.1651 13.2778 77.8952 13.3236C77.7603 13.3694 77.6254 13.3694 77.4905 13.4152C77.3555 13.461 77.2206 13.461 77.0857 13.5068C76.9957 13.5068 76.9508 13.5525 76.8608 13.5525L76.6359 13.5983C76.501 13.5983 76.3661 13.6441 76.2312 13.6441C76.0963 13.6441 75.9613 13.6899 75.8264 13.6899C75.6915 13.6899 75.5566 13.7357 75.4216 13.7357C75.3767 13.7357 75.3767 13.7357 75.3317 13.7357C75.4666 13.6899 75.6015 13.6441 75.7814 13.6441C75.6465 13.6441 75.4666 13.6899 75.2867 13.6899C75.2417 13.7357 75.1968 13.7357 75.1518 13.7815C75.1068 13.7815 75.0169 13.7815 74.9719 13.7815C74.837 13.7815 74.7021 13.7815 74.5671 13.8273H74.3423H74.1174C73.9825 13.8273 73.8475 13.8273 73.7126 13.8273C73.1729 13.8273 72.6332 13.8273 72.0936 13.7357C72.0486 13.7357 71.9586 13.7357 71.9137 13.6899C71.8687 13.6899 71.7787 13.6899 71.7338 13.6441C71.5988 13.5983 71.4639 13.5983 71.329 13.5525C71.1941 13.5068 71.0591 13.5068 70.9692 13.461C70.9242 13.461 70.8343 13.4152 70.7893 13.4152C70.7443 13.4152 70.6544 13.3694 70.6094 13.3694C70.5644 13.3694 70.4745 13.3236 70.4295 13.3236C70.3845 13.3236 70.2946 13.2778 70.2496 13.2778C70.1147 13.232 70.0247 13.1863 69.8898 13.1405C69.7549 13.0947 69.6649 13.0489 69.53 13.0031C69.4401 12.9573 69.3051 12.8658 69.2152 12.82C69.1702 12.7742 69.1253 12.7742 69.0353 12.7284C68.9903 12.6826 68.9454 12.6826 68.8554 12.6368C68.8104 12.591 68.7655 12.591 68.6755 12.5453C68.6305 12.4995 68.5856 12.4995 68.5406 12.4537C68.4506 12.4079 68.3157 12.3163 68.2258 12.2705C68.1808 12.2248 68.1358 12.2248 68.0908 12.179C68.0459 12.1332 68.0009 12.1332 67.9559 12.0874C67.911 12.0416 67.866 11.9958 67.821 11.9958C67.776 11.95 67.7311 11.9043 67.6861 11.9043C67.5961 11.8127 67.5062 11.7669 67.4162 11.6753C67.2363 11.4922 67.1014 11.3548 66.9665 11.1717C66.8316 10.9886 66.6967 10.8054 66.6067 10.6223C66.5168 10.4391 66.3818 10.256 66.3369 10.0728C66.2469 9.88969 66.2019 9.70655 66.112 9.47762C66.067 9.38605 66.067 9.29448 66.022 9.20291C66.022 9.11134 65.9771 9.01977 65.9771 8.9282C65.9321 8.56191 65.9321 8.19563 65.9771 7.82934C66.022 7.50884 66.112 7.18834 66.2019 6.91363C66.3369 6.63891 66.4718 6.40999 66.6067 6.18106C66.7416 5.95213 66.9215 5.76899 67.1014 5.58584C67.1464 5.54006 67.1914 5.49427 67.2363 5.44849C67.2813 5.4027 67.2813 5.4027 67.3263 5.4027L67.4162 5.35692C67.4612 5.31113 67.5062 5.26534 67.5512 5.26534L67.6411 5.21956L67.7311 5.17377C67.9559 5.03642 68.1808 4.94485 68.4057 4.85327C68.6305 4.7617 68.9004 4.67013 69.1253 4.62435C69.62 4.53277 70.1147 4.48699 70.6094 4.53277C70.8343 4.53277 71.1041 4.57856 71.329 4.62435C71.4639 4.62435 71.5539 4.67013 71.6888 4.71592C71.7338 4.71592 71.8237 4.7617 71.8687 4.7617C71.9137 4.7617 71.9586 4.80749 72.0486 4.80749C72.9481 5.0822 73.7126 5.58584 74.1624 6.22684C74.2073 6.27263 74.2073 6.31841 74.2523 6.3642L74.2973 6.40999L74.3423 6.45577C74.3872 6.50156 74.3872 6.54734 74.4322 6.59313C74.4322 6.63891 74.4772 6.6847 74.4772 6.73049L74.5222 6.77627C74.5222 6.77627 74.5222 6.82206 74.5671 6.82206C74.5671 6.86784 74.6121 6.91363 74.6121 6.95941C74.6121 7.0052 74.6571 7.05098 74.6571 7.09677V7.14256V7.18834C74.6571 7.23413 74.6571 7.27991 74.7021 7.3257C74.7021 7.37148 74.7021 7.41727 74.7021 7.46306V7.50884V7.55463C74.7021 7.60041 74.7021 7.6462 74.7021 7.69198C74.7021 7.73777 74.7021 7.78356 74.7021 7.82934V7.87513V7.92091C74.7021 7.9667 74.7021 8.01248 74.7021 8.05827C74.7021 8.10405 74.7021 8.14984 74.7021 8.19563V8.24141V8.2872C74.7021 8.33298 74.7021 8.37877 74.6571 8.42455C74.6571 8.47034 74.6121 8.51613 74.6121 8.56191V8.6077C74.6121 8.6077 74.6121 8.65348 74.5671 8.65348C74.5671 8.69927 74.5222 8.74505 74.5222 8.79084C74.5222 8.83663 74.4772 8.88241 74.4772 8.88241C74.4322 8.97398 74.3872 9.01977 74.3423 9.11134C74.1624 9.38605 73.9825 9.61498 73.7576 9.75234C73.5327 9.93548 73.3079 10.0271 73.083 10.1186C72.8581 10.2102 72.6332 10.256 72.4533 10.256C72.4084 10.256 72.4084 10.256 72.3634 10.256C72.3184 10.256 72.3184 10.256 72.2734 10.256C72.2285 10.256 72.1835 10.256 72.1385 10.256C72.0935 10.256 72.0935 10.256 72.0486 10.256C72.4084 10.0728 72.6782 9.66077 72.6332 9.20291C72.5883 8.6077 72.0936 8.19563 71.5089 8.2872C70.9692 8.33298 70.5644 8.88241 70.6094 9.43184C70.6544 9.93548 71.0591 10.3476 71.5539 10.3933C71.5988 10.3933 71.5988 10.3933 71.6438 10.4391C71.6888 10.4849 71.7787 10.4849 71.8687 10.5307C71.9586 10.5765 72.0486 10.5765 72.1385 10.5765C72.1835 10.5765 72.2285 10.5765 72.2734 10.5765C72.3184 10.5765 72.3184 10.5765 72.3634 10.5765C72.4084 10.5765 72.4084 10.5765 72.4533 10.5765C72.6782 10.5765 72.9031 10.5765 73.1729 10.5307C73.4428 10.4849 73.7126 10.3476 73.9825 10.1644C74.2523 9.98127 74.5222 9.75234 74.7021 9.43184C74.747 9.34027 74.792 9.29448 74.837 9.20291C74.8819 9.15712 74.882 9.11134 74.9269 9.06555C74.9269 9.01977 74.9719 8.97398 74.9719 8.9282C74.9719 8.9282 74.9719 8.88241 75.0169 8.83662L75.0618 8.74505C75.0618 8.69927 75.1068 8.65348 75.1068 8.6077C75.1068 8.56191 75.1518 8.51613 75.1518 8.47034V8.37877C75.1518 8.33298 75.1518 8.33298 75.1518 8.2872C75.1518 8.24141 75.1518 8.19563 75.1968 8.14984C75.1968 8.10405 75.1968 8.05827 75.1968 7.9667V7.87513C75.1968 7.82934 75.1968 7.82934 75.1968 7.78356C75.1968 7.73777 75.1968 7.69198 75.1968 7.60041C75.1968 7.55463 75.1968 7.50884 75.1968 7.41727V7.3257V7.23413C75.1968 7.18834 75.1968 7.14256 75.1968 7.05098C75.1968 7.0052 75.1968 6.95941 75.1518 6.86784C75.1518 6.82206 75.1518 6.82206 75.1518 6.77627L75.1068 6.6847C75.1068 6.63891 75.0618 6.59313 75.0618 6.50156C75.0618 6.45577 75.0169 6.40999 75.0169 6.31841C75.0169 6.27263 75.0169 6.27263 74.9719 6.22684L74.9269 6.13527C74.882 6.08949 74.8819 6.0437 74.837 5.95213C74.792 5.90634 74.792 5.86056 74.747 5.81477L74.7021 5.7232L74.6571 5.63163C74.6121 5.58584 74.6121 5.54006 74.5671 5.49427C74.4322 5.31113 74.2523 5.0822 74.0724 4.94485C73.9825 4.85327 73.8925 4.7617 73.8026 4.67013C73.7576 4.62435 73.7126 4.57856 73.6676 4.53277C73.6227 4.48699 73.5777 4.4412 73.5327 4.4412C73.4878 4.39542 73.4428 4.34963 73.3528 4.34963C73.3079 4.30385 73.2629 4.30385 73.1729 4.25806L73.083 4.21227L72.993 4.16649C72.9481 4.1207 72.8581 4.1207 72.8131 4.07492C72.7682 4.02913 72.6782 4.02913 72.6332 3.98335L72.5433 3.93756L72.4533 3.89178C72.4084 3.84599 72.3184 3.84599 72.2734 3.8002C72.2285 3.8002 72.1385 3.75442 72.0936 3.75442C72.0486 3.75442 71.9586 3.70863 71.9137 3.70863C71.8687 3.70863 71.7787 3.66285 71.7338 3.66285C71.7338 3.70863 71.6438 3.66285 71.5089 3.66285C71.239 3.61706 70.9692 3.57128 70.6993 3.57128C70.1597 3.52549 69.62 3.57128 69.0353 3.66285C68.7655 3.70863 68.4956 3.8002 68.1808 3.89178C67.911 3.98335 67.6411 4.1207 67.3713 4.30385L67.2813 4.34963L67.1914 4.39542C67.1464 4.4412 67.0564 4.48699 67.0115 4.53277L66.9215 4.62435C66.8765 4.67013 66.8765 4.67013 66.8316 4.71592C66.7866 4.7617 66.7416 4.80749 66.6517 4.85327C66.4268 5.0822 66.2019 5.31113 66.022 5.58584C65.8421 5.86056 65.6622 6.13527 65.5273 6.50156C65.3924 6.86784 65.3024 7.23413 65.2125 7.6462C65.1226 8.47034 65.2575 9.43184 65.6173 10.3018C65.7072 10.5307 65.8421 10.7596 65.9321 10.9428C66.067 11.1717 66.2019 11.3548 66.3369 11.538C66.4718 11.7211 66.6517 11.9043 66.8316 12.0874C66.9215 12.179 67.0115 12.2705 67.1014 12.3621C67.1464 12.4079 67.1914 12.4537 67.2363 12.4995C67.2813 12.5453 67.3263 12.591 67.3713 12.6368C67.4162 12.6826 67.4612 12.7284 67.5512 12.7742C67.5961 12.82 67.6411 12.8658 67.7311 12.8658C67.821 12.9115 67.9559 13.0031 68.0459 13.0489C68.0909 13.0947 68.1358 13.1405 68.2258 13.1405C68.2707 13.1863 68.3607 13.1863 68.4057 13.232C68.4506 13.2778 68.5406 13.2778 68.5856 13.3236C68.6305 13.3694 68.7205 13.3694 68.7655 13.4152C68.9004 13.461 68.9903 13.5525 69.1253 13.5983C69.2602 13.6441 69.3501 13.6899 69.485 13.7815C69.62 13.8273 69.7549 13.873 69.8448 13.9188C69.8898 13.9646 69.9798 13.9646 70.0247 14.0104C70.0697 14.0562 70.1597 14.0562 70.2046 14.0562C70.2496 14.0562 70.3396 14.102 70.3845 14.102C70.4295 14.102 70.5195 14.1478 70.5644 14.1478C70.6993 14.1935 70.8343 14.1935 70.9692 14.2393C71.1041 14.2851 71.239 14.2851 71.374 14.3309C71.4639 14.3309 71.5089 14.3309 71.5988 14.3767C71.6888 14.3767 71.7338 14.3767 71.8237 14.4225C72.3634 14.4683 72.9481 14.514 73.5327 14.4683C73.6676 14.4683 73.8026 14.4683 73.9375 14.4683H74.1624H74.3872C74.5222 14.4683 74.6571 14.4225 74.792 14.4225C74.9269 14.4225 75.0618 14.3767 75.1968 14.3767C75.3317 14.3767 75.4666 14.3309 75.6015 14.3309C75.7365 14.3309 75.8714 14.2851 76.0063 14.2851C76.1412 14.2851 76.2761 14.2393 76.456 14.2393L76.6809 14.1935C76.7709 14.1935 76.8158 14.1478 76.9058 14.1478C77.0407 14.102 77.1756 14.102 77.3555 14.0562C77.4905 14.0104 77.6254 14.0104 77.7603 13.9646C78.0301 13.9188 78.345 13.8273 78.6148 13.7357C78.7497 13.6899 78.8847 13.6441 79.0196 13.5983C79.1545 13.5525 79.2894 13.5068 79.4243 13.461C79.6942 13.3694 79.964 13.2778 80.2339 13.1863C80.4138 13.0947 80.5937 13.0489 80.8185 12.9573C80.8185 12.82 80.8635 12.7284 80.8635 12.591C80.7286 12.591 80.3688 12.6368 79.964 12.7284Z" fill="#FBA1AB"/>
<path d="M97.6389 19.5505C96.2896 17.5359 93.5912 16.1166 91.0726 15.7503C88.5091 15.384 85.9006 16.2539 83.6519 17.3985C81.0434 18.7721 78.6598 20.4662 76.1862 22.0229C73.8475 23.488 71.239 24.8616 68.3607 24.9532C68.0459 24.9532 67.7311 25.1363 67.7311 25.3653C67.5961 25.5484 67.7311 25.8689 67.9559 26.052C69.9348 27.4714 72.7682 27.4714 75.1068 26.7846C77.5354 26.0978 78.8846 23.9001 80.054 21.9313C80.1439 23.076 80.4587 24.1748 81.4931 24.9532C81.9429 25.2737 83.3371 25.8689 82.3476 24.358C81.3132 22.7555 82.7524 20.6493 84.0117 19.3215C85.4509 17.6733 87.8795 16.9407 90.0382 16.666C90.0832 16.666 90.1731 16.6202 90.2181 16.6202C90.443 16.6202 90.6679 16.666 90.8478 16.666C94.9854 17.1696 97.5939 20.3746 98.1336 23.9917C98.5383 26.7846 98.0886 30.7222 95.1653 32.4162C93.906 33.1488 92.242 33.0115 90.8927 32.5994C90.7128 32.5536 90.488 32.462 90.3081 32.3705C90.353 32.1873 90.2631 32.05 90.0382 31.821C89.4086 31.2716 89.2737 30.1727 89.4985 29.257C90.6229 29.7149 92.197 29.4402 93.3213 28.9365C94.8505 28.2498 95.8849 26.5557 95.1653 25.3195C95.1203 25.2279 95.1203 25.1363 95.0304 25.0905C94.9854 24.9532 94.8954 24.8158 94.7155 24.7243C91.4774 23.1218 88.2842 25.1363 87.4747 28.204C86.5752 31.6379 89.5885 33.973 93.0965 33.973C96.4246 33.973 98.3135 31.1342 98.9881 28.4787C99.8426 25.5484 99.3928 22.1145 97.6389 19.5505ZM93.7261 27.0135C93.7261 27.0593 93.7261 27.0593 93.7261 27.0135C93.6811 27.0593 93.6811 27.0593 93.7261 27.0135Z" fill="#FBA1AB"/>
<path d="M110.681 14.9719C111.446 15.1551 112.21 15.384 113.02 15.6587C113.785 15.9334 114.594 16.2539 115.404 16.5744C117.023 17.2612 118.687 18.0396 120.396 18.8637C121.25 19.2758 122.105 19.6421 123.004 20.0541C123.904 20.4662 124.758 20.8783 125.658 21.2903C126.557 21.7024 127.457 22.1145 128.401 22.5266C129.346 22.9386 130.245 23.3049 131.235 23.6712C131.729 23.8543 132.179 23.9917 132.674 24.1748C132.899 24.2664 133.168 24.3122 133.393 24.4038C133.618 24.4953 133.888 24.5411 134.113 24.6327C134.608 24.77 135.102 24.9074 135.597 25.0448C135.867 25.0905 136.092 25.1821 136.362 25.2279C136.631 25.2737 136.856 25.3195 137.126 25.3653C137.261 25.411 137.396 25.411 137.486 25.4568L137.846 25.5026C138.116 25.5484 138.34 25.5942 138.61 25.5942C138.88 25.64 139.105 25.64 139.375 25.6858C139.645 25.7315 139.87 25.7315 140.139 25.7773C140.409 25.8231 140.634 25.8231 140.904 25.8689C141.174 25.8689 141.399 25.9147 141.669 25.9147L142.028 25.9605H142.388C142.658 25.9605 142.883 26.0063 143.108 26.0063C144.097 26.052 145.087 26.0063 146.076 25.9147C146.211 25.9147 146.301 25.8689 146.436 25.8689C146.571 25.8689 146.661 25.8231 146.796 25.8231C147.02 25.7773 147.29 25.7315 147.515 25.6858C147.74 25.64 148.01 25.5942 148.235 25.5026C148.37 25.4568 148.46 25.4568 148.595 25.411C148.729 25.3653 148.819 25.3195 148.954 25.3195C149.089 25.2737 149.179 25.2737 149.314 25.2279C149.449 25.1821 149.539 25.1363 149.674 25.0905C149.899 24.999 150.124 24.9532 150.349 24.8158C150.573 24.7243 150.798 24.6327 150.978 24.5411C151.203 24.4495 151.383 24.3122 151.608 24.2206C151.698 24.1748 151.833 24.129 151.923 24.0375C152.013 23.9917 152.103 23.9459 152.237 23.8543C152.327 23.8085 152.417 23.7628 152.552 23.6712C152.642 23.6254 152.732 23.5338 152.822 23.488C153.002 23.3507 153.182 23.2591 153.407 23.1218C153.497 23.076 153.587 22.9844 153.677 22.9386C153.767 22.8928 153.857 22.8013 153.946 22.7555C154.036 22.6639 154.126 22.6181 154.216 22.5266C154.306 22.435 154.396 22.3892 154.486 22.2976C154.666 22.1603 154.801 21.9771 154.981 21.8398C155.296 21.5193 155.611 21.1988 155.88 20.8325C156.15 20.512 156.375 20.1457 156.645 19.7794C156.87 19.4131 157.05 19.0468 157.23 18.6348C157.904 17.0781 158.129 15.4756 157.949 14.0104C157.859 13.2779 157.679 12.5911 157.454 11.9959C157.23 11.4006 156.915 10.8512 156.6 10.3934C156.285 9.9355 155.925 9.52343 155.521 9.15714C155.431 9.06557 155.341 8.974 155.206 8.88243C155.161 8.83665 155.116 8.79086 155.071 8.74507L154.891 8.60772C154.801 8.51615 154.666 8.42457 154.576 8.37879L154.396 8.24143L154.216 8.14986C153.767 7.87515 153.272 7.64622 152.822 7.46308C152.327 7.27993 151.833 7.14258 151.383 7.05101C150.394 6.86786 149.449 6.82208 148.505 6.86786C148.055 6.91365 147.56 6.95943 147.11 7.05101C146.886 7.09679 146.661 7.14258 146.436 7.18836C146.346 7.23415 146.211 7.23415 146.121 7.27993C146.031 7.32572 145.896 7.32572 145.806 7.37151C145.716 7.41729 145.581 7.46308 145.491 7.46308C145.401 7.50886 145.266 7.55465 145.177 7.60043L144.817 7.78358L144.682 7.87515C144.592 7.92093 144.457 7.96672 144.367 8.0125C144.277 8.05829 144.187 8.10407 144.052 8.14986L143.917 8.24143L143.782 8.333C143.692 8.37879 143.602 8.47036 143.512 8.51615C143.423 8.56193 143.333 8.6535 143.243 8.69929C143.153 8.74507 143.063 8.83665 142.973 8.88243C142.883 8.92822 142.793 9.01979 142.703 9.06557C142.523 9.20293 142.388 9.34029 142.208 9.52343C141.893 9.84393 141.624 10.1644 141.354 10.4849C141.309 10.5765 141.219 10.6681 141.174 10.7596L141.084 10.897L140.994 11.0344C140.949 11.1259 140.904 11.2175 140.859 11.3091C140.814 11.4006 140.769 11.4922 140.724 11.5838L140.679 11.7211C140.679 11.7669 140.634 11.8127 140.634 11.8585C140.589 11.9501 140.544 12.0416 140.544 12.1332C140.499 12.2248 140.499 12.3164 140.454 12.4537L140.409 12.5911C140.409 12.6369 140.409 12.6826 140.364 12.7284C140.364 12.82 140.319 12.9116 140.319 13.0489C140.319 13.1405 140.319 13.2321 140.274 13.3694V13.5068V13.6441C140.274 13.7357 140.274 13.8273 140.274 13.9189C140.274 14.0104 140.274 14.102 140.274 14.1936C140.274 14.2394 140.274 14.2851 140.274 14.3309V14.4683C140.274 14.5599 140.319 14.6514 140.319 14.743C140.319 14.8346 140.364 14.9261 140.364 15.0177C140.364 15.0635 140.364 15.1093 140.409 15.1551L140.454 15.2924C140.499 15.384 140.499 15.4756 140.544 15.5671C140.589 15.6587 140.589 15.7503 140.634 15.8418L140.679 15.9792C140.679 16.025 140.724 16.0708 140.724 16.1166C140.769 16.2081 140.814 16.2539 140.814 16.3455C140.859 16.4371 140.904 16.4828 140.949 16.5744C141.039 16.7118 141.129 16.8491 141.219 16.9865C141.579 17.5359 142.028 17.948 142.478 18.2685C142.928 18.589 143.423 18.8179 143.872 18.9095C144.322 19.0011 144.772 19.0468 145.132 19.0011C145.177 19.0011 145.221 19.0011 145.266 19.0011C145.311 19.0011 145.356 19.0011 145.401 19.0011C145.491 19.0011 145.581 18.9553 145.671 18.9553C145.851 18.9095 145.986 18.8637 146.121 18.8179C146.256 18.7721 146.391 18.7263 146.481 18.6806C146.526 18.6806 146.571 18.6348 146.616 18.6348C147.47 18.589 148.145 17.9022 148.235 16.9865C148.325 15.9792 147.65 15.0635 146.661 14.9719C145.671 14.8804 144.817 15.6129 144.727 16.6202C144.637 17.3986 145.042 18.1311 145.716 18.4516C145.671 18.4516 145.626 18.4516 145.581 18.4516C145.491 18.4516 145.446 18.4516 145.356 18.4516C145.311 18.4516 145.266 18.4516 145.221 18.4516C145.177 18.4516 145.132 18.4516 145.087 18.4516C144.727 18.4516 144.367 18.3601 144.007 18.2227C143.602 18.0853 143.243 17.9022 142.838 17.5817C142.478 17.2612 142.118 16.8949 141.848 16.4371C141.803 16.2997 141.713 16.2081 141.669 16.0708C141.624 16.025 141.624 15.9334 141.579 15.8876C141.534 15.8418 141.534 15.7503 141.489 15.7045C141.489 15.6587 141.444 15.6587 141.444 15.6129L141.399 15.5213C141.399 15.4298 141.354 15.384 141.354 15.2924C141.354 15.2008 141.309 15.1551 141.309 15.0635L141.264 14.9719C141.264 14.9261 141.264 14.8803 141.264 14.8803C141.264 14.7888 141.219 14.743 141.219 14.6514C141.219 14.5599 141.219 14.5141 141.219 14.4225V14.2851C141.219 14.2394 141.219 14.1936 141.219 14.1478C141.219 14.0562 141.219 14.0104 141.219 13.9189C141.219 13.8273 141.219 13.7815 141.219 13.6899V13.5526V13.4152C141.219 13.3236 141.264 13.2779 141.264 13.1863C141.264 13.0947 141.309 13.0489 141.309 12.9574C141.309 12.9116 141.309 12.8658 141.354 12.82L141.399 12.6826C141.444 12.5911 141.444 12.5453 141.489 12.4537C141.534 12.3621 141.534 12.3164 141.579 12.2248C141.579 12.179 141.624 12.1332 141.624 12.0874L141.669 11.9959C141.713 11.9043 141.758 11.8585 141.803 11.7669C141.848 11.6754 141.893 11.6296 141.938 11.538L141.983 11.4464L142.073 11.3549C142.118 11.2633 142.163 11.2175 142.208 11.1259C143.063 9.98129 144.412 9.11136 145.941 8.6535C146.031 8.60772 146.121 8.60772 146.211 8.56193C146.301 8.51615 146.391 8.51615 146.526 8.47036C146.706 8.42457 146.931 8.37879 147.11 8.333C147.515 8.24143 147.92 8.19565 148.37 8.19565C149.224 8.14986 150.079 8.19565 150.933 8.37879C151.338 8.47036 151.788 8.60772 152.192 8.74507C152.597 8.88243 153.002 9.11136 153.362 9.34029L153.497 9.43186L153.632 9.52343C153.722 9.56922 153.812 9.66079 153.901 9.70657L154.036 9.79814C154.081 9.84393 154.126 9.88972 154.171 9.88972C154.261 9.98129 154.351 10.0271 154.441 10.1186C154.756 10.4391 155.071 10.7596 155.341 11.1717C155.611 11.538 155.835 11.9959 156.06 12.4537C156.24 12.9574 156.42 13.5068 156.465 14.102C156.555 14.6972 156.555 15.3382 156.42 15.9792C156.42 16.1623 156.375 16.2997 156.33 16.4828C156.285 16.666 156.24 16.8033 156.195 16.9865C156.105 17.307 155.97 17.6733 155.835 17.9938C155.7 18.3143 155.521 18.6348 155.341 19.0011C155.161 19.3216 154.936 19.6421 154.711 19.9626C154.486 20.2831 154.216 20.5578 153.946 20.8325C153.812 20.9698 153.677 21.1072 153.497 21.2446C153.407 21.2903 153.362 21.3819 153.272 21.4277C153.182 21.4735 153.137 21.5651 153.047 21.6108C152.957 21.6566 152.867 21.7482 152.822 21.794C152.732 21.8398 152.642 21.9313 152.552 21.9771C152.372 22.1145 152.192 22.2061 152.013 22.3434C151.923 22.3892 151.833 22.4808 151.743 22.5266C151.653 22.5723 151.563 22.6181 151.473 22.7097C151.383 22.7555 151.293 22.8013 151.203 22.8928C151.113 22.9386 151.023 22.9844 150.933 23.0302C150.753 23.1218 150.528 23.2133 150.349 23.3507C150.169 23.4423 149.944 23.5338 149.764 23.6254C149.584 23.717 149.359 23.8085 149.134 23.8543C149.044 23.9001 148.909 23.9459 148.819 23.9917C148.729 24.0375 148.595 24.0375 148.505 24.0833C148.415 24.129 148.28 24.129 148.19 24.1748C148.1 24.2206 147.965 24.2206 147.875 24.2664C147.65 24.3122 147.425 24.358 147.2 24.4495C146.975 24.4953 146.751 24.5411 146.526 24.5869C146.436 24.6327 146.301 24.6327 146.166 24.6327C146.031 24.6327 145.941 24.6785 145.806 24.6785C144.907 24.77 143.962 24.8158 143.018 24.8158C142.793 24.8158 142.523 24.8158 142.298 24.8158H141.938H141.579C141.354 24.8158 141.084 24.77 140.859 24.77C140.769 24.77 140.634 24.77 140.544 24.7243C140.499 24.6785 140.409 24.6327 140.319 24.5869C140.049 24.4495 139.735 24.358 139.375 24.2664C139.015 24.1748 138.565 24.0375 138.116 23.9001C137.171 23.6254 136.092 23.1676 134.967 22.6181C133.843 22.0229 132.584 21.3361 131.279 20.6036C129.481 19.5963 127.816 18.7263 126.332 17.9938C125.568 17.6733 124.893 17.3528 124.309 17.1238C123.994 16.9865 123.724 16.8949 123.454 16.8033C123.184 16.7118 122.959 16.6202 122.734 16.5744C122.51 16.4828 122.285 16.3455 122.015 16.2539C121.745 16.1166 121.475 16.025 121.16 15.8876C120.531 15.6129 119.856 15.3382 119.091 15.0635C117.562 14.4683 115.718 13.8731 113.695 13.5526C112.93 13.461 112.21 13.3694 111.491 13.3694C111.131 13.3694 110.771 13.3694 110.456 13.3694C110.277 13.3694 110.097 13.4152 109.962 13.4152C109.782 13.4152 109.647 13.4152 109.467 13.461C108.298 13.5984 107.263 13.9189 106.409 14.2394C106.229 14.2394 106.049 14.2851 105.869 14.2851C106.229 14.102 106.679 13.9189 107.218 13.7357C107.308 13.6899 107.443 13.6441 107.578 13.5984C107.713 13.5526 107.803 13.5068 107.938 13.461C108.163 13.3694 108.433 13.3236 108.702 13.2321C109.242 13.0947 109.827 12.9574 110.411 12.82C110.996 12.7284 111.671 12.6369 112.3 12.5911C112.615 12.5911 112.975 12.5453 113.29 12.5453C113.47 12.5453 113.65 12.5453 113.83 12.5453C114.009 12.5453 114.189 12.5911 114.369 12.5911C116.303 12.7284 118.057 13.1863 119.586 13.5526C121.115 13.9646 122.33 14.3767 123.184 14.6514C123.589 14.8346 124.084 15.0635 124.668 15.384C125.253 15.6587 125.883 16.025 126.557 16.3455C127.232 16.7118 127.996 17.1696 128.806 17.5817C129.57 18.0396 130.425 18.5432 131.279 19.0468C131.909 19.4131 132.494 19.7794 133.123 20.1457C133.708 20.512 134.248 20.8783 134.743 21.2446C135.237 21.6108 135.732 21.9771 136.227 22.2976C136.676 22.6181 137.126 22.8928 137.576 23.1675C138.43 23.6712 139.15 23.9459 139.645 24.0833C139.78 24.129 139.87 24.129 140.004 24.1748C140.094 24.1748 140.184 24.2206 140.274 24.2206C140.409 24.2664 140.499 24.2664 140.499 24.2664C140.499 24.2664 140.409 24.2206 140.274 24.2206C140.229 24.2206 140.139 24.1748 140.049 24.129C139.96 24.0833 139.825 24.0375 139.735 23.9917C139.24 23.8085 138.565 23.4423 137.801 22.8928C137.396 22.6181 136.991 22.2976 136.541 21.9313C136.092 21.5651 135.642 21.1988 135.147 20.7867C134.653 20.3746 134.113 19.9626 133.528 19.5963C132.944 19.23 132.314 18.8637 131.729 18.4974C130.875 17.9938 130.02 17.5359 129.211 17.0781C128.401 16.666 127.637 16.2997 126.917 15.9334C126.197 15.6129 125.523 15.3382 124.938 15.1093C124.353 14.8803 123.814 14.6972 123.409 14.5598C122.599 14.1478 121.385 13.6441 119.901 13.0947C118.417 12.5911 116.573 12.0874 114.594 11.9043C114.414 11.9043 114.234 11.8585 114.054 11.8585C113.875 11.8585 113.695 11.8585 113.515 11.8585C113.155 11.8585 112.795 11.8585 112.435 11.9043C111.761 11.9501 111.086 12.0874 110.456 12.2248C109.827 12.3621 109.242 12.5453 108.747 12.7284C108.478 12.82 108.208 12.9116 107.983 13.0031C107.848 13.0489 107.758 13.0947 107.623 13.1405C107.488 13.1863 107.398 13.2321 107.308 13.2779C106.589 13.5984 106.049 13.9646 105.599 14.2394C105.284 14.2851 105.015 14.3767 104.745 14.4225C104.25 14.5599 103.8 14.7888 103.396 15.0635C103.44 15.1093 103.485 15.2008 103.485 15.2466V15.2924C103.89 15.0635 104.295 14.8804 104.79 14.743C104.835 14.743 104.88 14.743 104.925 14.6972C104.88 14.743 104.835 14.743 104.79 14.7888C104.745 14.8346 104.7 14.8346 104.7 14.8803C104.52 14.9719 104.295 15.0177 104.16 15.1093C103.845 15.2466 103.62 15.3382 103.485 15.384C103.62 15.3382 103.845 15.2924 104.205 15.2008C104.475 15.1093 104.79 15.0177 105.15 14.9261C105.509 14.8346 105.959 14.6972 106.409 14.5598C106.499 14.5141 106.634 14.5141 106.769 14.4683C107.803 14.4683 109.197 14.6056 110.681 14.9719ZM105.06 14.6514C104.97 14.6972 104.88 14.6972 104.835 14.743C104.745 14.7888 104.61 14.8346 104.52 14.8803C104.52 14.8803 104.52 14.8803 104.565 14.8803C104.655 14.8346 104.7 14.7888 104.835 14.743C104.88 14.6972 104.97 14.6514 105.06 14.6514ZM108.118 14.1478C108.568 14.0562 108.972 14.0104 109.467 13.9646C109.602 13.9646 109.782 13.9646 109.962 13.9646C110.142 13.9646 110.277 13.9646 110.456 13.9646C110.771 13.9646 111.131 13.9646 111.491 14.0104C112.165 14.0562 112.885 14.1478 113.605 14.2394C115.584 14.5599 117.382 15.0635 118.957 15.5671C119.721 15.7961 120.441 16.025 121.07 16.2081C121.385 16.2997 121.655 16.3913 121.925 16.4828C122.195 16.5744 122.42 16.666 122.644 16.7118C122.869 16.8033 123.094 16.8949 123.364 17.0323C123.634 17.1696 123.904 17.307 124.174 17.4443C124.758 17.7191 125.433 18.0853 126.152 18.4974C127.592 19.2758 129.211 20.2373 131.01 21.2446C132.314 21.9771 133.618 22.6639 134.787 23.1675C136.002 23.6712 137.126 24.0375 138.116 24.2206C138.61 24.3122 139.015 24.4495 139.42 24.4953C139.825 24.5411 140.139 24.5869 140.364 24.6785C140.319 24.6785 140.229 24.6785 140.184 24.6785C139.96 24.6785 139.69 24.6327 139.465 24.5869C139.24 24.5411 138.97 24.5411 138.745 24.4953C138.52 24.4495 138.25 24.4495 138.026 24.4038L137.666 24.358C137.531 24.358 137.441 24.3122 137.306 24.3122C137.081 24.2664 136.811 24.2206 136.586 24.1748C136.362 24.129 136.092 24.0833 135.867 24.0375C135.372 23.9459 134.922 23.8085 134.428 23.6712C134.203 23.6254 133.933 23.5338 133.708 23.488C133.483 23.3965 133.213 23.3507 132.989 23.2591C132.494 23.1218 132.044 22.9386 131.549 22.8013C130.605 22.4808 129.66 22.1145 128.761 21.7482C127.861 21.3819 126.917 20.9698 126.018 20.6036C125.118 20.1915 124.219 19.8252 123.319 19.4131C122.42 19.0011 121.565 18.6348 120.666 18.2685C118.957 17.4901 117.248 16.7576 115.628 16.1166C114.819 15.7961 114.009 15.5213 113.2 15.2466C112.39 14.9719 111.581 14.7888 110.816 14.6056C109.872 14.2851 108.972 14.1936 108.118 14.1478Z" fill="#FBA1AB"/>
<path d="M118.867 12.7284C119.002 12.7742 119.181 12.82 119.316 12.8658C119.451 12.9115 119.586 12.9573 119.721 13.0031C119.856 13.0489 119.991 13.0947 120.126 13.1405C120.396 13.232 120.666 13.2778 120.935 13.3236C121.07 13.3694 121.205 13.3694 121.34 13.4152C121.475 13.461 121.61 13.461 121.745 13.5067C121.835 13.5067 121.88 13.5525 121.97 13.5525L122.195 13.5983C122.33 13.5983 122.465 13.6441 122.6 13.6441C122.734 13.6441 122.869 13.6899 123.004 13.6899C123.139 13.6899 123.274 13.7357 123.409 13.7357C123.454 13.7357 123.454 13.7357 123.499 13.7357C123.364 13.6899 123.229 13.6441 123.049 13.6441C123.184 13.6441 123.364 13.6899 123.544 13.6899C123.589 13.7357 123.634 13.7357 123.679 13.7815C123.724 13.7815 123.814 13.7815 123.859 13.7815C123.994 13.7815 124.129 13.7815 124.264 13.8272H124.488H124.713C124.848 13.8272 124.983 13.8272 125.118 13.8272C125.658 13.8272 126.197 13.8272 126.737 13.7357C126.782 13.7357 126.872 13.7357 126.917 13.6899C126.962 13.6899 127.052 13.6899 127.097 13.6441C127.232 13.5983 127.367 13.5983 127.502 13.5525C127.637 13.5067 127.772 13.5067 127.861 13.461C127.906 13.461 127.996 13.4152 128.041 13.4152C128.086 13.4152 128.176 13.3694 128.221 13.3694C128.266 13.3694 128.356 13.3236 128.401 13.3236C128.446 13.3236 128.536 13.2778 128.581 13.2778C128.716 13.232 128.806 13.1862 128.941 13.1405C129.076 13.0947 129.166 13.0489 129.301 13.0031C129.391 12.9573 129.526 12.8657 129.615 12.82C129.66 12.7742 129.705 12.7742 129.795 12.7284C129.84 12.6826 129.885 12.6826 129.975 12.6368C130.02 12.591 130.065 12.591 130.155 12.5452C130.2 12.4995 130.245 12.4995 130.29 12.4537C130.38 12.4079 130.515 12.3163 130.605 12.2705C130.65 12.2248 130.695 12.2248 130.74 12.179C130.785 12.1332 130.83 12.1332 130.875 12.0874C130.92 12.0416 130.965 11.9958 131.01 11.9958C131.055 11.95 131.1 11.9043 131.145 11.9043C131.235 11.8127 131.324 11.7669 131.414 11.6753C131.594 11.4922 131.729 11.3548 131.864 11.1717C131.999 10.9885 132.134 10.8054 132.224 10.6223C132.314 10.4391 132.449 10.256 132.494 10.0728C132.584 9.88968 132.629 9.70654 132.719 9.47761C132.764 9.38604 132.764 9.29447 132.809 9.2029C132.809 9.11133 132.854 9.01976 132.854 8.92818C132.899 8.5619 132.899 8.19561 132.854 7.82933C132.809 7.50883 132.719 7.18833 132.629 6.91362C132.494 6.6389 132.359 6.40997 132.224 6.18105C132.089 5.95212 131.909 5.76898 131.729 5.58583C131.684 5.54005 131.639 5.49426 131.594 5.44848C131.549 5.40269 131.549 5.40269 131.504 5.40269L131.414 5.3569C131.369 5.31112 131.324 5.26533 131.28 5.26533L131.19 5.21955L131.1 5.17376C130.875 5.0364 130.65 4.94483 130.425 4.85326C130.2 4.76169 129.93 4.67012 129.705 4.62433C129.211 4.53276 128.716 4.48698 128.221 4.53276C127.996 4.53276 127.727 4.57855 127.502 4.62433C127.367 4.62433 127.277 4.67012 127.142 4.71591C127.097 4.71591 127.007 4.76169 126.962 4.76169C126.917 4.76169 126.872 4.80748 126.782 4.80748C125.883 5.08219 125.118 5.58583 124.668 6.22683C124.623 6.27262 124.623 6.3184 124.578 6.36419L124.533 6.40997L124.488 6.45576C124.443 6.50155 124.443 6.54733 124.398 6.59312C124.398 6.6389 124.353 6.68469 124.353 6.73047L124.309 6.77626C124.309 6.77626 124.309 6.82204 124.264 6.82204C124.264 6.86783 124.219 6.91362 124.219 6.9594C124.219 7.00519 124.174 7.05097 124.174 7.09676V7.14254V7.18833C124.174 7.23412 124.174 7.2799 124.129 7.32569C124.129 7.37147 124.129 7.41726 124.129 7.46304V7.50883V7.55462C124.129 7.6004 124.129 7.64619 124.129 7.69197C124.129 7.73776 124.129 7.78354 124.129 7.82933V7.87512V7.9209C124.129 7.96669 124.129 8.01247 124.129 8.05826C124.129 8.10404 124.129 8.14983 124.129 8.19561V8.2414V8.28719C124.129 8.33297 124.129 8.37876 124.174 8.42454C124.174 8.47033 124.219 8.51611 124.219 8.5619V8.60769C124.219 8.60769 124.219 8.65347 124.264 8.65347C124.264 8.69926 124.309 8.74504 124.309 8.79083C124.309 8.83661 124.353 8.8824 124.353 8.8824C124.398 8.97397 124.443 9.01976 124.488 9.11133C124.668 9.38604 124.848 9.61497 125.073 9.75233C125.298 9.93547 125.523 10.027 125.748 10.1186C125.973 10.2102 126.197 10.256 126.377 10.256C126.422 10.256 126.422 10.256 126.467 10.256C126.512 10.256 126.512 10.256 126.557 10.256C126.602 10.256 126.647 10.256 126.692 10.256C126.737 10.256 126.737 10.256 126.782 10.256C126.422 10.0728 126.152 9.66076 126.197 9.2029C126.242 8.60769 126.737 8.19561 127.322 8.28719C127.861 8.33297 128.266 8.8824 128.221 9.43183C128.176 9.93547 127.772 10.3475 127.277 10.3933C127.232 10.3933 127.232 10.3933 127.187 10.4391C127.142 10.4849 127.052 10.4849 126.962 10.5307C126.872 10.5765 126.782 10.5765 126.692 10.5765C126.647 10.5765 126.602 10.5765 126.557 10.5765C126.512 10.5765 126.512 10.5765 126.467 10.5765C126.422 10.5765 126.422 10.5765 126.377 10.5765C126.152 10.5765 125.928 10.5765 125.658 10.5307C125.388 10.4849 125.118 10.3475 124.848 10.1644C124.578 9.98126 124.309 9.75233 124.129 9.43183C124.084 9.34026 124.039 9.29447 123.994 9.2029C123.949 9.15711 123.949 9.11133 123.904 9.06554C123.904 9.01976 123.859 8.97397 123.859 8.92818C123.859 8.92818 123.859 8.8824 123.814 8.83661L123.769 8.74504C123.769 8.69926 123.724 8.65347 123.724 8.60769C123.724 8.5619 123.679 8.51611 123.679 8.47033V8.37876C123.679 8.33297 123.679 8.33297 123.679 8.28719C123.679 8.2414 123.679 8.19561 123.634 8.14983C123.634 8.10404 123.634 8.05826 123.634 7.96669V7.87512C123.634 7.82933 123.634 7.82933 123.634 7.78354C123.634 7.73776 123.634 7.69197 123.634 7.6004C123.634 7.55462 123.634 7.50883 123.634 7.41726V7.32569V7.23412C123.634 7.18833 123.634 7.14254 123.634 7.05097C123.634 7.00519 123.634 6.9594 123.679 6.86783C123.679 6.82204 123.679 6.82205 123.679 6.77626L123.724 6.68469C123.724 6.6389 123.769 6.59312 123.769 6.50155C123.769 6.45576 123.814 6.40997 123.814 6.3184C123.814 6.27262 123.814 6.27262 123.859 6.22683L123.904 6.13526C123.949 6.08947 123.949 6.04369 123.994 5.95212C124.039 5.90633 124.039 5.86055 124.084 5.81476L124.129 5.72319L124.174 5.63162C124.219 5.58583 124.219 5.54005 124.264 5.49426C124.398 5.31112 124.578 5.08219 124.758 4.94483C124.848 4.85326 124.938 4.76169 125.028 4.67012C125.073 4.62433 125.118 4.57855 125.163 4.53276C125.208 4.48698 125.253 4.44119 125.298 4.44119C125.343 4.39541 125.388 4.34962 125.478 4.34962C125.523 4.30383 125.568 4.30383 125.658 4.25805L125.748 4.21226L125.838 4.16648C125.883 4.12069 125.973 4.12069 126.018 4.07491C126.063 4.02912 126.152 4.02912 126.197 3.98333L126.287 3.93755L126.377 3.89176C126.422 3.84598 126.512 3.84598 126.557 3.80019C126.602 3.80019 126.692 3.75441 126.737 3.75441C126.782 3.75441 126.872 3.70862 126.917 3.70862C126.962 3.70862 127.052 3.66284 127.097 3.66284C127.232 3.61705 127.367 3.61705 127.502 3.57126C127.772 3.52548 128.041 3.47969 128.311 3.47969C128.851 3.43391 129.391 3.47969 129.975 3.57126C130.245 3.61705 130.515 3.70862 130.83 3.80019C131.1 3.89176 131.369 4.02912 131.639 4.21226L131.729 4.25805L131.819 4.30383C131.864 4.34962 131.954 4.39541 131.999 4.44119L132.089 4.53276C132.134 4.57855 132.134 4.57855 132.179 4.62433C132.224 4.67012 132.269 4.71591 132.359 4.76169C132.584 4.99062 132.809 5.21955 132.989 5.49426C133.168 5.76898 133.348 6.04369 133.483 6.40997C133.618 6.77626 133.708 7.14254 133.798 7.55462C133.888 8.37876 133.753 9.34026 133.393 10.2102C133.303 10.4391 133.168 10.668 133.078 10.8512C132.944 11.0801 132.809 11.2633 132.674 11.4464C132.539 11.6295 132.359 11.8127 132.179 11.9958C132.089 12.0874 131.999 12.179 131.909 12.2705C131.864 12.3163 131.819 12.3621 131.774 12.4079C131.729 12.4537 131.684 12.4995 131.639 12.5452C131.594 12.591 131.549 12.6368 131.459 12.6826C131.414 12.7284 131.369 12.7742 131.28 12.7742C131.19 12.82 131.055 12.9115 130.965 12.9573C130.92 13.0031 130.875 13.0489 130.785 13.0489C130.74 13.0947 130.65 13.0947 130.605 13.1405C130.56 13.1862 130.47 13.1862 130.425 13.232C130.38 13.2778 130.29 13.2778 130.245 13.3236C130.11 13.3694 130.02 13.461 129.885 13.5067C129.75 13.5525 129.66 13.5983 129.526 13.6899C129.391 13.7357 129.256 13.7815 129.166 13.8272C129.121 13.873 129.031 13.873 128.986 13.9188C128.941 13.9646 128.851 13.9646 128.806 13.9646C128.761 13.9646 128.671 14.0104 128.626 14.0104C128.581 14.0104 128.491 14.0562 128.446 14.0562C128.311 14.102 128.176 14.102 128.041 14.1477C127.906 14.1935 127.772 14.1935 127.637 14.2393C127.547 14.2393 127.502 14.2393 127.412 14.2851C127.322 14.2851 127.277 14.2851 127.187 14.3309C126.647 14.3767 126.063 14.4225 125.478 14.3767C125.343 14.3767 125.208 14.3767 125.073 14.3767H124.848H124.623C124.488 14.3767 124.354 14.3309 124.219 14.3309C124.084 14.3309 123.949 14.2851 123.814 14.2851C123.679 14.2851 123.544 14.2393 123.409 14.2393C123.274 14.2393 123.139 14.1935 123.004 14.1935C122.869 14.1935 122.734 14.1477 122.555 14.1477L122.33 14.102C122.24 14.102 122.195 14.0562 122.105 14.0562C121.97 14.0104 121.835 14.0104 121.655 13.9646C121.52 13.9188 121.385 13.9188 121.25 13.873C120.98 13.8272 120.666 13.7357 120.396 13.6441C120.261 13.5983 120.126 13.5525 119.991 13.5067C119.856 13.461 119.721 13.4152 119.586 13.3694C119.316 13.2778 119.047 13.1862 118.777 13.0947C118.597 13.0031 118.417 12.9573 118.192 12.8658C118.192 12.7284 118.147 12.6368 118.147 12.4995C118.147 12.591 118.507 12.6368 118.867 12.7284Z" fill="#FBA1AB"/>
<path d="M99.7976 28.5244C100.472 31.18 102.361 34.0187 105.689 34.0187C109.197 34.0187 112.255 31.7294 111.311 28.2497C110.501 25.1363 107.263 23.1675 104.07 24.77C103.89 24.8616 103.8 24.9989 103.755 25.1363C103.71 25.2279 103.665 25.2737 103.62 25.3652C102.901 26.6014 103.935 28.2955 105.464 28.9823C106.589 29.4859 108.163 29.7607 109.287 29.3028C109.512 30.2185 109.377 31.3174 108.747 31.8668C108.523 32.0957 108.433 32.1873 108.478 32.4162C108.298 32.5078 108.118 32.5994 107.893 32.6452C106.544 33.0572 104.925 33.1946 103.62 32.462C100.742 30.7679 100.247 26.8304 100.652 24.0374C101.192 20.4204 103.8 17.2612 107.938 16.7117C108.163 16.666 108.388 16.666 108.568 16.666C108.613 16.666 108.658 16.7117 108.747 16.7117C110.906 16.9865 113.335 17.719 114.774 19.3673C115.988 20.7409 117.427 22.847 116.438 24.4037C115.449 25.9147 116.888 25.3194 117.293 24.9989C118.282 24.2206 118.597 23.1217 118.732 21.9771C119.946 23.9459 121.25 26.0978 123.679 26.8304C126.018 27.5172 128.851 27.5172 130.83 26.0978C131.1 25.9147 131.235 25.5942 131.055 25.411C131.055 25.1821 130.74 24.9989 130.425 24.9989C127.547 24.9074 124.938 23.5338 122.6 22.0687C120.126 20.512 117.742 18.7721 115.134 17.4443C112.885 16.2997 110.277 15.384 107.713 15.796C105.195 16.1623 102.496 17.6275 101.147 19.5962C99.4378 22.1144 99.0331 25.5484 99.7976 28.5244ZM105.195 27.0593L105.15 27.0135C105.15 27.0135 105.15 27.0135 105.195 27.0593C105.15 27.0593 105.15 27.0593 105.195 27.0593Z" fill="#FBA1AB"/>
<path d="M163.841 6.22681C163.841 6.22681 165.145 9.98123 163.841 11.7669C163.841 11.7669 185.069 6.68466 200.045 6.22681H163.841Z" fill="#FBA1AB"/>
<path d="M36.2042 6.22681C36.2042 6.22681 34.8999 9.98123 36.2042 11.7669C36.2042 11.7669 14.9764 6.68466 0 6.22681H36.2042Z" fill="#FBA1AB"/>
</g>
<defs>
<clipPath id="clip0">
<rect width="200" height="44" fill="white"/>
</clipPath>
</defs>
</svg>
