<svg width="91" height="20" viewBox="0 0 91 20" fill="none" xmlns="http://www.w3.org/2000/svg">
<g clip-path="url(#clip0)">
<path d="M45.199 15.4629L44.1564 17.7106C44.5857 18.2933 45.1581 19.875 45.1581 19.875L45.199 20.0206L45.2399 19.875C45.2399 19.875 45.8123 18.2933 46.2416 17.7106L45.199 15.4629Z" fill="#FBA1AB"/>
<path d="M50.2688 4.68242C50.371 4.6408 50.4528 4.55755 50.4732 4.41187C50.5141 4.26619 50.4937 4.07888 50.4119 3.87077C50.3097 3.66265 50.1257 3.43372 49.86 3.26723C49.5942 3.10073 49.2262 3.01749 48.8991 3.0383C48.7152 3.0383 48.5107 3.10073 48.2859 3.18398C48.061 3.28804 47.8157 3.43372 47.6113 3.62103C47.3864 3.80833 47.2024 4.03726 47.0593 4.287C46.9162 4.53674 46.7935 4.80729 46.7118 5.05703C46.63 5.32758 46.6096 5.57732 46.5891 5.80625C46.5891 5.93112 46.5891 6.03518 46.5891 6.13924C46.5891 6.24329 46.6096 6.32654 46.6096 6.4306C46.63 6.51385 46.63 6.59709 46.6504 6.65953C46.6709 6.72196 46.6913 6.7844 46.6913 6.82602C46.7322 6.93008 46.7527 6.9717 46.7731 6.9717C46.7935 6.9717 46.8344 6.93008 46.8549 6.82602C46.8958 6.72196 46.9366 6.59709 46.998 6.47222C47.0184 6.38898 47.0593 6.32654 47.1002 6.24329C47.1411 6.16005 47.182 6.0768 47.2228 5.99355C47.3046 5.82706 47.4273 5.63976 47.5499 5.49407C47.6726 5.32758 47.8157 5.1819 47.9588 5.07784C48.1019 4.95297 48.245 4.86972 48.3881 4.80729C48.5312 4.74486 48.6538 4.70323 48.756 4.70323C48.7765 4.70323 48.7969 4.70323 48.8378 4.70323C48.8583 4.70323 48.8787 4.70323 48.8991 4.70323C48.9196 4.70323 48.94 4.70323 48.9605 4.70323C48.9809 4.70323 49.0014 4.70323 49.0014 4.70323C49.124 4.70323 49.2058 4.68242 49.308 4.68242C49.4102 4.68242 49.492 4.68242 49.6146 4.68242C49.8191 4.68242 50.0644 4.76567 50.2688 4.68242Z" fill="#FBA1AB"/>
<path d="M46.814 2.78891C46.2007 4.22492 46.0372 6.22284 46.0167 6.49339C46.0167 6.5142 45.9963 6.5142 45.9963 6.5142L45.383 7.20098C45.3012 7.28423 45.1581 7.28423 45.0763 7.20098L44.4631 6.5142C44.4426 6.5142 44.4426 6.49339 44.4426 6.49339C44.4222 6.22284 44.2791 4.3706 43.6454 2.78891C43.6454 2.7681 44.8924 0.499632 45.1786 0.0209636C45.199 -0.0206597 45.2603 -0.0206597 45.2808 0.0209636C45.567 0.520443 46.814 2.78891 46.814 2.78891Z" fill="#FBA1AB"/>
<path d="M40.1292 4.68242C40.027 4.6408 39.9452 4.55755 39.9248 4.41187C39.8839 4.26619 39.9043 4.07888 39.9861 3.87077C40.0883 3.66265 40.2723 3.43372 40.5381 3.26723C40.8038 3.10073 41.1718 3.01749 41.4989 3.0383C41.6829 3.0383 41.8873 3.10073 42.1121 3.18398C42.337 3.28804 42.5823 3.43372 42.7868 3.62103C43.0116 3.80833 43.1956 4.03726 43.3387 4.287C43.4818 4.53674 43.6045 4.80729 43.6862 5.05703C43.768 5.32758 43.7885 5.57732 43.8089 5.80625C43.8089 5.93112 43.8089 6.03518 43.8089 6.13924C43.8089 6.24329 43.7885 6.32654 43.7885 6.4306C43.768 6.51385 43.768 6.59709 43.7476 6.65953C43.7271 6.72196 43.7067 6.7844 43.7067 6.82602C43.6658 6.93008 43.6454 6.9717 43.6249 6.9717C43.6045 6.9717 43.5636 6.93008 43.5431 6.82602C43.5023 6.72196 43.4614 6.59709 43.4 6.47222C43.3796 6.38898 43.3387 6.32654 43.2978 6.24329C43.2569 6.16005 43.2161 6.0768 43.1752 5.99355C43.0934 5.82706 42.9707 5.63976 42.8481 5.49407C42.7254 5.32758 42.5823 5.1819 42.4392 5.07784C42.2961 4.95297 42.153 4.86972 42.0099 4.80729C41.8668 4.74486 41.7442 4.70323 41.642 4.70323C41.6215 4.70323 41.6011 4.70323 41.5602 4.70323C41.5398 4.70323 41.5193 4.70323 41.4989 4.70323C41.4784 4.70323 41.458 4.70323 41.4375 4.70323C41.4171 4.70323 41.3967 4.70323 41.3967 4.70323C41.274 4.70323 41.1922 4.68242 41.09 4.68242C40.9878 4.68242 40.906 4.68242 40.7834 4.68242C40.5789 4.68242 40.3336 4.76567 40.1292 4.68242Z" fill="#FBA1AB"/>
<path d="M45.2399 7.47119L44.4631 8.22041C44.6062 8.40772 45.2399 9.51073 45.2399 9.51073C45.2399 9.51073 45.8327 8.42853 45.9758 8.22041L45.2399 7.47119Z" fill="#FBA1AB"/>
<path d="M41.9895 6.59707C42.0508 6.61788 42.0917 6.61788 42.153 6.63869C42.3575 6.70113 42.5619 6.76356 42.7254 6.80519C42.889 6.84681 43.0525 6.88843 43.1547 6.93006C43.2978 6.97168 43.4205 6.99249 43.4818 7.0133C43.4205 6.99249 43.3183 6.95087 43.1752 6.88843C43.0934 6.86762 43.0116 6.826 42.9299 6.78438C42.9094 6.78438 42.9094 6.76356 42.889 6.74275C42.8685 6.72194 42.8481 6.72194 42.8277 6.70113C42.8481 6.70113 42.8685 6.70113 42.889 6.72194C43.1139 6.78438 43.3183 6.86762 43.4818 6.97168V6.95087C43.5023 6.90925 43.5023 6.88843 43.5227 6.86762C43.3387 6.74275 43.1343 6.65951 42.9094 6.57626C42.7868 6.53464 42.6437 6.51382 42.521 6.49301C42.337 6.36814 42.0713 6.22246 41.7442 6.05597C41.7033 6.03516 41.642 6.01434 41.6011 5.99353C41.5398 5.97272 41.4989 5.95191 41.4375 5.9311C41.3353 5.88948 41.2127 5.84785 41.09 5.80623C40.8447 5.72298 40.5789 5.63974 40.3132 5.5773C40.027 5.51487 39.7408 5.45243 39.4137 5.43162C39.2502 5.41081 39.0866 5.41081 38.9231 5.41081C38.8413 5.41081 38.7595 5.41081 38.6778 5.41081C38.596 5.41081 38.5142 5.43162 38.4325 5.43162C37.533 5.51487 36.6948 5.74379 36.0202 5.97272C35.3456 6.22246 34.7936 6.45139 34.4257 6.63869C34.2417 6.70113 33.9964 6.78438 33.7306 6.88843C33.4649 6.99249 33.1582 7.11736 32.8311 7.26304C32.504 7.40873 32.1565 7.59603 31.7885 7.78334C31.4206 7.99145 31.0322 8.19957 30.6437 8.4285C30.3575 8.59499 30.0918 8.76148 29.826 8.92798C29.5603 9.09447 29.315 9.28177 29.0901 9.46908C28.8652 9.65638 28.6608 9.82288 28.4564 9.98937C28.2519 10.1559 28.068 10.3015 27.884 10.4264C27.5364 10.6762 27.2298 10.8426 27.0049 10.9259C26.9436 10.9467 26.9027 10.9675 26.8618 10.9883C26.8209 11.0091 26.7801 11.0091 26.7596 11.03C26.6983 11.0508 26.6574 11.0508 26.6574 11.0508C26.6574 11.0508 26.6983 11.0508 26.7596 11.03C26.8005 11.03 26.8209 11.0091 26.8823 11.0091C26.9232 10.9883 26.9845 10.9883 27.0458 10.9675C27.2707 10.9051 27.6182 10.7594 27.9862 10.5513C28.1702 10.4472 28.3746 10.3015 28.5995 10.1559C28.8039 10.0102 29.0288 9.84369 29.2741 9.6772C29.499 9.5107 29.7443 9.34421 30.01 9.17772C30.2758 9.01122 30.562 8.84473 30.8482 8.67824C31.2366 8.44931 31.6046 8.24119 31.9725 8.01226C32.3405 7.82496 32.6676 7.61684 32.9947 7.45035C33.3218 7.28386 33.608 7.13817 33.8533 7.0133C34.119 6.86762 34.3439 6.76356 34.5279 6.68032C34.9163 6.55545 35.4682 6.36814 36.1633 6.18084C36.8584 5.99353 37.6556 5.80623 38.5347 5.74379C38.6164 5.74379 38.6982 5.72298 38.78 5.72298C38.8617 5.72298 38.9435 5.72298 39.0253 5.72298C39.1888 5.72298 39.3319 5.72298 39.475 5.74379C39.7817 5.76461 40.0679 5.80623 40.3336 5.84785C40.5994 5.88948 40.8651 5.97272 41.1105 6.03516C41.2331 6.07678 41.3558 6.09759 41.458 6.13921C41.5193 6.16003 41.5602 6.18084 41.6215 6.20165C41.6829 6.22246 41.7237 6.24327 41.7851 6.26408C42.0099 6.34733 42.2144 6.43058 42.3984 6.51382C42.3166 6.51382 42.2348 6.49301 42.153 6.49301C41.7646 6.34733 41.2944 6.20165 40.7629 6.13921C40.6812 6.1184 40.6198 6.1184 40.5381 6.1184C40.4563 6.1184 40.3745 6.09759 40.3132 6.09759C40.1496 6.09759 40.0065 6.07678 39.843 6.09759C39.5159 6.09759 39.1888 6.13921 38.8413 6.18084C37.9214 6.32652 37.0832 6.61788 36.3882 6.86762C36.0406 6.99249 35.734 7.13817 35.4478 7.24223C35.3047 7.30467 35.182 7.34629 35.0594 7.40873C34.9367 7.47116 34.8345 7.51278 34.7323 7.55441C34.6301 7.59603 34.5279 7.61684 34.4052 7.65847C34.2826 7.70009 34.1599 7.76252 34.0168 7.80415C33.7306 7.90821 33.424 8.05389 33.0969 8.19957C32.4223 8.51174 31.6454 8.92798 30.8482 9.38583C30.2553 9.71882 29.6829 10.031 29.1719 10.3015C28.6404 10.5513 28.1497 10.7386 27.7409 10.8843C27.5364 10.9467 27.332 11.0091 27.1685 11.0508C27.0049 11.0924 26.8414 11.134 26.7392 11.1964C26.6983 11.2173 26.6778 11.2381 26.637 11.2589C26.5961 11.2589 26.5348 11.2589 26.4939 11.2797C26.3917 11.2797 26.269 11.3005 26.1668 11.3005H26.0032H25.8397C25.7375 11.3005 25.6148 11.3005 25.5126 11.3005C25.0833 11.3005 24.654 11.2797 24.2452 11.2381C24.1838 11.2381 24.1429 11.2173 24.0816 11.2173C24.0203 11.2173 23.9794 11.1964 23.9181 11.1964C23.8159 11.1756 23.7136 11.1548 23.6114 11.134C23.5092 11.1132 23.407 11.0924 23.3048 11.0508C23.2639 11.03 23.2026 11.03 23.1617 11.0091C23.1208 10.9883 23.0595 10.9883 23.0186 10.9675C22.9777 10.9467 22.9164 10.9467 22.8755 10.9259C22.8346 10.9051 22.7733 10.8843 22.7324 10.8635C22.6302 10.8218 22.5484 10.801 22.4462 10.7594C22.3644 10.7178 22.2622 10.6762 22.1804 10.6345C22.0987 10.5929 21.9964 10.5513 21.9147 10.4889C21.8738 10.468 21.8329 10.4472 21.792 10.4264C21.7511 10.4056 21.7103 10.3848 21.6694 10.3432C21.6285 10.3224 21.5876 10.3015 21.5467 10.2599C21.5058 10.2391 21.4649 10.1975 21.4241 10.1767C21.3423 10.1142 21.2605 10.0726 21.1787 10.0102C21.1379 9.98937 21.097 9.94775 21.0561 9.92694C21.0152 9.90612 20.9743 9.8645 20.9539 9.84369C20.913 9.82288 20.8721 9.78125 20.8517 9.76044C20.8108 9.73963 20.7903 9.69801 20.7494 9.6772C20.6881 9.61476 20.6268 9.55233 20.545 9.48989C20.4224 9.36502 20.2997 9.21934 20.1975 9.09447C20.0953 8.94879 19.9931 8.80311 19.9113 8.65742C19.8295 8.51174 19.7477 8.36606 19.6864 8.19957C19.6251 8.05389 19.5638 7.88739 19.5229 7.74171C19.5024 7.65847 19.482 7.59603 19.4615 7.51278C19.4411 7.42954 19.4207 7.3671 19.4207 7.28386C19.3798 6.99249 19.3798 6.70113 19.4002 6.43058C19.4411 6.16003 19.5024 5.91029 19.5842 5.68136C19.666 5.45243 19.7886 5.26513 19.9113 5.09863C20.0339 4.93214 20.177 4.76565 20.3201 4.61996C20.361 4.57834 20.4019 4.55753 20.4428 4.51591C20.4632 4.49509 20.4837 4.47428 20.5041 4.47428L20.5655 4.43266C20.6063 4.39104 20.6472 4.37022 20.6881 4.34941L20.7494 4.30779L20.8108 4.26617C20.9743 4.16211 21.1583 4.07886 21.3423 3.99561C21.5263 3.93318 21.7103 3.87074 21.9147 3.82912C22.3031 3.74587 22.6915 3.72506 23.0799 3.74588C23.2639 3.76669 23.4683 3.76669 23.6523 3.80831C23.7545 3.82912 23.8363 3.84993 23.9181 3.87075C23.959 3.87075 23.9998 3.89156 24.0612 3.91237C24.1021 3.93318 24.1429 3.93318 24.1838 3.95399C24.8789 4.16211 25.4922 4.55753 25.8806 5.07782C25.901 5.11944 25.9215 5.14026 25.9419 5.18188L25.9828 5.2235L26.0032 5.26513C26.0237 5.30675 26.0441 5.32756 26.0646 5.36918C26.085 5.41081 26.1055 5.43162 26.1259 5.47324L26.1463 5.51487C26.1463 5.53568 26.1668 5.55649 26.1668 5.5773C26.1872 5.61892 26.1872 5.63974 26.2077 5.68136C26.2281 5.72298 26.2281 5.74379 26.2485 5.78542L26.269 5.84785C26.269 5.86866 26.269 5.88948 26.2894 5.91029C26.2894 5.95191 26.3099 5.97272 26.3099 6.01434C26.3099 6.05597 26.3303 6.09759 26.3303 6.1184V6.18084V6.24327C26.3303 6.2849 26.3303 6.30571 26.3303 6.34733C26.3303 6.38895 26.3303 6.40977 26.3303 6.45139C26.3303 6.4722 26.3303 6.49301 26.3303 6.51382V6.57626C26.3303 6.61788 26.3303 6.63869 26.3303 6.68032C26.3303 6.72194 26.3099 6.74275 26.3099 6.78438C26.3099 6.80519 26.3099 6.826 26.3099 6.826L26.2894 6.86762C26.2894 6.90925 26.269 6.93006 26.269 6.97168C26.269 7.0133 26.2485 7.03412 26.2485 7.07574L26.2281 7.11736C26.2281 7.13817 26.2077 7.13817 26.2077 7.15899C26.1872 7.1798 26.1872 7.22142 26.1668 7.24223C26.1463 7.26304 26.1463 7.30467 26.1259 7.32548C26.1055 7.38791 26.0646 7.42954 26.0441 7.49197C25.9215 7.70009 25.7579 7.88739 25.5944 8.01226C25.4308 8.13713 25.2469 8.24119 25.0629 8.30363C24.8789 8.36606 24.7153 8.38687 24.5722 8.40769C24.5518 8.40769 24.5314 8.40769 24.5109 8.40769C24.4905 8.40769 24.47 8.40769 24.4496 8.40769C24.4087 8.40769 24.3678 8.40769 24.3474 8.40769C24.3269 8.40769 24.3065 8.40769 24.286 8.40769C24.5722 8.262 24.7767 7.92902 24.7358 7.57522C24.6949 7.11736 24.286 6.78438 23.8567 6.826C23.407 6.86762 23.1004 7.28386 23.1412 7.74171C23.1821 8.15795 23.5092 8.47012 23.8772 8.49093C23.8976 8.49093 23.9181 8.51174 23.9385 8.51174C23.9998 8.53256 24.0407 8.55337 24.1021 8.57418C24.1634 8.59499 24.2452 8.6158 24.3065 8.63661C24.3474 8.63661 24.3883 8.65742 24.4291 8.65742C24.4496 8.65742 24.47 8.65742 24.4905 8.65742C24.5109 8.65742 24.5314 8.65742 24.5518 8.65742C24.7358 8.67824 24.9198 8.65742 25.1242 8.6158C25.3286 8.57418 25.5535 8.47012 25.7579 8.32444C25.9624 8.17876 26.1668 7.99145 26.3303 7.74171C26.3712 7.67928 26.4121 7.61684 26.453 7.55441C26.4734 7.51278 26.4939 7.49197 26.5143 7.45035C26.5347 7.40873 26.5552 7.38791 26.5552 7.34629C26.5552 7.32548 26.5756 7.30467 26.5756 7.28386L26.5961 7.22142C26.6165 7.1798 26.6165 7.13817 26.637 7.09655C26.6574 7.05493 26.6574 7.0133 26.6778 6.97168L26.6983 6.90925C26.6983 6.88843 26.6983 6.86762 26.7187 6.84681C26.7187 6.80519 26.7392 6.76356 26.7392 6.72194C26.7392 6.68032 26.7596 6.63869 26.7596 6.59707V6.53464C26.7596 6.51382 26.7596 6.49301 26.7596 6.4722C26.7596 6.43058 26.7596 6.38895 26.7596 6.34733C26.7596 6.30571 26.7596 6.26408 26.7596 6.22246V6.16003V6.09759C26.7596 6.05597 26.7596 6.01435 26.7392 5.95191C26.7392 5.91029 26.7187 5.86866 26.7187 5.80623C26.7187 5.78542 26.7187 5.76461 26.6983 5.74379L26.6778 5.68136C26.6574 5.63974 26.6574 5.59811 26.637 5.53568C26.6165 5.49405 26.5961 5.45243 26.5961 5.41081C26.5961 5.39 26.5756 5.36918 26.5756 5.34837L26.5552 5.28594C26.5347 5.24431 26.5143 5.20269 26.4939 5.16107C26.4734 5.11944 26.453 5.07782 26.4325 5.0362L26.3917 4.97376L26.3508 4.91133C26.3303 4.8697 26.2894 4.82808 26.269 4.78646C26.1463 4.61996 26.0237 4.47428 25.8806 4.34941C25.8193 4.28698 25.7375 4.22454 25.6557 4.1413C25.6148 4.09967 25.5739 4.07886 25.5331 4.05805C25.4922 4.03724 25.4513 3.99561 25.4104 3.9748C25.3695 3.95399 25.3286 3.91237 25.2877 3.89156C25.2469 3.87075 25.206 3.82912 25.1651 3.80831L25.1038 3.76669L25.0424 3.72506C25.0015 3.70425 24.9607 3.68344 24.8993 3.66263C24.8584 3.64182 24.7971 3.621 24.7562 3.60019L24.6949 3.55857L24.6336 3.53776C24.5927 3.51695 24.5314 3.49614 24.4905 3.47532C24.4496 3.45451 24.3883 3.4337 24.3474 3.4337C24.3065 3.41289 24.2452 3.39208 24.2043 3.39208C24.1634 3.37127 24.1021 3.37127 24.0612 3.35045C23.959 3.32964 23.8567 3.30883 23.7545 3.28802C23.5501 3.2464 23.3457 3.22558 23.1208 3.20477C22.6915 3.18396 22.2418 3.20477 21.8125 3.28802C21.5876 3.32964 21.3627 3.39208 21.1583 3.47532C20.9334 3.55857 20.729 3.66263 20.5246 3.7875L20.4428 3.82912L20.361 3.89156C20.3201 3.93318 20.2588 3.95399 20.2179 3.99561L20.1362 4.05805C20.1157 4.07886 20.0953 4.09967 20.0748 4.12048C20.0339 4.16211 19.9931 4.20373 19.9317 4.24535C19.7682 4.41185 19.5842 4.59915 19.4411 4.80727C19.298 5.01539 19.1549 5.24431 19.0527 5.53568C18.9505 5.80623 18.8483 6.1184 18.8278 6.45139C18.746 7.11736 18.8483 7.84577 19.1549 8.55337C19.2367 8.71986 19.3184 8.90716 19.4207 9.07366C19.5229 9.24015 19.6251 9.40664 19.7682 9.55233C19.8908 9.71882 20.0339 9.8645 20.177 10.0102C20.2588 10.0726 20.3201 10.1559 20.4019 10.2183C20.4428 10.2599 20.4837 10.2807 20.5246 10.3224C20.5655 10.364 20.6063 10.3848 20.6472 10.4264C20.6881 10.468 20.729 10.4888 20.7699 10.5097C20.8108 10.5305 20.8517 10.5721 20.8925 10.5929C20.9743 10.6553 21.0561 10.697 21.1583 10.7594C21.1992 10.7802 21.2401 10.8218 21.281 10.8426C21.3218 10.8635 21.3627 10.8843 21.4241 10.9259C21.4649 10.9467 21.5058 10.9675 21.5672 11.0091C21.608 11.03 21.6489 11.0716 21.7103 11.0924C21.8125 11.134 21.8942 11.1964 21.9965 11.2381C22.0987 11.2797 22.2009 11.3213 22.2826 11.3629C22.3849 11.4046 22.4871 11.4462 22.5893 11.4878C22.6302 11.5086 22.6915 11.5294 22.7528 11.5502C22.7937 11.5711 22.855 11.5919 22.9164 11.5919C22.9777 11.6127 23.0186 11.6335 23.0799 11.6335C23.1412 11.6543 23.1821 11.6751 23.2435 11.6751C23.3457 11.6959 23.4683 11.7167 23.5705 11.7584C23.6728 11.7792 23.7954 11.8 23.8976 11.8208C23.959 11.8416 23.9998 11.8416 24.0612 11.8416C24.1225 11.8416 24.1634 11.8624 24.2247 11.8624C24.6745 11.904 25.1242 11.9249 25.5739 11.904C25.6966 11.904 25.7988 11.8832 25.901 11.8832H26.0646L26.2281 11.8624C26.3303 11.8624 26.453 11.8416 26.5756 11.8416C26.6778 11.8208 26.8005 11.8208 26.9232 11.8C27.0458 11.7792 27.148 11.7792 27.2707 11.7584C27.3933 11.7375 27.4956 11.7375 27.6182 11.7167C27.7409 11.6959 27.8431 11.6751 27.9657 11.6751L28.1293 11.6543C28.1906 11.6543 28.2519 11.6335 28.2928 11.6127C28.4155 11.5919 28.5177 11.5711 28.6404 11.5502C28.763 11.5294 28.8652 11.4878 28.9879 11.467C29.2128 11.4254 29.4376 11.3421 29.6625 11.2797C29.7647 11.2589 29.8874 11.2173 29.9896 11.1756C30.0918 11.134 30.2145 11.1132 30.3167 11.0716C30.5415 10.9883 30.746 10.9259 30.9708 10.8426C31.4001 10.6762 31.8294 10.5097 32.2587 10.3224C32.688 10.1351 33.0969 9.94775 33.5057 9.76044C33.9146 9.57314 34.3235 9.38583 34.7119 9.19853C35.1207 9.01122 35.5091 8.82392 35.8975 8.65742C36.6744 8.30363 37.4308 7.92902 38.1667 7.61684C38.5347 7.47116 38.9026 7.32548 39.2502 7.20061C39.5977 7.07574 39.9657 6.97168 40.3132 6.88843C40.7629 6.63869 41.3967 6.57626 41.9895 6.59707ZM42.7459 6.68032C42.7868 6.70113 42.8277 6.72194 42.8685 6.74275C42.8685 6.74275 42.8685 6.74275 42.889 6.74275C42.8481 6.72194 42.8072 6.70113 42.7459 6.68032C42.705 6.65951 42.6641 6.65951 42.6437 6.63869C42.6846 6.65951 42.7254 6.68032 42.7459 6.68032ZM40.0474 6.59707C39.6999 6.68032 39.3319 6.76356 38.964 6.88843C38.596 7.0133 38.228 7.13817 37.8601 7.28386C37.1037 7.57522 36.3473 7.92902 35.5705 8.262C35.182 8.4285 34.7732 8.6158 34.3643 8.78229C33.9555 8.9696 33.5466 9.13609 33.1378 9.3234C32.7289 9.5107 32.3201 9.6772 31.8908 9.84369C31.4615 10.0102 31.0526 10.1767 30.6233 10.3224C30.4189 10.4056 30.194 10.468 29.9691 10.5305C29.8669 10.5721 29.7443 10.5929 29.6421 10.6345C29.5398 10.6553 29.4172 10.697 29.315 10.7178C29.0901 10.7802 28.8857 10.8426 28.6608 10.8843C28.5586 10.9051 28.4359 10.9259 28.3337 10.9467C28.2315 10.9675 28.1088 10.9883 28.0066 11.0091C27.9453 11.0091 27.9044 11.03 27.8431 11.03L27.6795 11.0508C27.5773 11.0716 27.4547 11.0716 27.3525 11.0924C27.2502 11.1132 27.1276 11.1132 27.0254 11.134C26.9232 11.1548 26.8005 11.1548 26.6983 11.1756C26.6779 11.1756 26.637 11.1756 26.6165 11.1756C26.7392 11.134 26.8823 11.1132 27.0458 11.0924C27.2298 11.0716 27.4138 11.03 27.6387 10.9675C28.068 10.8843 28.579 10.7178 29.1514 10.4889C29.7034 10.2391 30.2758 9.94775 30.8686 9.61476C31.6863 9.1569 32.4223 8.71986 33.0764 8.36606C33.4035 8.19957 33.6897 8.03308 33.9759 7.88739C34.119 7.82496 34.2417 7.76252 34.3439 7.70009C34.4666 7.63765 34.5688 7.59603 34.671 7.55441C34.7732 7.51278 34.8754 7.49197 34.9981 7.45035C35.1207 7.40873 35.2434 7.3671 35.3865 7.32548C35.6727 7.24223 35.9998 7.13817 36.3473 7.03412C37.0423 6.826 37.8805 6.57626 38.78 6.43058C39.1071 6.38895 39.4341 6.34733 39.7408 6.32652C39.9043 6.30571 40.0474 6.32652 40.211 6.30571C40.2927 6.30571 40.3541 6.30571 40.4358 6.30571C40.5176 6.30571 40.5789 6.30571 40.6607 6.30571C40.8651 6.32652 41.0696 6.34733 41.274 6.38895C40.8651 6.45139 40.4563 6.49301 40.0474 6.59707Z" fill="#FBA1AB"/>
<path d="M36.3473 5.78573C36.286 5.80654 36.2042 5.82735 36.1429 5.84817C36.0815 5.86898 36.0202 5.88979 35.9589 5.9106C35.8976 5.93141 35.8362 5.95222 35.7749 5.97304C35.6522 6.01466 35.5296 6.03547 35.4069 6.05628C35.3456 6.07709 35.2843 6.07709 35.2229 6.09791C35.1616 6.11872 35.1003 6.11872 35.039 6.13953C34.9981 6.13953 34.9776 6.16034 34.9367 6.16034L34.8345 6.18115C34.7732 6.18115 34.7119 6.20196 34.6505 6.20196C34.5892 6.20196 34.5279 6.22278 34.4666 6.22278C34.4052 6.22278 34.3439 6.24359 34.2826 6.24359C34.2621 6.24359 34.2621 6.24359 34.2417 6.24359C34.303 6.22278 34.3643 6.20196 34.4461 6.20196C34.3848 6.20196 34.303 6.22278 34.2212 6.22278C34.2008 6.24359 34.1804 6.24359 34.1599 6.2644C34.1395 6.2644 34.0986 6.2644 34.0781 6.2644C34.0168 6.2644 33.9555 6.2644 33.8942 6.28521H33.7919H33.6897C33.6284 6.28521 33.5671 6.28521 33.5057 6.28521C33.2604 6.28521 33.0151 6.28521 32.7698 6.24359C32.7494 6.24359 32.7085 6.24359 32.688 6.22278C32.6676 6.22278 32.6267 6.22277 32.6063 6.20196C32.5449 6.18115 32.4836 6.18115 32.4223 6.16034C32.361 6.13953 32.2996 6.13953 32.2587 6.11872C32.2383 6.11872 32.1974 6.09791 32.177 6.09791C32.1565 6.09791 32.1156 6.07709 32.0952 6.07709C32.0748 6.07709 32.0339 6.05628 32.0134 6.05628C31.993 6.05628 31.9521 6.03547 31.9317 6.03547C31.8703 6.01466 31.8294 5.99385 31.7681 5.97304C31.7068 5.95222 31.6659 5.93141 31.6046 5.9106C31.5637 5.88979 31.5024 5.84817 31.4615 5.82735C31.441 5.80654 31.4206 5.80654 31.3797 5.78573C31.3593 5.76492 31.3388 5.76492 31.2979 5.74411C31.2775 5.7233 31.257 5.7233 31.2162 5.70248C31.1957 5.68167 31.1753 5.68167 31.1548 5.66086C31.1139 5.64005 31.0526 5.59843 31.0117 5.57761C30.9913 5.5568 30.9708 5.5568 30.9504 5.53599C30.93 5.51518 30.9095 5.51518 30.8891 5.49437C30.8686 5.47356 30.8482 5.45274 30.8277 5.45274C30.8073 5.43193 30.7869 5.41112 30.7664 5.41112C30.7255 5.3695 30.6846 5.34869 30.6438 5.30706C30.562 5.22382 30.5007 5.16138 30.4393 5.07813C30.378 4.99489 30.3167 4.91164 30.2758 4.82839C30.2349 4.74515 30.1736 4.6619 30.1531 4.57865C30.1122 4.49541 30.0918 4.41216 30.0509 4.3081C30.0305 4.26648 30.0305 4.22486 30.01 4.18323C30.01 4.14161 29.9896 4.09999 29.9896 4.05836C29.9691 3.89187 29.9691 3.72538 29.9896 3.55888C30.01 3.4132 30.0509 3.26752 30.0918 3.14265C30.1531 3.01778 30.2145 2.91372 30.2758 2.80966C30.3371 2.70561 30.4189 2.62236 30.5007 2.53911C30.5211 2.5183 30.5415 2.49749 30.562 2.47668C30.5824 2.45587 30.5824 2.45587 30.6029 2.45587L30.6438 2.43505C30.6642 2.41424 30.6846 2.39343 30.7051 2.39343L30.746 2.37262L30.7869 2.35181C30.8891 2.28937 30.9913 2.24775 31.0935 2.20613C31.1957 2.1645 31.3184 2.12288 31.4206 2.10207C31.6455 2.06044 31.8703 2.03963 32.0952 2.06044C32.1974 2.06044 32.3201 2.08126 32.4223 2.10207C32.4836 2.10207 32.5245 2.12288 32.5858 2.14369C32.6063 2.14369 32.6471 2.1645 32.6676 2.1645C32.688 2.1645 32.7085 2.18531 32.7494 2.18531C33.1582 2.31018 33.5057 2.53911 33.7102 2.83048C33.7306 2.85129 33.7306 2.8721 33.7511 2.89291L33.7715 2.91372L33.7919 2.93453C33.8124 2.95535 33.8124 2.97616 33.8328 2.99697C33.8328 3.01778 33.8533 3.03859 33.8533 3.0594L33.8737 3.08021C33.8737 3.08021 33.8737 3.10103 33.8942 3.10103C33.8942 3.12184 33.9146 3.14265 33.9146 3.16346C33.9146 3.18427 33.935 3.20508 33.935 3.2259V3.24671V3.26752C33.935 3.28833 33.935 3.30914 33.9555 3.32995C33.9555 3.35077 33.9555 3.37158 33.9555 3.39239V3.4132V3.43401C33.9555 3.45482 33.9555 3.47564 33.9555 3.49645C33.9555 3.51726 33.9555 3.53807 33.9555 3.55888V3.57969V3.60051C33.9555 3.62132 33.9555 3.64213 33.9555 3.66294C33.9555 3.68375 33.9555 3.70456 33.9555 3.72538V3.74619V3.767C33.9555 3.78781 33.9555 3.80862 33.935 3.82943C33.935 3.85025 33.9146 3.87106 33.9146 3.89187V3.91268C33.9146 3.91268 33.9146 3.93349 33.8942 3.93349C33.8942 3.9543 33.8737 3.97512 33.8737 3.99593C33.8737 4.01674 33.8533 4.03755 33.8533 4.03755C33.8328 4.07917 33.8124 4.09999 33.7919 4.14161C33.7102 4.26648 33.6284 4.37054 33.5262 4.43297C33.424 4.51622 33.3218 4.55784 33.2195 4.59947C33.1173 4.64109 33.0151 4.6619 32.9333 4.6619C32.9129 4.6619 32.9129 4.6619 32.8925 4.6619C32.872 4.6619 32.872 4.6619 32.8516 4.6619C32.8311 4.6619 32.8107 4.6619 32.7902 4.6619C32.7698 4.6619 32.7698 4.6619 32.7494 4.6619C32.9129 4.57865 33.0356 4.39135 33.0151 4.18323C32.9947 3.91268 32.7698 3.72538 32.504 3.767C32.2587 3.78781 32.0748 4.03755 32.0952 4.28729C32.1156 4.51622 32.2996 4.70352 32.5245 4.72434C32.5449 4.72434 32.5449 4.72434 32.5654 4.74515C32.5858 4.76596 32.6267 4.76596 32.6676 4.78677C32.7085 4.80758 32.7494 4.80758 32.7902 4.80758C32.8107 4.80758 32.8311 4.80758 32.8516 4.80758C32.872 4.80758 32.872 4.80758 32.8925 4.80758C32.9129 4.80758 32.9129 4.80758 32.9333 4.80758C33.0356 4.80758 33.1378 4.80758 33.2604 4.78677C33.3831 4.76596 33.5057 4.70352 33.6284 4.62028C33.7511 4.53703 33.8737 4.43297 33.9555 4.28729C33.9759 4.24567 33.9964 4.22486 34.0168 4.18323C34.0373 4.16242 34.0373 4.14161 34.0577 4.1208C34.0577 4.09999 34.0781 4.07917 34.0781 4.05836C34.0781 4.05836 34.0781 4.03755 34.0986 4.01674L34.119 3.97512C34.119 3.9543 34.1395 3.93349 34.1395 3.91268C34.1395 3.89187 34.1599 3.87106 34.1599 3.85025V3.80862C34.1599 3.78781 34.1599 3.78781 34.1599 3.767C34.1599 3.74619 34.1599 3.72538 34.1804 3.70456C34.1804 3.68375 34.1804 3.66294 34.1804 3.62132V3.57969C34.1804 3.55888 34.1804 3.55888 34.1804 3.53807C34.1804 3.51726 34.1804 3.49645 34.1804 3.45482C34.1804 3.43401 34.1804 3.4132 34.1804 3.37158V3.32995V3.28833C34.1804 3.26752 34.1804 3.24671 34.1804 3.20508C34.1804 3.18427 34.1804 3.16346 34.1599 3.12184C34.1599 3.10103 34.1599 3.10103 34.1599 3.08021L34.1395 3.03859C34.1395 3.01778 34.119 2.99697 34.119 2.95534C34.119 2.93453 34.0986 2.91372 34.0986 2.8721C34.0986 2.85129 34.0986 2.85129 34.0781 2.83048L34.0577 2.78885C34.0373 2.76804 34.0373 2.74723 34.0168 2.70561C33.9964 2.68479 33.9964 2.66398 33.9759 2.64317L33.9555 2.60155L33.935 2.55992C33.9146 2.53911 33.9146 2.5183 33.8942 2.49749C33.8328 2.41424 33.7511 2.31018 33.6693 2.24775C33.6284 2.20613 33.5875 2.1645 33.5466 2.12288C33.5262 2.10207 33.5057 2.08126 33.4853 2.06044C33.4649 2.03963 33.4444 2.01882 33.424 2.01882C33.4035 1.99801 33.3831 1.9772 33.3422 1.9772C33.3218 1.95639 33.3013 1.95639 33.2604 1.93557L33.2195 1.91476L33.1787 1.89395C33.1582 1.87314 33.1173 1.87314 33.0969 1.85233C33.0764 1.83152 33.0356 1.83152 33.0151 1.8107L32.9742 1.78989L32.9333 1.76908C32.9129 1.74827 32.872 1.74827 32.8516 1.72746C32.8311 1.72746 32.7902 1.70665 32.7698 1.70665C32.7494 1.70665 32.7085 1.68583 32.688 1.68583C32.6676 1.68583 32.6267 1.66502 32.6063 1.66502C32.6063 1.68583 32.5654 1.66502 32.504 1.66502C32.3814 1.64421 32.2587 1.6234 32.1361 1.6234C31.8908 1.60259 31.6455 1.6234 31.3797 1.66502C31.257 1.68583 31.1344 1.72746 30.9913 1.76908C30.8686 1.8107 30.746 1.87314 30.6233 1.95639L30.5824 1.9772L30.5415 1.99801C30.5211 2.01882 30.4802 2.03963 30.4598 2.06044L30.4189 2.10207C30.3984 2.12288 30.3984 2.12288 30.378 2.14369C30.3576 2.1645 30.3371 2.18531 30.2962 2.20613C30.194 2.31018 30.0918 2.41424 30.01 2.53911C29.9283 2.66398 29.8465 2.78885 29.7852 2.95534C29.7238 3.12184 29.6829 3.28833 29.6421 3.47564C29.6012 3.85025 29.6625 4.28729 29.826 4.68271C29.8669 4.78677 29.9283 4.89083 29.9691 4.97408C30.0305 5.07813 30.0918 5.16138 30.1531 5.24463C30.2145 5.32787 30.2962 5.41112 30.378 5.49437C30.4189 5.53599 30.4598 5.57761 30.5007 5.61924C30.5211 5.64005 30.5415 5.66086 30.562 5.68167C30.5824 5.70248 30.6029 5.7233 30.6233 5.74411C30.6438 5.76492 30.6642 5.78573 30.7051 5.80654C30.7255 5.82735 30.746 5.84817 30.7869 5.84817C30.8277 5.86898 30.8891 5.9106 30.93 5.93141C30.9504 5.95222 30.9708 5.97304 31.0117 5.97304C31.0322 5.99385 31.0731 5.99385 31.0935 6.01466C31.1139 6.03547 31.1548 6.03547 31.1753 6.05628C31.1957 6.07709 31.2366 6.07709 31.257 6.09791C31.3184 6.11872 31.3593 6.16034 31.4206 6.18115C31.4819 6.20196 31.5228 6.22278 31.5841 6.2644C31.6455 6.28521 31.7068 6.30602 31.7477 6.32683C31.7681 6.34765 31.809 6.34765 31.8294 6.36846C31.8499 6.38927 31.8908 6.38927 31.9112 6.38927C31.9317 6.38927 31.9725 6.41008 31.993 6.41008C32.0134 6.41008 32.0543 6.43089 32.0747 6.43089C32.1361 6.4517 32.1974 6.4517 32.2587 6.47252C32.3201 6.49333 32.3814 6.49333 32.4427 6.51414C32.4836 6.51414 32.504 6.51414 32.5449 6.53495C32.5858 6.53495 32.6063 6.53495 32.6471 6.55576C32.8925 6.57657 33.1582 6.59739 33.424 6.57657C33.4853 6.57657 33.5466 6.57657 33.608 6.57657H33.7102H33.8124C33.8737 6.57657 33.935 6.55576 33.9964 6.55576C34.0577 6.55576 34.119 6.53495 34.1804 6.53495C34.2417 6.53495 34.303 6.51414 34.3643 6.51414C34.4257 6.51414 34.487 6.49333 34.5483 6.49333C34.6097 6.49333 34.671 6.47252 34.7528 6.47252L34.855 6.4517C34.8959 6.4517 34.9163 6.43089 34.9572 6.43089C35.0185 6.41008 35.0798 6.41008 35.1616 6.38927C35.2229 6.36846 35.2843 6.36846 35.3456 6.34765C35.4683 6.32683 35.6114 6.28521 35.734 6.24359C35.7953 6.22278 35.8567 6.20196 35.918 6.18115C35.9793 6.16034 36.0407 6.13953 36.102 6.11872C36.2246 6.07709 36.3473 6.03547 36.47 5.99385C36.5517 5.95222 36.6335 5.93141 36.7357 5.88979C36.7357 5.82735 36.7562 5.78573 36.7562 5.7233C36.6948 5.7233 36.5313 5.74411 36.3473 5.78573Z" fill="#FBA1AB"/>
<path d="M44.3813 8.88653C43.768 7.97082 42.5415 7.32566 41.3967 7.15916C40.2314 6.99267 39.0457 7.38809 38.0236 7.90838C36.8379 8.53273 35.7545 9.30277 34.6301 10.0104C33.5671 10.6763 32.3814 11.3007 31.0731 11.3423C30.93 11.3423 30.7869 11.4256 30.7869 11.5296C30.7255 11.6129 30.7869 11.7585 30.8891 11.8418C31.7886 12.487 33.0764 12.487 34.1395 12.1748C35.2434 11.8626 35.8567 10.8636 36.3882 9.96874C36.4291 10.489 36.5722 10.9885 37.0423 11.3423C37.2468 11.488 37.8805 11.7585 37.4308 11.0718C36.9606 10.3433 37.6147 9.38601 38.1871 8.78247C38.8413 8.03325 39.9452 7.70027 40.9265 7.5754C40.9469 7.5754 40.9878 7.55459 41.0083 7.55459C41.1105 7.55459 41.2127 7.5754 41.2944 7.5754C43.1752 7.80433 44.3609 9.26114 44.6062 10.9053C44.7902 12.1748 44.5857 13.9646 43.257 14.7346C42.6846 15.0676 41.9282 15.0052 41.3149 14.8179C41.2331 14.797 41.1309 14.7554 41.0491 14.7138C41.0696 14.6306 41.0287 14.5681 40.9265 14.4641C40.6403 14.2143 40.579 13.7148 40.6812 13.2986C41.1922 13.5067 41.9077 13.3819 42.4188 13.1529C43.1139 12.8407 43.584 12.0707 43.257 11.5088C43.2365 11.4672 43.2365 11.4256 43.1956 11.4047C43.1752 11.3423 43.1343 11.2799 43.0525 11.2383C41.5807 10.5098 40.1292 11.4256 39.7612 12.8199C39.3524 14.3808 40.7221 15.4422 42.3166 15.4422C43.8294 15.4422 44.688 14.1519 44.9946 12.9448C45.383 11.6129 45.1786 10.052 44.3813 8.88653ZM42.6028 12.2788C42.6028 12.2996 42.6028 12.2996 42.6028 12.2788C42.5823 12.2996 42.5823 12.2996 42.6028 12.2788Z" fill="#FBA1AB"/>
<path d="M50.3097 6.80494C50.6572 6.88819 51.0047 6.99224 51.3727 7.11711C51.7202 7.24198 52.0882 7.38766 52.4562 7.53335C53.1921 7.84552 53.9485 8.19932 54.7253 8.57393C55.1137 8.76123 55.5022 8.92773 55.911 9.11503C56.3199 9.30234 56.7083 9.48964 57.1171 9.67695C57.526 9.86425 57.9349 10.0516 58.3642 10.2389C58.7934 10.4262 59.2023 10.5927 59.652 10.7592C59.8769 10.8424 60.0813 10.9048 60.3062 10.9881C60.4084 11.0297 60.5311 11.0505 60.6333 11.0921C60.7355 11.1338 60.8582 11.1546 60.9604 11.1962C61.1853 11.2586 61.4101 11.3211 61.635 11.3835C61.7577 11.4043 61.8599 11.4459 61.9825 11.4667C62.1052 11.4876 62.2074 11.5084 62.3301 11.5292C62.3914 11.55 62.4527 11.55 62.4936 11.5708L62.6571 11.5916C62.7798 11.6124 62.882 11.6332 63.0047 11.6332C63.1273 11.6541 63.2295 11.6541 63.3522 11.6749C63.4748 11.6957 63.5771 11.6957 63.6997 11.7165C63.8224 11.7373 63.9246 11.7373 64.0472 11.7581C64.1699 11.7581 64.2721 11.7789 64.3948 11.7789L64.5583 11.7997H64.7219C64.8445 11.7997 64.9467 11.8205 65.0489 11.8205C65.4987 11.8414 65.9484 11.8205 66.3982 11.7789C66.4595 11.7789 66.5004 11.7581 66.5617 11.7581C66.623 11.7581 66.6639 11.7373 66.7253 11.7373C66.8275 11.7165 66.9501 11.6957 67.0523 11.6749C67.1546 11.6541 67.2772 11.6332 67.3794 11.5916C67.4408 11.5708 67.4816 11.5708 67.543 11.55C67.6043 11.5292 67.6452 11.5084 67.7065 11.5084C67.7678 11.4876 67.8087 11.4876 67.8701 11.4667C67.9314 11.4459 67.9723 11.4251 68.0336 11.4043C68.1358 11.3627 68.238 11.3419 68.3402 11.2794C68.4424 11.2378 68.5447 11.1962 68.6264 11.1546C68.7286 11.1129 68.8104 11.0505 68.9126 11.0089C68.9535 10.9881 69.0148 10.9673 69.0557 10.9256C69.0966 10.9048 69.1375 10.884 69.1988 10.8424C69.2397 10.8216 69.2806 10.8008 69.3419 10.7592C69.3828 10.7383 69.4237 10.6967 69.4646 10.6759C69.5464 10.6135 69.6281 10.5718 69.7303 10.5094C69.7712 10.4886 69.8121 10.447 69.853 10.4262C69.8939 10.4054 69.9348 10.3637 69.9757 10.3429C70.0165 10.3013 70.0574 10.2805 70.0983 10.2389C70.1392 10.1972 70.1801 10.1764 70.221 10.1348C70.3027 10.0724 70.3641 9.98912 70.4458 9.92669C70.5889 9.781 70.732 9.63532 70.8547 9.46883C70.9774 9.32315 71.0796 9.15665 71.2022 8.99016C71.3044 8.82367 71.3862 8.65718 71.468 8.46987C71.7746 7.76227 71.8768 7.03387 71.7951 6.36789C71.7542 6.03491 71.6724 5.72273 71.5702 5.45218C71.468 5.18163 71.3249 4.93189 71.1818 4.72377C71.0387 4.51566 70.8751 4.32835 70.6912 4.16186C70.6503 4.12024 70.6094 4.07861 70.5481 4.03699C70.5276 4.01618 70.5072 3.99537 70.4867 3.97455L70.405 3.91212C70.3641 3.8705 70.3027 3.82887 70.2619 3.80806L70.1801 3.74563L70.0983 3.704C69.8939 3.57913 69.669 3.47507 69.4646 3.39183C69.2397 3.30858 69.0148 3.24615 68.8104 3.20452C68.3607 3.12128 67.9314 3.10046 67.5021 3.12128C67.2977 3.14209 67.0728 3.1629 66.8684 3.20452C66.7661 3.22533 66.6639 3.24615 66.5617 3.26696C66.5208 3.28777 66.4595 3.28777 66.4186 3.30858C66.3777 3.32939 66.3164 3.32939 66.2755 3.3502C66.2346 3.37102 66.1733 3.39183 66.1324 3.39183C66.0915 3.41264 66.0302 3.43345 65.9893 3.45426L65.8258 3.53751L65.7644 3.57913C65.7236 3.59994 65.6622 3.62076 65.6213 3.64157C65.5805 3.66238 65.5396 3.68319 65.4782 3.704L65.4169 3.74563L65.3556 3.78725C65.3147 3.80806 65.2738 3.84968 65.2329 3.8705C65.192 3.89131 65.1512 3.93293 65.1103 3.95374C65.0694 3.97455 65.0285 4.01618 64.9876 4.03699C64.9467 4.0578 64.9058 4.09942 64.865 4.12023C64.7832 4.18267 64.7219 4.2451 64.6401 4.32835C64.497 4.47403 64.3743 4.61971 64.2517 4.7654C64.2312 4.80702 64.1903 4.84864 64.1699 4.89027L64.129 4.9527L64.0881 5.01514C64.0677 5.05676 64.0472 5.09838 64.0268 5.14001C64.0064 5.18163 63.9859 5.22325 63.9655 5.26488L63.945 5.32731C63.945 5.34812 63.9246 5.36893 63.9246 5.38975C63.9042 5.43137 63.8837 5.47299 63.8837 5.51462C63.8633 5.55624 63.8633 5.59786 63.8428 5.6603L63.8224 5.72273C63.8224 5.74354 63.8224 5.76436 63.8019 5.78517C63.8019 5.82679 63.7815 5.86841 63.7815 5.93085C63.7815 5.97247 63.7815 6.0141 63.761 6.07653V6.13897V6.2014C63.761 6.24302 63.761 6.28465 63.761 6.32627C63.761 6.36789 63.761 6.40952 63.761 6.45114C63.761 6.47195 63.761 6.49276 63.761 6.51357V6.57601C63.761 6.61763 63.7815 6.65926 63.7815 6.70088C63.7815 6.7425 63.8019 6.78413 63.8019 6.82575C63.8019 6.84656 63.8019 6.86737 63.8224 6.88818L63.8428 6.95062C63.8633 6.99224 63.8633 7.03387 63.8837 7.07549C63.9041 7.11711 63.9042 7.15874 63.9246 7.20036L63.945 7.26279C63.945 7.28361 63.9655 7.30442 63.9655 7.32523C63.9859 7.36685 64.0064 7.38766 64.0064 7.42929C64.0268 7.47091 64.0472 7.49172 64.0677 7.53335C64.1086 7.59578 64.1495 7.65822 64.1903 7.72065C64.3539 7.97039 64.5583 8.1577 64.7627 8.30338C64.9672 8.44906 65.192 8.55312 65.3965 8.59474C65.6009 8.63636 65.8053 8.65718 65.9689 8.63636C65.9893 8.63636 66.0098 8.63636 66.0302 8.63636C66.0506 8.63636 66.0711 8.63636 66.0915 8.63636C66.1324 8.63636 66.1733 8.61555 66.2142 8.61555C66.296 8.59474 66.3573 8.57393 66.4186 8.55312C66.4799 8.5323 66.5413 8.51149 66.5822 8.49068C66.6026 8.49068 66.623 8.46987 66.6435 8.46987C67.0319 8.44906 67.3385 8.13688 67.3794 7.72065C67.4203 7.26279 67.1137 6.84656 66.6639 6.80494C66.2142 6.76331 65.8258 7.0963 65.7849 7.55416C65.744 7.90796 65.928 8.24094 66.2346 8.38662C66.2142 8.38662 66.1937 8.38662 66.1733 8.38662C66.1324 8.38662 66.112 8.38662 66.0711 8.38662C66.0506 8.38662 66.0302 8.38662 66.0098 8.38662C65.9893 8.38662 65.9689 8.38662 65.9484 8.38662C65.7849 8.38662 65.6213 8.345 65.4578 8.28257C65.2738 8.22013 65.1103 8.13688 64.9263 7.9912C64.7627 7.84552 64.5992 7.67903 64.4765 7.47091C64.4561 7.40848 64.4152 7.36685 64.3948 7.30442C64.3743 7.28361 64.3743 7.24198 64.3539 7.22117C64.3334 7.20036 64.3334 7.15874 64.313 7.13792C64.313 7.11711 64.2926 7.11711 64.2926 7.0963L64.2721 7.05468C64.2721 7.01306 64.2517 6.99224 64.2517 6.95062C64.2517 6.909 64.2312 6.88819 64.2312 6.84656L64.2108 6.80494C64.2108 6.78413 64.2108 6.76331 64.2108 6.76331C64.2108 6.72169 64.1903 6.70088 64.1903 6.65926C64.1903 6.61763 64.1903 6.59682 64.1903 6.5552V6.49276C64.1903 6.47195 64.1903 6.45114 64.1903 6.43033C64.1903 6.38871 64.1903 6.36789 64.1903 6.32627C64.1903 6.28465 64.1903 6.26384 64.1903 6.22221V6.15978V6.09734C64.1903 6.05572 64.2108 6.03491 64.2108 5.99328C64.2108 5.95166 64.2312 5.93085 64.2312 5.88923C64.2312 5.86841 64.2312 5.8476 64.2517 5.82679L64.2721 5.76436C64.2926 5.72273 64.2926 5.70192 64.313 5.6603C64.3334 5.61867 64.3334 5.59786 64.3539 5.55624C64.3539 5.53543 64.3743 5.51462 64.3743 5.4938L64.3948 5.45218C64.4152 5.41056 64.4357 5.38975 64.4561 5.34812C64.4765 5.3065 64.497 5.28569 64.5174 5.24406L64.5379 5.20244L64.5788 5.16082C64.5992 5.11919 64.6196 5.09838 64.6401 5.05676C65.0285 4.53647 65.6418 4.14105 66.3368 3.93293C66.3777 3.91212 66.4186 3.91212 66.4595 3.89131C66.5004 3.8705 66.5413 3.8705 66.6026 3.84968C66.6844 3.82887 66.7866 3.80806 66.8684 3.78725C67.0523 3.74563 67.2363 3.72481 67.4408 3.72481C67.8292 3.704 68.2176 3.72481 68.606 3.80806C68.79 3.84968 68.9944 3.91212 69.1784 3.97455C69.3624 4.03699 69.5464 4.14105 69.7099 4.24511L69.7712 4.28673L69.8326 4.32835C69.8734 4.34916 69.9143 4.39079 69.9552 4.4116L70.0165 4.45322C70.037 4.47403 70.0574 4.49484 70.0779 4.49484C70.1188 4.53647 70.1596 4.55728 70.2005 4.5989C70.3436 4.74458 70.4867 4.89027 70.6094 5.07757C70.732 5.24406 70.8343 5.45218 70.9365 5.6603C71.0182 5.88923 71.1 6.13897 71.1205 6.40952C71.1613 6.68007 71.1613 6.97143 71.1 7.26279C71.1 7.34604 71.0796 7.40848 71.0591 7.49172C71.0387 7.57497 71.0182 7.6374 70.9978 7.72065C70.9569 7.86633 70.8956 8.03283 70.8343 8.17851C70.7729 8.32419 70.6912 8.46987 70.6094 8.63636C70.5276 8.78204 70.4254 8.92773 70.3232 9.07341C70.221 9.21909 70.0983 9.34396 69.9757 9.46883C69.9143 9.53126 69.853 9.5937 69.7712 9.65613C69.7303 9.67695 69.7099 9.71857 69.669 9.73938C69.6281 9.76019 69.6077 9.80182 69.5668 9.82263C69.5259 9.84344 69.485 9.88506 69.4646 9.90587C69.4237 9.92669 69.3828 9.96831 69.3419 9.98912C69.2602 10.0516 69.1784 10.0932 69.0966 10.1556C69.0557 10.1764 69.0148 10.218 68.974 10.2389C68.9331 10.2597 68.8922 10.2805 68.8513 10.3221C68.8104 10.3429 68.7695 10.3637 68.7286 10.4054C68.6878 10.4262 68.6469 10.447 68.606 10.4678C68.5242 10.5094 68.422 10.551 68.3402 10.6135C68.2585 10.6551 68.1562 10.6967 68.0745 10.7383C67.9927 10.78 67.8905 10.8216 67.7883 10.8424C67.7474 10.8632 67.6861 10.884 67.6452 10.9048C67.6043 10.9256 67.543 10.9256 67.5021 10.9465C67.4612 10.9673 67.3999 10.9673 67.359 10.9881C67.3181 11.0089 67.2568 11.0089 67.2159 11.0297C67.1137 11.0505 67.0114 11.0713 66.9092 11.113C66.807 11.1338 66.7048 11.1546 66.6026 11.1754C66.5617 11.1962 66.5004 11.1962 66.4391 11.1962C66.3777 11.1962 66.3368 11.217 66.2755 11.217C65.8667 11.2586 65.4374 11.2794 65.0081 11.2794C64.9058 11.2794 64.7832 11.2794 64.681 11.2794H64.5174H64.3539C64.2517 11.2794 64.129 11.2586 64.0268 11.2586C63.9859 11.2586 63.9246 11.2586 63.8837 11.2378C63.8633 11.217 63.8224 11.1962 63.7815 11.1754C63.6588 11.113 63.5157 11.0713 63.3522 11.0297C63.1886 10.9881 62.9842 10.9256 62.7798 10.8632C62.3505 10.7383 61.8599 10.5302 61.3488 10.2805C60.8377 10.0099 60.2653 9.69776 59.6725 9.36477C58.8548 8.90692 58.0984 8.51149 57.4238 8.17851C57.0763 8.03283 56.7696 7.88714 56.5039 7.78309C56.3608 7.72065 56.2381 7.67903 56.1154 7.6374C55.9928 7.59578 55.8906 7.55416 55.7884 7.53335C55.6861 7.49172 55.5839 7.42929 55.4613 7.38766C55.3386 7.32523 55.216 7.28361 55.0729 7.22117C54.7867 7.0963 54.48 6.97143 54.1325 6.84656C53.4374 6.57601 52.5993 6.30546 51.6794 6.15978C51.3318 6.11815 51.0047 6.07653 50.6777 6.07653C50.5141 6.07653 50.3506 6.07653 50.2075 6.07653C50.1257 6.07653 50.0439 6.09734 49.9826 6.09734C49.9008 6.09734 49.8395 6.09734 49.7577 6.11815C49.2262 6.18059 48.756 6.32627 48.3676 6.47195C48.2859 6.47195 48.2041 6.49276 48.1223 6.49276C48.2859 6.40952 48.4903 6.32627 48.7356 6.24302C48.7765 6.22221 48.8378 6.2014 48.8991 6.18059C48.9605 6.15978 49.0014 6.13897 49.0627 6.11815C49.1649 6.07653 49.2875 6.05572 49.4102 6.0141C49.6555 5.95166 49.9213 5.88923 50.187 5.82679C50.4528 5.78517 50.7594 5.74354 51.0456 5.72273C51.1887 5.72273 51.3523 5.70192 51.4954 5.70192C51.5771 5.70192 51.6589 5.70192 51.7407 5.70192C51.8225 5.70192 51.9042 5.72273 51.986 5.72273C52.865 5.78517 53.6623 5.99328 54.3574 6.15978C55.0524 6.34708 55.6044 6.53439 55.9928 6.65926C56.1768 6.7425 56.4016 6.84656 56.6674 6.99224C56.9332 7.11711 57.2194 7.28361 57.526 7.42929C57.8326 7.59578 58.1802 7.8039 58.5481 7.9912C58.8957 8.19932 59.2841 8.42825 59.6725 8.65718C59.9587 8.82367 60.2244 8.99016 60.5106 9.15665C60.7764 9.32315 61.0217 9.48964 61.2466 9.65613C61.4715 9.82263 61.6963 9.98912 61.9212 10.1348C62.1256 10.2805 62.3301 10.4054 62.5345 10.5302C62.9229 10.7592 63.25 10.884 63.4748 10.9465C63.5362 10.9673 63.5771 10.9673 63.6384 10.9881C63.6793 10.9881 63.7202 11.0089 63.761 11.0089C63.8224 11.0297 63.8633 11.0297 63.8633 11.0297C63.8633 11.0297 63.8224 11.0089 63.761 11.0089C63.7406 11.0089 63.6997 10.9881 63.6588 10.9673C63.6179 10.9465 63.5566 10.9256 63.5157 10.9048C63.2909 10.8216 62.9842 10.6551 62.6367 10.4054C62.4527 10.2805 62.2687 10.1348 62.0643 9.96831C61.8599 9.80182 61.6554 9.63532 61.4306 9.44802C61.2057 9.26071 60.9604 9.07341 60.6946 8.90691C60.4289 8.74042 60.1427 8.57393 59.8769 8.40744C59.4885 8.17851 59.1001 7.97039 58.7321 7.76227C58.3641 7.57497 58.0166 7.40848 57.6895 7.24198C57.3625 7.0963 57.0558 6.97143 56.7901 6.86737C56.5243 6.76331 56.279 6.68007 56.095 6.61763C55.727 6.43033 55.1751 6.2014 54.5005 5.95166C53.8259 5.72273 52.9877 5.4938 52.0882 5.41056C52.0064 5.41056 51.9247 5.38975 51.8429 5.38975C51.7611 5.38975 51.6794 5.38975 51.5976 5.38975C51.434 5.38975 51.2705 5.38975 51.107 5.41056C50.8003 5.43137 50.4937 5.4938 50.2075 5.55624C49.9213 5.61867 49.6555 5.70192 49.4306 5.78517C49.308 5.82679 49.1853 5.86841 49.0831 5.91004C49.0218 5.93085 48.9809 5.95166 48.9196 5.97247C48.8583 5.99328 48.8174 6.0141 48.7765 6.03491C48.4494 6.18059 48.2041 6.34708 47.9997 6.47195C47.8566 6.49276 47.7339 6.53439 47.6112 6.5552C47.3864 6.61763 47.1819 6.72169 46.998 6.84656C47.0184 6.86737 47.0388 6.909 47.0388 6.92981V6.95062C47.2228 6.84656 47.4068 6.76331 47.6317 6.70088C47.6521 6.70088 47.6726 6.70088 47.693 6.68007C47.6726 6.70088 47.6521 6.70088 47.6317 6.72169C47.6112 6.7425 47.5908 6.7425 47.5908 6.76331C47.509 6.80494 47.4068 6.82575 47.3455 6.86737C47.2024 6.92981 47.1002 6.97143 47.0388 6.99224C47.1002 6.97143 47.2024 6.95062 47.3659 6.909C47.4886 6.86737 47.6317 6.82575 47.7952 6.78413C47.9588 6.7425 48.1632 6.68007 48.3676 6.61763C48.4085 6.59682 48.4698 6.59682 48.5312 6.57601C49.0013 6.57601 49.6351 6.63845 50.3097 6.80494ZM47.7543 6.65926C47.7135 6.68007 47.6726 6.68007 47.6521 6.70088C47.6112 6.72169 47.5499 6.7425 47.509 6.76331C47.509 6.76331 47.509 6.76331 47.5295 6.76331C47.5704 6.7425 47.5908 6.72169 47.6521 6.70088C47.6726 6.68007 47.7135 6.65926 47.7543 6.65926ZM49.1444 6.43033C49.3489 6.38871 49.5329 6.36789 49.7577 6.34708C49.8191 6.34708 49.9008 6.34708 49.9826 6.34708C50.0644 6.34708 50.1257 6.34708 50.2075 6.34708C50.3506 6.34708 50.5141 6.34708 50.6777 6.36789C50.9843 6.38871 51.3114 6.43033 51.6385 6.47195C52.538 6.61763 53.3557 6.84656 54.0712 7.07549C54.4187 7.17955 54.7458 7.28361 55.032 7.36685C55.1751 7.40848 55.2977 7.4501 55.4204 7.49172C55.543 7.53335 55.6453 7.57497 55.7475 7.59578C55.8497 7.6374 55.9519 7.67903 56.0746 7.74146C56.1972 7.8039 56.3199 7.86633 56.4425 7.92877C56.7083 8.05364 57.0149 8.22013 57.342 8.40744C57.9962 8.76123 58.7321 9.19828 59.5498 9.65613C60.1427 9.98912 60.7355 10.3013 61.267 10.5302C61.819 10.7592 62.3301 10.9256 62.7798 11.0089C63.0047 11.0505 63.1887 11.113 63.3726 11.1338C63.5566 11.1546 63.6997 11.1754 63.8019 11.217C63.7815 11.217 63.7406 11.217 63.7202 11.217C63.618 11.217 63.4953 11.1962 63.3931 11.1754C63.2909 11.1546 63.1682 11.1546 63.066 11.1338C62.9638 11.113 62.8411 11.1129 62.7389 11.0921L62.5754 11.0713C62.514 11.0713 62.4731 11.0505 62.4118 11.0505C62.3096 11.0297 62.187 11.0089 62.0847 10.9881C61.9825 10.9673 61.8599 10.9465 61.7577 10.9256C61.5328 10.884 61.3284 10.8216 61.1035 10.7592C61.0013 10.7383 60.8786 10.6967 60.7764 10.6759C60.6742 10.6343 60.5515 10.6135 60.4493 10.5718C60.2244 10.5094 60.02 10.4262 59.7951 10.3637C59.3658 10.218 58.9365 10.0516 58.5277 9.88506C58.1188 9.71857 57.6895 9.53126 57.2807 9.36477C56.8718 9.17747 56.463 9.01097 56.0541 8.82367C55.6453 8.63636 55.2568 8.46987 54.848 8.30338C54.0712 7.94958 53.2943 7.61659 52.5584 7.32523C52.1904 7.17955 51.8225 7.05468 51.4545 6.92981C51.0865 6.80494 50.7185 6.72169 50.371 6.63844C49.9417 6.49276 49.5329 6.45114 49.1444 6.43033Z" fill="#FBA1AB"/>
<path d="M54.0303 5.78536C54.0916 5.80617 54.1734 5.82698 54.2347 5.8478C54.2961 5.86861 54.3574 5.88942 54.4187 5.91023C54.48 5.93104 54.5414 5.95185 54.6027 5.97267C54.7254 6.01429 54.848 6.0351 54.9707 6.05591C55.032 6.07672 55.0933 6.07672 55.1547 6.09754C55.216 6.11835 55.2773 6.11835 55.3386 6.13916C55.3795 6.13916 55.4 6.15997 55.4409 6.15997L55.5431 6.18078C55.6044 6.18078 55.6657 6.20159 55.7271 6.20159C55.7884 6.20159 55.8497 6.22241 55.911 6.22241C55.9724 6.22241 56.0337 6.24322 56.095 6.24322C56.1155 6.24322 56.1155 6.24322 56.1359 6.24322C56.0746 6.22241 56.0133 6.20159 55.9315 6.20159C55.9928 6.20159 56.0746 6.22241 56.1564 6.22241C56.1768 6.24322 56.1972 6.24322 56.2177 6.26403C56.2381 6.26403 56.279 6.26403 56.2994 6.26403C56.3608 6.26403 56.4221 6.26403 56.4834 6.28484H56.5856H56.6879C56.7492 6.28484 56.8105 6.28484 56.8719 6.28484C57.1172 6.28484 57.3625 6.28484 57.6078 6.24322C57.6282 6.24322 57.6691 6.24322 57.6896 6.22241C57.71 6.22241 57.7509 6.22241 57.7713 6.20159C57.8327 6.18078 57.894 6.18078 57.9553 6.15997C58.0166 6.13916 58.078 6.13916 58.1189 6.11835C58.1393 6.11835 58.1802 6.09754 58.2006 6.09754C58.2211 6.09754 58.262 6.07672 58.2824 6.07672C58.3028 6.07672 58.3437 6.05591 58.3642 6.05591C58.3846 6.05591 58.4255 6.0351 58.4459 6.0351C58.5073 6.01429 58.5482 5.99348 58.6095 5.97267C58.6708 5.95185 58.7117 5.93104 58.773 5.91023C58.8139 5.88942 58.8752 5.8478 58.9161 5.82698C58.9366 5.80617 58.957 5.80617 58.9979 5.78536C59.0183 5.76455 59.0388 5.76455 59.0797 5.74374C59.1001 5.72293 59.1206 5.72293 59.1614 5.70211C59.1819 5.6813 59.2023 5.6813 59.2228 5.66049C59.2637 5.63968 59.325 5.59806 59.3659 5.57724C59.3863 5.55643 59.4068 5.55643 59.4272 5.53562C59.4476 5.51481 59.4681 5.51481 59.4885 5.494C59.509 5.47319 59.5294 5.45237 59.5499 5.45237C59.5703 5.43156 59.5907 5.41075 59.6112 5.41075C59.6521 5.36913 59.693 5.34832 59.7338 5.30669C59.8156 5.22345 59.8769 5.16101 59.9383 5.07776C59.9996 4.99452 60.0609 4.91127 60.1018 4.82803C60.1427 4.74478 60.204 4.66153 60.2245 4.57828C60.2654 4.49504 60.2858 4.41179 60.3267 4.30773C60.3471 4.26611 60.3471 4.22449 60.3676 4.18286C60.3676 4.14124 60.388 4.09962 60.388 4.05799C60.4085 3.8915 60.4085 3.72501 60.388 3.55851C60.3676 3.41283 60.3267 3.26715 60.2858 3.14228C60.2245 3.01741 60.1631 2.91335 60.1018 2.80929C60.0405 2.70524 59.9587 2.62199 59.8769 2.53874C59.8565 2.51793 59.8361 2.49712 59.8156 2.47631C59.7952 2.4555 59.7952 2.4555 59.7747 2.4555L59.7338 2.43468C59.7134 2.41387 59.693 2.39306 59.6725 2.39306L59.6316 2.37225L59.5907 2.35144C59.4885 2.289 59.3863 2.24738 59.2841 2.20576C59.1819 2.16413 59.0592 2.12251 58.957 2.1017C58.7321 2.06007 58.5073 2.03926 58.2824 2.06007C58.1802 2.06007 58.0575 2.08089 57.9553 2.1017C57.894 2.1017 57.8531 2.12251 57.7918 2.14332C57.7713 2.14332 57.7304 2.16413 57.71 2.16413C57.6896 2.16413 57.6691 2.18494 57.6282 2.18494C57.2194 2.30981 56.8719 2.53874 56.6674 2.83011C56.647 2.85092 56.647 2.87173 56.6265 2.89254L56.6061 2.91335L56.5856 2.93416C56.5652 2.95498 56.5652 2.97579 56.5448 2.9966C56.5448 3.01741 56.5243 3.03822 56.5243 3.05903L56.5039 3.07985C56.5039 3.07985 56.5039 3.10066 56.4834 3.10066C56.4834 3.12147 56.463 3.14228 56.463 3.16309C56.463 3.1839 56.4426 3.20472 56.4426 3.22553V3.24634V3.26715C56.4426 3.28796 56.4426 3.30877 56.4221 3.32959C56.4221 3.3504 56.4221 3.37121 56.4221 3.39202V3.41283V3.43364C56.4221 3.45446 56.4221 3.47527 56.4221 3.49608C56.4221 3.51689 56.4221 3.5377 56.4221 3.55851V3.57933V3.60014C56.4221 3.62095 56.4221 3.64176 56.4221 3.66257C56.4221 3.68338 56.4221 3.7042 56.4221 3.72501V3.74582V3.76663C56.4221 3.78744 56.4221 3.80825 56.4426 3.82907C56.4426 3.84988 56.463 3.87069 56.463 3.8915V3.91231C56.463 3.91231 56.463 3.93312 56.4834 3.93312C56.4834 3.95394 56.5039 3.97475 56.5039 3.99556C56.5039 4.01637 56.5243 4.03718 56.5243 4.03718C56.5448 4.07881 56.5652 4.09962 56.5856 4.14124C56.6674 4.26611 56.7492 4.37017 56.8514 4.4326C56.9536 4.51585 57.0558 4.55747 57.1581 4.5991C57.2603 4.64072 57.3625 4.66153 57.4442 4.66153C57.4647 4.66153 57.4647 4.66153 57.4851 4.66153C57.5056 4.66153 57.5056 4.66153 57.526 4.66153C57.5465 4.66153 57.5669 4.66153 57.5874 4.66153C57.6078 4.66153 57.6078 4.66153 57.6282 4.66153C57.4647 4.57828 57.342 4.39098 57.3625 4.18286C57.3829 3.91231 57.6078 3.72501 57.8735 3.76663C58.1189 3.78744 58.3028 4.03718 58.2824 4.28692C58.262 4.51585 58.078 4.70316 57.8531 4.72397C57.8327 4.72397 57.8327 4.72397 57.8122 4.74478C57.7918 4.76559 57.7509 4.76559 57.71 4.7864C57.6691 4.80721 57.6282 4.80721 57.5874 4.80721C57.5669 4.80721 57.5465 4.80721 57.526 4.80721C57.5056 4.80721 57.5056 4.80721 57.4851 4.80721C57.4647 4.80721 57.4647 4.80721 57.4442 4.80721C57.342 4.80721 57.2398 4.80721 57.1172 4.7864C56.9945 4.76559 56.8719 4.70316 56.7492 4.61991C56.6265 4.53666 56.5039 4.4326 56.4221 4.28692C56.4017 4.2453 56.3812 4.22449 56.3608 4.18286C56.3403 4.16205 56.3403 4.14124 56.3199 4.12043C56.3199 4.09962 56.2994 4.07881 56.2994 4.05799C56.2994 4.05799 56.2994 4.03718 56.279 4.01637L56.2586 3.97475C56.2586 3.95394 56.2381 3.93312 56.2381 3.91231C56.2381 3.8915 56.2177 3.87069 56.2177 3.84988V3.80825C56.2177 3.78744 56.2177 3.78744 56.2177 3.76663C56.2177 3.74582 56.2177 3.72501 56.1972 3.7042C56.1972 3.68338 56.1972 3.66257 56.1972 3.62095V3.57933C56.1972 3.55851 56.1972 3.55851 56.1972 3.5377C56.1972 3.51689 56.1972 3.49608 56.1972 3.45446C56.1972 3.43364 56.1972 3.41283 56.1972 3.37121V3.32959V3.28796C56.1972 3.26715 56.1972 3.24634 56.1972 3.20472C56.1972 3.1839 56.1972 3.16309 56.2177 3.12147C56.2177 3.10066 56.2177 3.10066 56.2177 3.07985L56.2381 3.03822C56.2381 3.01741 56.2586 2.9966 56.2586 2.95498C56.2586 2.93416 56.279 2.91335 56.279 2.87173C56.279 2.85092 56.279 2.85092 56.2994 2.83011L56.3199 2.78848C56.3403 2.76767 56.3403 2.74686 56.3608 2.70524C56.3812 2.68442 56.3812 2.66361 56.4017 2.6428L56.4221 2.60118L56.4426 2.55955C56.463 2.53874 56.463 2.51793 56.4834 2.49712C56.5448 2.41387 56.6265 2.30981 56.7083 2.24738C56.7492 2.20576 56.7901 2.16413 56.831 2.12251C56.8514 2.1017 56.8718 2.08089 56.8923 2.06007C56.9127 2.03926 56.9332 2.01845 56.9536 2.01845C56.9741 1.99764 56.9945 1.97683 57.0354 1.97683C57.0558 1.95602 57.0763 1.95602 57.1172 1.9352L57.1581 1.91439L57.1989 1.89358C57.2194 1.87277 57.2603 1.87277 57.2807 1.85196C57.3012 1.83115 57.342 1.83115 57.3625 1.81033L57.4034 1.78952L57.4442 1.76871C57.4647 1.7479 57.5056 1.7479 57.526 1.72709C57.5465 1.72709 57.5873 1.70628 57.6078 1.70628C57.6282 1.70628 57.6691 1.68547 57.6896 1.68547C57.71 1.68547 57.7509 1.66465 57.7713 1.66465C57.8327 1.64384 57.894 1.64384 57.9553 1.62303C58.078 1.60222 58.2006 1.58141 58.3233 1.58141C58.5686 1.5606 58.8139 1.58141 59.0797 1.62303C59.2023 1.64384 59.325 1.68547 59.4681 1.72709C59.5907 1.76871 59.7134 1.83115 59.8361 1.91439L59.8769 1.9352L59.9178 1.95602C59.9383 1.97683 59.9792 1.99764 59.9996 2.01845L60.0405 2.06007C60.0609 2.08089 60.0609 2.08089 60.0814 2.1017C60.1018 2.12251 60.1223 2.14332 60.1631 2.16413C60.2654 2.26819 60.3676 2.37225 60.4493 2.49712C60.5311 2.62199 60.6129 2.74686 60.6742 2.91335C60.7355 3.07985 60.7764 3.24634 60.8173 3.43364C60.8582 3.80825 60.7969 4.2453 60.6333 4.64072C60.5924 4.74478 60.5311 4.84884 60.4902 4.93208C60.4289 5.03614 60.3676 5.11939 60.3062 5.20263C60.2449 5.28588 60.1631 5.36913 60.0814 5.45237C60.0405 5.494 59.9996 5.53562 59.9587 5.57724C59.9383 5.59806 59.9178 5.61887 59.8974 5.63968C59.8769 5.66049 59.8565 5.6813 59.8361 5.70211C59.8156 5.72293 59.7952 5.74374 59.7543 5.76455C59.7338 5.78536 59.7134 5.80617 59.6725 5.80617C59.6316 5.82698 59.5703 5.86861 59.5294 5.88942C59.509 5.91023 59.4885 5.93104 59.4476 5.93104C59.4272 5.95185 59.3863 5.95185 59.3659 5.97267C59.3454 5.99348 59.3045 5.99348 59.2841 6.01429C59.2637 6.0351 59.2228 6.0351 59.2023 6.05591C59.141 6.07672 59.1001 6.11835 59.0388 6.13916C58.9775 6.15997 58.9366 6.18078 58.8752 6.22241C58.8139 6.24322 58.7526 6.26403 58.7117 6.28484C58.6913 6.30565 58.6504 6.30565 58.6299 6.32646C58.6095 6.34728 58.5686 6.34728 58.5482 6.34728C58.5277 6.34728 58.4868 6.36809 58.4664 6.36809C58.4459 6.36809 58.4051 6.3889 58.3846 6.3889C58.3233 6.40971 58.262 6.40971 58.2006 6.43052C58.1393 6.45133 58.078 6.45133 58.0166 6.47215C57.9758 6.47215 57.9553 6.47215 57.9144 6.49296C57.8735 6.49296 57.8531 6.49296 57.8122 6.51377C57.5669 6.53458 57.3011 6.55539 57.0354 6.53458C56.9741 6.53458 56.9127 6.53458 56.8514 6.53458H56.7492H56.647C56.5857 6.53458 56.5243 6.51377 56.463 6.51377C56.4017 6.51377 56.3403 6.49296 56.279 6.49296C56.2177 6.49296 56.1564 6.47215 56.095 6.47215C56.0337 6.47215 55.9724 6.45133 55.911 6.45133C55.8497 6.45133 55.7884 6.43052 55.7066 6.43052L55.6044 6.40971C55.5635 6.40971 55.5431 6.3889 55.5022 6.3889C55.4409 6.36809 55.3795 6.36809 55.2978 6.34728C55.2364 6.32646 55.1751 6.32646 55.1138 6.30565C54.9911 6.28484 54.848 6.24322 54.7254 6.20159C54.664 6.18078 54.6027 6.15997 54.5414 6.13916C54.48 6.11835 54.4187 6.09754 54.3574 6.07672C54.2347 6.0351 54.1121 5.99348 53.9894 5.95185C53.9076 5.91023 53.8259 5.88942 53.7237 5.8478C53.7237 5.78536 53.7032 5.74374 53.7032 5.6813C53.7032 5.72293 53.8668 5.74374 54.0303 5.78536Z" fill="#FBA1AB"/>
<path d="M45.3626 12.9656C45.6692 14.1727 46.5278 15.463 48.0406 15.463C49.6351 15.463 51.0252 14.4224 50.5959 12.8407C50.2279 11.4255 48.7561 10.5306 47.3046 11.259C47.2228 11.3007 47.182 11.3631 47.1615 11.4255C47.1411 11.4671 47.1206 11.488 47.1002 11.5296C46.7731 12.0915 47.2433 12.8615 47.9383 13.1737C48.4494 13.4026 49.1649 13.5275 49.676 13.3194C49.7782 13.7356 49.7169 14.2351 49.4307 14.4848C49.3285 14.5889 49.2876 14.6305 49.308 14.7346C49.2262 14.7762 49.1445 14.8178 49.0423 14.8386C48.429 15.0259 47.693 15.0884 47.1002 14.7554C45.7919 13.9854 45.567 12.1956 45.751 10.926C45.9963 9.28192 47.182 7.84592 49.0627 7.59618C49.1649 7.57537 49.2671 7.57537 49.3489 7.57537C49.3693 7.57537 49.3898 7.59618 49.4307 7.59618C50.4119 7.72105 51.5158 8.05404 52.17 8.80326C52.722 9.42761 53.3761 10.3849 52.9264 11.0925C52.4766 11.7793 53.1308 11.5088 53.3148 11.3631C53.7645 11.0093 53.9076 10.5098 53.969 9.98952C54.5209 10.8844 55.1138 11.8626 56.2177 12.1956C57.2807 12.5077 58.5686 12.5077 59.4681 11.8626C59.5907 11.7793 59.6521 11.6336 59.5703 11.5504C59.5703 11.4463 59.4272 11.3631 59.2841 11.3631C57.9758 11.3215 56.7901 10.6971 55.727 10.0311C54.6027 9.32355 53.5192 8.5327 52.3335 7.92917C51.3114 7.40888 50.1257 6.99264 48.9605 7.17995C47.8157 7.34644 46.5891 8.01241 45.9758 8.90731C45.199 10.052 45.015 11.6128 45.3626 12.9656ZM47.8157 12.2996L47.7952 12.2788C47.7952 12.2788 47.7952 12.2788 47.8157 12.2996C47.7952 12.2996 47.7952 12.2996 47.8157 12.2996Z" fill="#FBA1AB"/>
<path d="M74.4731 2.83008C74.4731 2.83008 75.0659 4.53663 74.4731 5.34829C74.4731 5.34829 84.1221 3.03819 90.9295 2.83008H74.4731Z" fill="#FBA1AB"/>
<path d="M16.4564 2.83008C16.4564 2.83008 15.8636 4.53663 16.4564 5.34829C16.4564 5.34829 6.80745 3.03819 0 2.83008H16.4564Z" fill="#FBA1AB"/>
</g>
<defs>
<clipPath id="clip0">
<rect width="90.9091" height="20" fill="white"/>
</clipPath>
</defs>
</svg>
