<svg width="120" height="120" viewBox="0 0 120 120" fill="none" xmlns="http://www.w3.org/2000/svg">
<g clip-path="url(#clip0)">
<path d="M117.5 115H115V95.0002C115 89.4851 110.515 85.0001 105 85.0001V65.0002C105 59.4851 100.515 55.0001 94.9997 55.0001V35.0002C94.9997 29.4851 90.5149 25.0001 84.9996 25.0001H65.6023L72.3335 17.5001C74.0527 15.5665 75 13.0151 75 10.3125C75 4.62656 70.7641 0 65.5566 0C63.6375 0 61.7503 0.918047 60 2.68313C58.2495 0.918047 56.3623 0 54.4434 0C49.2359 0 45 4.62656 45 10.3125C45 13.0151 45.9473 15.5665 47.6733 17.5073L54.3975 25.0001H34.9999C29.4848 25.0001 24.9998 29.4848 24.9998 35.0002V55.0001C19.4848 55.0001 15 59.4848 15 64.9999V84.9998C9.48492 84.9998 4.99992 89.4846 4.99992 94.9999V115H2.50008C1.1182 115 0 116.118 0 117.5C0 118.882 1.1182 120 2.50008 120H117.5C118.882 120 120 118.882 120 117.5C120 116.118 118.882 115 117.5 115ZM51.4015 14.1748C50.4982 13.1592 50.0002 11.787 50.0002 10.3125C50.0002 7.38281 51.9923 4.99992 54.4434 4.99992C55.1149 4.99992 56.4258 5.7982 57.9152 8.0468C58.8429 9.44812 61.1573 9.44812 62.0852 8.0468C63.5745 5.7982 64.8855 4.99992 65.557 4.99992C68.0081 4.99992 70.0003 7.38281 70.0003 10.3125C70.0003 11.7872 69.5023 13.1592 68.6062 14.1675L60 23.7574L51.4015 14.1748ZM30 34.9999C30 32.2437 32.2437 30 34.9999 30H84.9998C87.7561 30 89.9998 32.2437 89.9998 34.9999V39.1266C89.1047 38.7626 88.3048 38.3161 87.4509 37.8295C85.1266 36.5039 82.4925 34.9999 77.4485 34.9999C72.4118 34.9999 69.78 36.5039 67.4606 37.8295C65.422 38.9941 63.6619 39.9998 59.9534 39.9998C56.2425 39.9998 54.4847 38.9939 52.4461 37.8295C50.1267 36.5039 47.4973 34.9999 42.4608 34.9999C37.4241 34.9999 34.7948 36.5039 32.4755 37.8295C31.6444 38.3041 30.867 38.7424 29.9998 39.1015V34.9999H30ZM30 44.3777C32.0709 43.8141 33.5873 42.9532 34.9584 42.1704C36.9947 41.0058 38.7525 40.0001 42.4608 40.0001C46.1693 40.0001 47.9271 41.006 49.9657 42.1704C52.2851 43.496 54.9145 45 59.9536 45C64.9903 45 67.6221 43.496 69.9415 42.1704C71.9801 41.0058 73.7379 40.0001 77.4487 40.0001C81.1671 40.0001 82.9322 41.006 84.9757 42.173C86.3611 42.963 87.8962 43.8305 90.0002 44.3934V55.0001H30V44.3777ZM19.9999 64.9999C19.9999 62.2437 22.2436 60 24.9998 60H27.4999H92.4998H94.9999C97.7562 60 99.9998 62.2437 99.9998 64.9999V69.1034C98.8015 69.5972 97.2743 70.0001 94.9753 70.0001C91.257 70.0001 89.4945 68.9941 87.4533 67.8298C85.129 66.5041 82.4949 65.0002 77.4483 65.0002C72.4092 65.0002 69.7798 66.5041 67.4604 67.8298C65.4218 68.9944 63.664 70.0001 59.9531 70.0001C56.2423 70.0001 54.4845 68.9941 52.4459 67.8298C50.1265 66.5041 47.497 65.0002 42.4605 65.0002C37.4238 65.0002 34.7946 66.5041 32.4752 67.8298C30.4366 68.9944 28.6788 70.0001 24.9703 70.0001C22.6971 70.0001 21.1859 69.6042 19.9997 69.1172V64.9999H19.9999ZM19.9999 74.3815C21.3656 74.7483 22.9737 75 24.9708 75C30.0075 75 32.6367 73.496 34.9561 72.1704C36.9947 71.0058 38.7525 70.0001 42.461 70.0001C46.1695 70.0001 47.9273 71.006 49.9659 72.1704C52.2853 73.496 54.9148 75 59.9538 75C64.9929 75 67.6223 73.496 69.9417 72.1704C71.9803 71.0058 73.7405 70.0001 77.449 70.0001C81.1697 70.0001 82.9324 71.006 84.9759 72.173C87.2977 73.4986 89.932 75.0002 94.976 75.0002C96.9947 75.0002 98.6222 74.7448 100.001 74.3712V85.0001H19.9999V74.3815ZM110 115H10.0001V100.189C12.1177 100.531 13.4815 101.305 14.9927 102.171C17.3121 103.496 19.939 105 24.9708 105C30.0075 105 32.6367 103.496 34.9561 102.17C36.9947 101.006 38.7525 100 42.461 100C46.1695 100 47.9273 101.006 49.9659 102.17C52.2853 103.496 54.9148 105 59.9538 105C64.9905 105 67.6223 103.496 69.9417 102.17C71.9803 101.006 73.7381 100 77.449 100C81.1697 100 82.9324 101.006 84.9759 102.173C87.2977 103.499 89.932 105 94.976 105C100.02 105 102.654 103.496 104.978 102.171C106.498 101.304 107.868 100.528 110 100.186V115H110ZM110 95.1902C106.563 95.598 104.39 96.7502 102.498 97.8298C100.457 98.9944 98.6939 100 94.9755 100C91.2572 100 89.4947 98.9941 87.4535 97.8298C85.1292 96.5041 82.4951 95.0002 77.4485 95.0002C72.4118 95.0002 69.78 96.5041 67.4606 97.8298C65.422 98.9944 63.6619 100 59.9534 100C56.2425 100 54.4847 98.9941 52.4461 97.8298C50.1267 96.5041 47.4973 95.0002 42.4608 95.0002C37.4241 95.0002 34.7948 96.5041 32.4755 97.8298C30.4369 98.9944 28.6791 100 24.9705 100C21.267 100 19.5115 98.9941 17.4778 97.8298C15.5904 96.7509 13.4245 95.5992 9.99984 95.1907V95.0002C10.0001 92.2437 12.2437 90 15 90H105C107.756 90 110 92.2437 110 94.9999V95.1902Z" fill="#FBA1AB"/>
</g>
<defs>
<clipPath id="clip0">
<rect width="120" height="120" fill="white"/>
</clipPath>
</defs>
</svg>
