<svg width="220" height="24" viewBox="0 0 220 24" fill="none" xmlns="http://www.w3.org/2000/svg">
<g clip-path="url(#clip0)">
<path d="M111.724 16.5398C111.724 16.5398 111.814 16.5976 111.993 16.7711C112.172 16.9446 112.44 17.1759 112.799 17.5229C113.515 18.159 114.545 19.0843 115.978 20.0675C116.694 20.588 117.501 21.1084 118.396 21.5711C118.844 21.8024 119.336 22.0337 119.829 22.2651C120.322 22.4964 120.859 22.6699 121.441 22.8434C121.978 23.0169 122.561 23.1325 123.187 23.2482C123.77 23.3639 124.396 23.4217 125.068 23.4217C125.247 23.4217 125.382 23.4217 125.561 23.4217C125.74 23.4217 125.874 23.4217 126.053 23.4217C126.232 23.4217 126.367 23.4217 126.546 23.3639C126.725 23.3639 126.904 23.306 127.038 23.306C127.71 23.2482 128.427 23.0747 129.098 22.9012C129.815 22.7277 130.486 22.4964 131.203 22.1494C131.919 21.8024 132.591 21.3976 133.263 20.9349C133.576 20.7036 133.934 20.4145 134.203 20.0675C134.517 19.7783 134.785 19.4313 135.099 19.0265C135.636 18.2747 136.129 17.4651 136.442 16.4819C136.8 15.5566 136.979 14.5157 137.069 13.4169C137.069 13.3012 137.069 13.1277 137.069 13.0121C137.069 12.8964 137.069 12.7229 137.069 12.6072V12.3759C137.069 12.3181 137.069 12.2602 137.069 12.1446C137.069 12.0289 137.069 11.8554 137.069 11.7398C137.024 11.2193 136.935 10.641 136.8 10.1205C136.666 9.6 136.487 9.07952 136.308 8.61687C136.084 8.09639 135.86 7.69157 135.547 7.22892C135.278 6.76627 134.964 6.36145 134.606 6.01446C134.248 5.66747 133.89 5.32049 133.487 4.9735C132.725 4.33735 131.83 3.81687 130.934 3.46988C130.039 3.06506 129.098 2.83374 128.113 2.71807C127.128 2.60241 126.143 2.60241 125.158 2.77591C124.173 2.9494 123.187 3.18073 122.202 3.58554C120.277 4.39518 118.396 5.60964 116.515 6.93976C114.679 8.32771 112.843 9.83133 110.918 11.2771C110.425 11.6241 109.978 11.9711 109.485 12.3759C108.992 12.7229 108.545 13.0699 108.052 13.4747C107.112 14.1687 106.171 14.9205 105.231 15.6145C103.35 17.0024 101.47 18.3325 99.5441 19.4892C98.6037 20.0675 97.6186 20.588 96.6334 20.9928C95.6483 21.3976 94.6631 21.8024 93.6332 22.0337C92.6033 22.2651 91.6182 22.3807 90.5882 22.3807C90.4539 22.3807 90.3196 22.3807 90.1852 22.3807C90.0509 22.3807 89.9165 22.3807 89.827 22.3229H89.6479H89.5583H89.4688C89.3344 22.3229 89.2001 22.2651 89.1105 22.2651L88.9314 22.2072C88.8866 22.2072 88.7971 22.1494 88.7523 22.1494C88.6179 22.0916 88.5284 22.0916 88.3941 22.0337C88.1702 21.9759 87.9015 21.8602 87.6776 21.8024C87.4537 21.7446 87.185 21.6289 86.9611 21.5133L86.782 21.4554C86.7372 21.3976 86.6477 21.3976 86.6029 21.3398C86.4685 21.2819 86.379 21.2241 86.2447 21.1663C86.1103 21.1084 86.0208 21.0506 85.9312 20.9349C85.8416 20.8771 85.7073 20.7614 85.6177 20.7036C85.5282 20.6458 85.3939 20.5301 85.3043 20.4723L85.1252 20.3566L85.0356 20.2988C84.9908 20.2988 84.9908 20.241 84.9461 20.241C84.8565 20.1253 84.7669 20.0675 84.6326 19.9518C84.5878 19.894 84.543 19.8361 84.4983 19.7783L84.3639 19.6048C84.2744 19.4892 84.1848 19.3735 84.0953 19.3157C84.0057 19.2 83.9161 19.0843 83.8266 18.9687L83.6922 18.7952C83.6475 18.7374 83.6027 18.6795 83.5579 18.6217C83.4683 18.506 83.4236 18.3904 83.334 18.2747C83.2445 18.159 83.1997 18.0434 83.1101 17.8699L83.0206 17.6964C82.9758 17.6386 82.9758 17.5807 82.931 17.5229C82.8862 17.4072 82.7967 17.2337 82.7519 17.1181C82.7071 17.0024 82.6623 16.8289 82.6175 16.7133L82.528 16.4819C82.4832 16.4241 82.4832 16.3663 82.4832 16.2506C82.4384 16.1349 82.3936 15.9615 82.3489 15.8458C82.3041 15.6723 82.3041 15.5566 82.2593 15.3831L82.2145 15.1518C82.2145 15.094 82.1698 14.9783 82.1698 14.9205C82.125 14.747 82.125 14.6313 82.0802 14.4578C82.0802 14.2843 82.0354 14.1687 82.0354 13.9952L81.9906 13.7639C81.9906 13.706 81.9906 13.5904 81.9906 13.5325C81.9906 13.359 81.9906 13.2434 81.9459 13.0699C81.9459 12.8964 81.9459 12.7807 81.9459 12.6072C81.9459 12.4337 81.9459 12.3181 81.9459 12.1446C81.9459 11.9711 81.9459 11.8554 81.9459 11.6819C81.9459 11.5084 81.9906 11.3928 81.9906 11.2771V11.0458V10.9301V10.8145C81.9906 10.6988 82.0354 10.5253 82.0354 10.4096C82.3936 8.15422 83.1997 6.13012 84.3639 4.62651C84.9461 3.8747 85.573 3.23856 86.1999 2.66024C86.379 2.54458 86.5133 2.37109 86.6924 2.25542C86.8716 2.13976 87.0059 2.0241 87.185 1.90844C87.4985 1.67711 87.8567 1.44578 88.2149 1.27229C88.8866 0.867472 89.5583 0.578315 90.2748 0.34699C90.4539 0.289158 90.633 0.231327 90.7673 0.173496C90.9465 0.115664 91.1256 0.0578329 91.2599 0.0578329C91.439 1.57952e-06 91.6182 1.57952e-06 91.7525 -0.0578298C91.9316 -0.0578298 92.0659 -0.115661 92.2451 -0.115661C92.4242 -0.115661 92.5585 -0.173492 92.7376 -0.173492C92.8272 -0.173492 92.9168 -0.173492 92.9615 -0.173492C93.0511 -0.173492 93.1406 -0.173492 93.1854 -0.173492C93.3645 -0.173492 93.4989 -0.173492 93.678 -0.173492H93.8123H93.9467C94.0362 -0.173492 94.081 -0.173492 94.1706 -0.173492C94.2601 -0.173492 94.3049 -0.173492 94.3945 -0.173492H94.5288H94.6631C94.7975 -0.173492 94.9766 -0.115661 95.1109 -0.115661C95.2453 -0.115661 95.4244 -0.0578298 95.5587 -0.0578298C95.6931 1.57952e-06 95.8722 1.57952e-06 96.0065 0.0578329C97.1708 0.34699 98.2007 0.80964 99.0963 1.27229C99.9919 1.79277 100.798 2.37109 101.514 2.89157C102.903 4.04819 103.843 5.14699 104.425 5.8988C104.738 6.30362 104.962 6.59277 105.097 6.76627C105.231 6.99759 105.321 7.05542 105.321 7.05542C105.321 7.05542 105.231 6.93976 105.097 6.76627C104.918 6.59277 104.694 6.24579 104.38 5.8988C103.753 5.14699 102.768 4.10603 101.38 3.00723C100.664 2.48675 99.9023 1.96627 98.9619 1.50362C98.0664 1.04097 97.0364 0.636146 95.917 0.404821C95.7826 0.34699 95.6483 0.34699 95.4692 0.34699C95.3348 0.34699 95.2005 0.289158 95.0214 0.289158C94.887 0.289158 94.7079 0.231327 94.5736 0.231327H94.484H94.3497C94.2601 0.231327 94.2153 0.231327 94.1258 0.231327C94.0362 0.231327 93.9914 0.231327 93.9019 0.231327H93.7676H93.6332C93.4989 0.231327 93.3198 0.231327 93.1854 0.231327C93.0959 0.231327 93.0511 0.231327 92.9615 0.231327C92.872 0.231327 92.7824 0.231327 92.7376 0.231327C92.5585 0.231327 92.4242 0.231327 92.2451 0.289158C92.0659 0.289158 91.9316 0.34699 91.7525 0.34699C91.5734 0.404821 91.439 0.404821 91.2599 0.462652C91.0808 0.520484 90.9465 0.520484 90.7673 0.578315C90.5882 0.636146 90.4539 0.693978 90.2748 0.751809C89.6031 0.983134 88.9762 1.27229 88.3045 1.67711C87.0059 2.42892 85.7969 3.58554 84.6774 4.9735C84.543 5.14699 84.4087 5.32049 84.3192 5.55181C84.2744 5.66747 84.1848 5.7253 84.14 5.84097C84.0953 5.95663 84.0505 6.07229 83.9609 6.13012L83.8714 6.30362C83.8266 6.36145 83.8266 6.41928 83.7818 6.47711C83.737 6.59277 83.6922 6.70844 83.6475 6.8241C83.6027 6.93976 83.5579 7.05542 83.5131 7.17109C83.4683 7.28675 83.4236 7.40241 83.3788 7.51808C83.2892 7.7494 83.1997 7.98073 83.1549 8.21205C83.1101 8.32771 83.0653 8.44338 83.0653 8.55904C83.0206 8.6747 83.0206 8.79036 82.9758 8.90603L82.931 9.07952L82.8862 9.25301C82.8414 9.36868 82.8414 9.48434 82.7967 9.65784C82.7519 9.7735 82.7519 9.88916 82.7519 10.0627C82.7519 10.1783 82.7071 10.294 82.7071 10.4675C82.7071 10.5831 82.6623 10.7566 82.6623 10.8723V10.988V11.1036V11.2771C82.6623 11.3928 82.6175 11.5663 82.6175 11.6819C82.6175 11.7976 82.6175 11.9711 82.6175 12.0868C82.6175 12.2024 82.6175 12.3759 82.6175 12.4916C82.6175 12.6072 82.6175 12.7807 82.6175 12.8964C82.6175 13.0121 82.6175 13.1855 82.6623 13.3012C82.6623 13.359 82.6623 13.4169 82.6623 13.4747L82.7071 13.6482C82.7071 13.7639 82.7519 13.9374 82.7519 14.053C82.7967 14.1687 82.7967 14.3422 82.8414 14.4578C82.8414 14.5157 82.8414 14.5735 82.8862 14.6313L82.931 14.8048C82.9758 14.9205 82.9758 15.094 83.0206 15.2096C83.0653 15.3253 83.1101 15.441 83.1549 15.6145C83.1549 15.6723 83.1997 15.7301 83.1997 15.788L83.2892 15.9615C83.334 16.0771 83.3788 16.1928 83.4236 16.3084C83.4683 16.4241 83.5131 16.5398 83.6027 16.6554C83.6475 16.7133 83.6475 16.7711 83.6922 16.8289L83.7818 17.0024C83.8266 17.1181 83.9161 17.2337 83.9609 17.3494C84.0505 17.4651 84.0953 17.5807 84.1848 17.6964C84.2296 17.7542 84.2744 17.8121 84.2744 17.8699L84.4087 18.0434C84.4983 18.159 84.543 18.2169 84.6326 18.3325C84.7222 18.4482 84.8117 18.506 84.9013 18.6217L85.0356 18.7374C85.0804 18.7952 85.1252 18.7952 85.17 18.853C85.2595 18.9108 85.3491 19.0265 85.4386 19.0843L85.4834 19.1422L85.573 19.2L85.7073 19.3157C85.7969 19.3735 85.8864 19.4892 85.976 19.547C86.0655 19.6048 86.1551 19.6627 86.2894 19.7205C86.379 19.7783 86.4685 19.8362 86.6029 19.894C86.6924 19.9518 86.8268 20.0096 86.9163 20.0675C86.9611 20.0675 87.0059 20.1253 87.0955 20.1253L87.2746 20.1831C87.4985 20.2988 87.7224 20.3566 87.9463 20.4145C88.1702 20.4723 88.3941 20.588 88.6179 20.6458C88.7523 20.6458 88.8418 20.7036 88.9762 20.7036C89.021 20.7036 89.1105 20.7615 89.1553 20.7615H89.3344C89.4688 20.7615 89.5583 20.8193 89.6927 20.8193H89.7822H89.8718H90.0509C90.1852 20.8193 90.2748 20.8193 90.4091 20.8771C90.5435 20.8771 90.633 20.8771 90.7673 20.8771C91.7077 20.8771 92.6929 20.7614 93.6332 20.5301C94.5736 20.2988 95.5587 19.9518 96.4991 19.4892C97.4394 19.0843 98.3798 18.5639 99.3202 17.9855C101.201 16.8868 103.037 15.5566 104.873 14.1687C105.813 13.4747 106.709 12.7229 107.649 12.0289C108.097 11.6819 108.589 11.2771 109.082 10.9301C109.575 10.5831 110.022 10.2361 110.515 9.88916C112.396 8.44338 114.232 6.93976 116.157 5.55181C118.038 4.16386 120.008 2.89157 122.023 2.08193C123.053 1.67711 124.083 1.38795 125.158 1.21446C126.188 1.0988 127.262 1.04097 128.292 1.21446C129.322 1.33012 130.352 1.67711 131.292 2.08193C132.233 2.48675 133.173 3.06506 134.024 3.75904C134.427 4.10603 134.83 4.51085 135.233 4.91567C135.591 5.32048 135.95 5.78313 136.263 6.30362C136.576 6.76627 136.845 7.34458 137.069 7.86506C137.293 8.44338 137.472 9.02169 137.606 9.6C137.741 10.1783 137.83 10.8145 137.875 11.3928C137.875 11.5663 137.875 11.6819 137.875 11.8554C137.875 11.9133 137.875 12.0289 137.875 12.0868V12.3181C137.875 12.4916 137.875 12.6072 137.875 12.7807C137.875 12.9542 137.875 13.0699 137.83 13.2434C137.741 14.4578 137.517 15.5566 137.114 16.5976C136.711 17.6386 136.173 18.5639 135.591 19.3157C135.278 19.7205 134.964 20.0675 134.651 20.3566C134.337 20.7036 133.979 20.9928 133.621 21.2241C132.905 21.7446 132.188 22.1494 131.427 22.4964C130.71 22.7855 129.949 23.0169 129.233 23.1904C128.516 23.3639 127.8 23.4795 127.083 23.5374C126.904 23.5374 126.725 23.5952 126.546 23.5952C126.367 23.5952 126.188 23.5952 126.053 23.5952C125.874 23.5952 125.695 23.5952 125.561 23.5952C125.382 23.5952 125.247 23.5952 125.068 23.5952C124.396 23.5374 123.77 23.4795 123.143 23.3639C122.516 23.2482 121.934 23.0747 121.396 22.9012C120.814 22.7277 120.322 22.4964 119.784 22.2651C119.292 22.0337 118.799 21.8024 118.351 21.5133C117.456 20.9928 116.65 20.4145 115.933 19.894C114.545 18.853 113.515 17.8699 112.843 17.1759C112.485 16.8289 112.261 16.5976 112.082 16.4241C111.814 16.5976 111.724 16.5398 111.724 16.5398Z" fill="#FBA1AB"/>
<path d="M122.381 7.80723C122.381 7.80723 122.292 7.80723 122.158 7.86506C122.068 7.86506 121.978 7.92289 121.844 7.92289C121.71 7.92289 121.575 7.98072 121.441 8.03855C120.859 8.21205 119.963 8.44337 118.978 8.96386C117.948 9.42651 116.784 10.1783 115.53 11.0458C114.276 11.9711 112.933 13.0699 111.5 14.1687C110.784 14.747 110.067 15.2675 109.395 15.788C109.037 16.0193 108.724 16.3084 108.366 16.5398C108.052 16.7711 107.694 17.0024 107.38 17.2337C106.127 18.1012 104.962 18.9687 103.977 19.6048C103.843 19.6627 103.753 19.7783 103.619 19.8361C103.485 19.894 103.395 20.0096 103.261 20.0675C103.037 20.1831 102.813 20.3566 102.634 20.4723C102.231 20.7036 101.873 20.9349 101.604 21.0506C101.022 21.3398 100.708 21.5133 100.708 21.5133C100.708 21.5133 101.022 21.2819 101.514 20.8771C101.783 20.6458 102.096 20.4145 102.455 20.1253C102.634 19.9518 102.813 19.7783 103.037 19.6048C103.126 19.4892 103.261 19.4313 103.35 19.3157C103.44 19.2 103.574 19.1422 103.664 19.0265C104.112 18.6217 104.604 18.159 105.141 17.6964C105.41 17.4651 105.679 17.2337 105.992 16.9446C106.261 16.7133 106.574 16.4241 106.888 16.1928C107.201 15.9614 107.515 15.6723 107.828 15.441C108.142 15.2096 108.5 14.9205 108.813 14.6892C109.485 14.1687 110.157 13.5904 110.873 13.012C112.306 11.8554 113.694 10.8145 115.038 10.0048C116.381 9.19518 117.635 8.61687 118.71 8.26988C119.784 7.92289 120.68 7.80723 121.307 7.7494C121.441 7.7494 121.62 7.7494 121.71 7.7494C121.844 7.7494 121.934 7.7494 122.023 7.7494C122.292 7.80723 122.381 7.80723 122.381 7.80723Z" fill="#87D1DE"/>
<path d="M119.829 3.23856C119.829 3.23856 119.739 3.23856 119.605 3.29639C119.516 3.29639 119.426 3.35422 119.292 3.35422C119.157 3.35422 119.023 3.41205 118.889 3.46988C118.307 3.64338 117.411 3.8747 116.426 4.39518C115.396 4.85783 114.232 5.60964 112.978 6.47711C111.724 7.40241 110.381 8.50121 108.948 9.6C108.231 10.1783 107.515 10.6988 106.843 11.2193C106.485 11.4506 106.171 11.7398 105.813 11.9711C105.5 12.2024 105.141 12.4337 104.828 12.6651C103.574 13.5325 102.41 14.4 101.425 15.0361C101.29 15.094 101.201 15.2096 101.067 15.2675C100.932 15.3253 100.843 15.441 100.708 15.4988C100.484 15.6145 100.261 15.788 100.081 15.9036C99.6784 16.1349 99.3202 16.3663 99.0515 16.4819C98.4694 16.7711 98.1559 16.9446 98.1559 16.9446C98.1559 16.9446 98.4694 16.7133 98.9619 16.3084C99.2306 16.0771 99.5441 15.8458 99.9023 15.5566C100.081 15.3831 100.261 15.2096 100.484 15.0361C100.574 14.9205 100.708 14.8627 100.798 14.747C100.887 14.6313 101.022 14.5735 101.111 14.4578C101.559 14.053 102.052 13.5904 102.589 13.1277C102.858 12.8964 103.126 12.6651 103.44 12.3759C103.709 12.1446 104.022 11.8554 104.335 11.6241C104.649 11.3928 104.962 11.1036 105.276 10.8723C105.589 10.641 105.947 10.3518 106.261 10.1205C106.933 9.6 107.604 9.02169 108.321 8.44338C109.754 7.28675 111.142 6.24578 112.485 5.43615C113.829 4.62651 115.082 4.0482 116.157 3.70121C117.232 3.35422 118.127 3.23856 118.754 3.18073C118.889 3.18073 119.068 3.18073 119.157 3.18073C119.292 3.18073 119.381 3.18073 119.471 3.18073C119.739 3.23856 119.829 3.23856 119.829 3.23856Z" fill="#87D1DE"/>
<path d="M220 13.4747C220 13.4747 218.836 5.20482 210.775 13.5325C210.775 13.5325 218.388 21.9181 220 13.4747ZM218.164 13.5325C218.164 13.7639 218.03 13.9374 217.851 13.9374C217.671 13.9374 217.537 13.7639 217.537 13.5325C217.537 13.3012 217.671 13.1277 217.851 13.1277C218.03 13.1277 218.164 13.3012 218.164 13.5325ZM212.791 13.5325C212.791 13.5325 213.328 11.0458 217 13.5325C217 13.5325 213.552 16.0771 212.791 13.5325Z" fill="#FBA1AB"/>
<path d="M210.193 14.6892C209.746 14.6892 209.343 14.2265 209.343 13.5904C209.343 13.0121 209.701 12.4916 210.193 12.4916C210.641 12.4916 211.044 12.9542 211.044 13.5904C211.044 14.1687 210.641 14.6892 210.193 14.6892Z" fill="#FBA1AB"/>
<path d="M203.656 14.6892C203.208 14.6892 202.805 14.2265 202.805 13.5904C202.805 13.0121 203.163 12.4916 203.656 12.4916C204.103 12.4916 204.506 12.9542 204.506 13.5904C204.506 14.2265 204.148 14.6892 203.656 14.6892Z" fill="#FBA1AB"/>
<path d="M206.924 16.4819C206.924 16.4819 209.835 13.5904 209.79 13.5904C209.835 13.5904 206.88 10.6988 206.88 10.6988C206.521 11.6241 203.969 13.5904 204.014 13.5904C203.969 13.6482 206.566 15.5566 206.924 16.4819Z" fill="#FBA1AB"/>
<path d="M131.248 13.5325C126.009 8.09639 125.247 13.4747 125.247 13.4747C126.322 19.0265 131.248 13.5325 131.248 13.5325ZM126.68 13.3012C126.77 13.3012 126.859 13.4169 126.859 13.5325C126.859 13.6482 126.77 13.7639 126.68 13.7639C126.591 13.7639 126.501 13.6482 126.501 13.5325C126.456 13.4169 126.546 13.3012 126.68 13.3012ZM127.218 13.5325C129.636 11.9133 129.949 13.5325 129.949 13.5325C129.457 15.2096 127.218 13.5325 127.218 13.5325Z" fill="#FBA1AB"/>
<path d="M131.651 14.2843C131.964 14.2843 132.188 13.9952 132.188 13.5904C132.188 13.1855 131.964 12.8964 131.651 12.8964C131.337 12.8964 131.113 13.1855 131.113 13.5904C131.113 13.9952 131.337 14.2843 131.651 14.2843Z" fill="#FBA1AB"/>
<path d="M203.656 13.2434H132.188V13.9952H203.656V13.2434Z" fill="#FBA1AB"/>
<path d="M9.22451 13.5325C1.16426 5.20482 0 13.4747 0 13.4747C1.65683 21.9181 9.22451 13.5325 9.22451 13.5325ZM2.1494 13.1277C2.32852 13.1277 2.46285 13.3012 2.46285 13.5325C2.46285 13.7639 2.32852 13.9374 2.1494 13.9374C1.97028 13.9374 1.83595 13.7639 1.83595 13.5325C1.83595 13.3012 1.97028 13.1277 2.1494 13.1277ZM3.0002 13.5325C6.67209 11.0458 7.20944 13.5325 7.20944 13.5325C6.4482 16.0771 3.0002 13.5325 3.0002 13.5325Z" fill="#FBA1AB"/>
<path d="M9.80663 14.6892C10.2544 14.6892 10.6574 14.2265 10.6574 13.5904C10.6574 13.0121 10.2992 12.4916 9.80663 12.4916C9.35884 12.4916 8.95583 12.9542 8.95583 13.5904C8.95583 14.1687 9.35884 14.6892 9.80663 14.6892Z" fill="#FBA1AB"/>
<path d="M16.3444 14.6892C16.7922 14.6892 17.1952 14.2265 17.1952 13.5904C17.1952 13.0121 16.837 12.4916 16.3444 12.4916C15.8966 12.4916 15.4936 12.9542 15.4936 13.5904C15.4936 14.2265 15.8518 14.6892 16.3444 14.6892Z" fill="#FBA1AB"/>
<path d="M13.0755 16.4819C13.0755 16.4819 10.1649 13.5904 10.2096 13.5904C10.1649 13.5904 13.1203 10.6988 13.1203 10.6988C13.4785 11.6241 16.0309 13.5904 15.9862 13.5904C16.0309 13.6482 13.4337 15.5566 13.0755 16.4819Z" fill="#FBA1AB"/>
<path d="M94.7527 13.5325C94.7527 13.5325 93.9915 8.15422 88.7523 13.5904C88.7523 13.5325 93.678 19.0265 94.7527 13.5325ZM93.5437 13.5325C93.5437 13.6482 93.4541 13.7639 93.3645 13.7639C93.275 13.7639 93.1854 13.6482 93.1854 13.5325C93.1854 13.4169 93.275 13.3012 93.3645 13.3012C93.4541 13.3012 93.5437 13.4169 93.5437 13.5325ZM90.0509 13.5904C90.0509 13.5904 90.4091 11.9711 92.7824 13.5904C92.7824 13.5325 90.5435 15.2096 90.0509 13.5904Z" fill="#FBA1AB"/>
<path d="M88.3493 14.2843C88.0358 14.2843 87.8119 13.9952 87.8119 13.5904C87.8119 13.1855 88.0358 12.8964 88.3493 12.8964C88.6627 12.8964 88.8866 13.1855 88.8866 13.5904C88.8866 13.9952 88.6627 14.2843 88.3493 14.2843Z" fill="#FBA1AB"/>
<path d="M87.8119 13.2434H16.3444V13.9952H87.8119V13.2434Z" fill="#FBA1AB"/>
</g>
<defs>
<clipPath id="clip0">
<rect width="220" height="24" fill="white"/>
</clipPath>
</defs>
</svg>
