<svg width="30" height="30" viewBox="0 0 30 30" fill="none" xmlns="http://www.w3.org/2000/svg">
<g clip-path="url(#clip0)">
<path d="M28.3427 0.00585938H1.65577C0.741936 0.00585938 0 0.746313 0 1.66163V28.3486C0 29.2639 0.741936 30.0054 1.65577 30.0054H16.0232V18.3878H12.114V13.8596H16.0232V10.5204C16.0232 6.64624 18.3888 4.53552 21.8456 4.53552C23.5029 4.53552 24.924 4.65951 25.3384 4.71335V8.76288L22.9407 8.76387C21.0612 8.76387 20.6986 9.65745 20.6986 10.9679V13.8581H25.1828L24.5965 18.3858H20.6981V30.0039H28.3422C29.2571 30.0039 29.9995 29.2615 29.9995 28.3486V1.66064C29.999 0.746314 29.2576 0.00585938 28.3427 0.00585938Z" fill="#FBA1AB"/>
</g>
<defs>
<clipPath id="clip0">
<rect width="30.0005" height="30" fill="white"/>
</clipPath>
</defs>
</svg>
