<svg width="45" height="50" viewBox="0 0 45 50" fill="none" xmlns="http://www.w3.org/2000/svg">
<g clip-path="url(#clip0)">
<path d="M37.5098 9.48242C33.3837 5.38086 27.8887 3.125 22.049 3.125C9.9954 3.125 0.187106 12.8516 0.187106 24.8047C0.187106 28.623 1.19157 32.3535 3.10202 35.6445L0 46.875L11.5907 43.8574C14.7814 45.5859 18.3758 46.4941 22.0391 46.4941H22.049C34.0927 46.4941 44.1176 36.7676 44.1176 24.8145C44.1176 19.0234 41.636 13.584 37.5098 9.48242V9.48242ZM22.049 42.8418C18.7795 42.8418 15.579 41.9727 12.7921 40.332L12.1324 39.9414L5.25867 41.7285L7.09034 35.0781L6.65704 34.3945C4.83521 31.5234 3.87999 28.2129 3.87999 24.8047C3.87999 14.873 12.0339 6.78711 22.0588 6.78711C26.9137 6.78711 31.4732 8.66211 34.9002 12.0703C38.3272 15.4785 40.4346 20 40.4248 24.8145C40.4248 34.7559 32.0641 42.8418 22.049 42.8418V42.8418ZM32.0148 29.3457C31.4732 29.0723 28.7848 27.7637 28.2826 27.5879C27.7803 27.4023 27.416 27.3145 27.0516 27.8613C26.6872 28.4082 25.6434 29.6191 25.3184 29.9902C25.0033 30.3516 24.6783 30.4004 24.1367 30.127C20.9263 28.5352 18.8189 27.2852 16.7017 23.6816C16.1404 22.7246 17.263 22.793 18.3069 20.7227C18.4841 20.3613 18.3955 20.0488 18.2576 19.7754C18.1197 19.502 17.0267 16.8359 16.5737 15.752C16.1305 14.6973 15.6775 14.8438 15.3427 14.8242C15.0276 14.8047 14.6632 14.8047 14.2988 14.8047C13.9345 14.8047 13.3436 14.9414 12.8414 15.4785C12.3392 16.0254 10.9309 17.334 10.9309 20C10.9309 22.666 12.8906 25.2441 13.1565 25.6055C13.4322 25.9668 17.007 31.4355 22.4921 33.7891C25.9585 35.2734 27.3175 35.4004 29.0507 35.1465C30.1044 34.9902 32.2807 33.8379 32.7337 32.5684C33.1867 31.2988 33.1867 30.2148 33.0488 29.9902C32.9208 29.7461 32.5565 29.6094 32.0148 29.3457Z" fill="white"/>
</g>
<defs>
<clipPath id="clip0">
<rect width="44.1176" height="50" fill="white"/>
</clipPath>
</defs>
</svg>
