<svg width="30" height="35" viewBox="0 0 30 35" fill="none" xmlns="http://www.w3.org/2000/svg">
<path d="M12.5089 13.5332L18.8839 17.156L12.5089 20.7787V13.5332ZM30 5.35686V28.9283C30 30.7028 28.5603 32.1426 26.7857 32.1426H3.21429C1.43973 32.1426 0 30.7028 0 28.9283V5.35686C0 3.58231 1.43973 2.14258 3.21429 2.14258H26.7857C28.5603 2.14258 30 3.58231 30 5.35686ZM27.1875 17.1627C27.1875 17.1627 27.1875 13.1716 26.6786 11.2564C26.3973 10.1984 25.5737 9.36802 24.5223 9.08677C22.6272 8.57115 15 8.57115 15 8.57115C15 8.57115 7.37277 8.57115 5.47768 9.08677C4.42634 9.36802 3.60268 10.1984 3.32143 11.2564C2.8125 13.1649 2.8125 17.1627 2.8125 17.1627C2.8125 17.1627 2.8125 21.1537 3.32143 23.0689C3.60268 24.127 4.42634 24.9238 5.47768 25.2051C7.37277 25.714 15 25.714 15 25.714C15 25.714 22.6272 25.714 24.5223 25.1984C25.5737 24.9171 26.3973 24.1203 26.6786 23.0622C27.1875 21.1537 27.1875 17.1627 27.1875 17.1627Z" fill="#FBA1AB"/>
</svg>
